M48
; DRILL file {KiCad (5.1.2)-2} date 9/9/2019 8:31:05 PM
; FORMAT={-:-/ absolute / inch / decimal}
; #@! TF.CreationDate,2019-09-09T20:31:05-04:00
; #@! TF.GenerationSoftware,Kicad,Pcbnew,(5.1.2)-2
FMAT,2
INCH
T1C0.0079
T2C0.0118
T3C0.0157
T4C0.0394
%
G90
G05
T1
X4.5681Y-1.4949
X4.5681Y-1.5697
X4.5681Y-1.6523
X4.5681Y-1.7311
X4.5681Y-1.8098
X4.5681Y-1.8886
X4.5681Y-1.9673
X4.5681Y-2.0461
X4.5681Y-2.1248
X4.5681Y-2.2035
X4.5681Y-2.2823
X4.5681Y-2.361
X4.5681Y-2.4398
X4.5681Y-2.5185
X4.5681Y-2.5972
X4.5681Y-2.676
X4.5681Y-2.7547
X4.5681Y-2.8335
X4.5681Y-2.9122
X4.5681Y-2.9909
X4.5681Y-3.0697
X4.5681Y-3.1484
X4.5681Y-3.2311
X4.5681Y-3.3059
X4.5681Y-3.3846
X4.5681Y-3.4634
X4.5681Y-3.5421
X4.5681Y-3.6209
X4.5681Y-3.6996
X4.5681Y-3.7783
X4.5681Y-3.8571
X4.5681Y-3.9358
X4.6469Y-1.4949
X4.6469Y-1.5736
X4.6469Y-1.6523
X4.6469Y-1.7311
X4.6469Y-1.8098
X4.6469Y-1.8886
X4.6469Y-1.9673
X4.6469Y-2.0461
X4.6469Y-2.1248
X4.6469Y-2.2035
X4.6469Y-2.2862
X4.6469Y-2.361
X4.6469Y-2.4398
X4.6469Y-2.5185
X4.6469Y-2.5972
X4.6469Y-2.676
X4.6469Y-2.7547
X4.6469Y-2.8335
X4.6469Y-2.9122
X4.6469Y-2.9909
X4.6469Y-3.0697
X4.6469Y-3.1484
X4.6469Y-3.2272
X4.6469Y-3.3059
X4.6469Y-3.3846
X4.6469Y-3.4634
X4.6469Y-3.5421
X4.6469Y-3.6209
X4.6469Y-3.6996
X4.6469Y-3.7783
X4.6469Y-3.8571
X4.6469Y-3.9358
X4.7256Y-1.4949
X4.7256Y-1.5736
X4.7256Y-1.6523
X4.7256Y-1.7311
X4.7256Y-1.8098
X4.7256Y-1.8886
X4.7256Y-1.9673
X4.7256Y-2.0461
X4.7256Y-2.1248
X4.7256Y-2.2035
X4.7256Y-2.2823
X4.7256Y-2.361
X4.7256Y-2.4398
X4.7256Y-2.5185
X4.7256Y-2.5972
X4.7256Y-2.676
X4.7256Y-2.7547
X4.7256Y-2.8295
X4.7256Y-2.9122
X4.7256Y-2.9909
X4.7256Y-3.0657
X4.7256Y-3.1484
X4.7256Y-3.2272
X4.7256Y-3.302
X4.7256Y-3.3846
X4.7256Y-3.4634
X4.7256Y-3.5421
X4.7256Y-3.6209
X4.7256Y-3.6996
X4.7256Y-3.7783
X4.7256Y-3.8571
X4.7256Y-3.9358
X4.8043Y-1.4949
X4.8043Y-1.5736
X4.8043Y-1.6523
X4.8043Y-1.7311
X4.8043Y-1.8098
X4.8043Y-1.8886
X4.8043Y-1.9673
X4.8043Y-2.0461
X4.8043Y-2.1248
X4.8043Y-2.2035
X4.8043Y-2.2823
X4.8043Y-2.361
X4.8043Y-2.4398
X4.8043Y-2.5185
X4.8043Y-2.5972
X4.8043Y-2.676
X4.8043Y-2.7547
X4.8043Y-2.8335
X4.8043Y-2.9122
X4.8043Y-2.9909
X4.8043Y-3.0697
X4.8043Y-3.1484
X4.8043Y-3.2272
X4.8043Y-3.3059
X4.8043Y-3.3846
X4.8043Y-3.4594
X4.8043Y-3.5421
X4.8043Y-3.6209
X4.8043Y-3.6996
X4.8043Y-3.7783
X4.8043Y-3.8571
X4.8043Y-3.9358
X4.8831Y-1.4949
X4.8831Y-1.5736
X4.8831Y-1.6523
X4.8831Y-1.7311
X4.8831Y-1.8098
X4.8831Y-1.8886
X4.8831Y-1.9673
X4.8831Y-2.0461
X4.8831Y-2.1248
X4.8831Y-2.2035
X4.8831Y-2.2823
X4.8831Y-2.3649
X4.8831Y-2.4398
X4.8831Y-2.5224
X4.8831Y-2.5972
X4.8831Y-2.676
X4.8831Y-2.7547
X4.8831Y-2.8335
X4.8831Y-2.9122
X4.8831Y-2.9909
X4.8831Y-3.0697
X4.8831Y-3.1484
X4.8831Y-3.2272
X4.8831Y-3.3059
X4.8831Y-3.3846
X4.8831Y-3.4634
X4.8831Y-3.5421
X4.8831Y-3.6209
X4.8831Y-3.6996
X4.8831Y-3.7783
X4.8831Y-3.8571
X4.8831Y-3.9358
X4.9618Y-1.4949
X4.9618Y-1.5736
X4.9618Y-1.6523
X4.9618Y-1.7311
X4.9618Y-1.8098
X4.9618Y-1.8886
X4.9618Y-1.9673
X4.9618Y-2.0461
X4.9618Y-2.1248
X4.9618Y-2.2035
X4.9618Y-2.2862
X4.9618Y-2.361
X4.9618Y-2.4437
X4.9618Y-2.5185
X4.9618Y-2.6012
X4.9618Y-2.676
X4.9618Y-2.7547
X4.9618Y-2.8374
X4.9618Y-2.9122
X4.9618Y-2.9909
X4.9618Y-3.0697
X4.9618Y-3.1523
X4.9618Y-3.2272
X4.9618Y-3.3059
X4.9618Y-3.3846
X4.9618Y-3.4634
X4.9618Y-3.5421
X4.9618Y-3.6209
X4.9618Y-3.6996
X4.9618Y-3.7783
X4.9618Y-3.8571
X4.9618Y-3.9358
X5.0406Y-1.4949
X5.0406Y-1.5736
X5.0406Y-1.6523
X5.0406Y-1.7311
X5.0406Y-1.8098
X5.0406Y-1.8886
X5.0406Y-1.9673
X5.0406Y-2.0461
X5.0406Y-2.1248
X5.0406Y-2.2035
X5.0406Y-2.2823
X5.0406Y-2.3571
X5.0406Y-2.4398
X5.0406Y-2.5185
X5.0406Y-2.5972
X5.0406Y-2.676
X5.0406Y-2.7547
X5.0406Y-2.8335
X5.0406Y-2.9122
X5.0406Y-2.9909
X5.0406Y-3.0697
X5.0406Y-3.1484
X5.0406Y-3.2272
X5.0406Y-3.3059
X5.0406Y-3.3846
X5.0406Y-3.4634
X5.0406Y-3.5421
X5.0406Y-3.6209
X5.0406Y-3.6996
X5.0406Y-3.7783
X5.0406Y-3.8571
X5.0406Y-3.9358
X5.1193Y-1.4949
X5.1193Y-1.5736
X5.1193Y-1.6523
X5.1193Y-1.7311
X5.1193Y-1.8098
X5.1193Y-1.8886
X5.1193Y-1.9673
X5.1193Y-2.0461
X5.1193Y-2.1248
X5.1193Y-2.2035
X5.1193Y-2.2823
X5.1193Y-2.361
X5.1193Y-2.4398
X5.1193Y-2.5185
X5.1193Y-2.5972
X5.1193Y-2.676
X5.1193Y-2.7547
X5.1193Y-2.8335
X5.1193Y-2.9122
X5.1193Y-2.9909
X5.1193Y-3.0697
X5.1193Y-3.1484
X5.1193Y-3.2311
X5.1193Y-3.3059
X5.1193Y-3.3807
X5.1193Y-3.4634
X5.1193Y-3.5421
X5.1193Y-3.6209
X5.1193Y-3.6957
X5.1193Y-3.7783
X5.1193Y-3.8571
X5.1193Y-3.9358
X5.198Y-1.4949
X5.198Y-1.5736
X5.198Y-1.6523
X5.198Y-1.7311
X5.198Y-1.8098
X5.198Y-1.8886
X5.198Y-1.9673
X5.198Y-2.0461
X5.198Y-2.1248
X5.198Y-2.2035
X5.198Y-2.2823
X5.198Y-2.361
X5.198Y-2.4398
X5.198Y-2.5185
X5.198Y-2.5972
X5.198Y-2.676
X5.198Y-2.7547
X5.198Y-2.8374
X5.198Y-2.9122
X5.198Y-2.9909
X5.198Y-3.0697
X5.198Y-3.1484
X5.198Y-3.2272
X5.198Y-3.3059
X5.198Y-3.3846
X5.198Y-3.4634
X5.198Y-3.5421
X5.198Y-3.6209
X5.198Y-3.6996
X5.198Y-3.7783
X5.198Y-3.8571
X5.198Y-3.9358
X5.2768Y-1.4949
X5.2768Y-1.5736
X5.2768Y-1.6523
X5.2768Y-1.7311
X5.2768Y-1.8098
X5.2768Y-1.8886
X5.2768Y-1.9673
X5.2768Y-2.0461
X5.2768Y-2.1248
X5.2768Y-2.2035
X5.2768Y-2.2823
X5.2768Y-2.3649
X5.2768Y-2.4398
X5.2768Y-2.5185
X5.2768Y-2.5972
X5.2768Y-2.676
X5.2768Y-2.7547
X5.2768Y-2.8335
X5.2768Y-2.9083
X5.2768Y-2.9909
X5.2768Y-3.0697
X5.2768Y-3.1484
X5.2768Y-3.2232
X5.2768Y-3.3059
X5.2768Y-3.3846
X5.2768Y-3.4594
X5.2768Y-3.5421
X5.2768Y-3.6209
X5.2768Y-3.6996
X5.2768Y-3.7783
X5.2768Y-3.8571
X5.2768Y-3.9358
X5.3555Y-1.4949
X5.3555Y-1.5736
X5.3555Y-1.6523
X5.3555Y-1.7311
X5.3555Y-1.8098
X5.3555Y-1.8886
X5.3555Y-1.9673
X5.3555Y-2.0461
X5.3555Y-2.1248
X5.3555Y-2.2035
X5.3555Y-2.2823
X5.3555Y-2.361
X5.3555Y-2.4398
X5.3555Y-2.5185
X5.3555Y-2.5972
X5.3555Y-2.676
X5.3555Y-2.7547
X5.3555Y-2.8335
X5.3555Y-2.9122
X5.3555Y-2.9909
X5.3555Y-3.0697
X5.3555Y-3.1484
X5.3555Y-3.2272
X5.3555Y-3.3059
X5.3555Y-3.3846
X5.3555Y-3.4634
X5.3555Y-3.5421
X5.3555Y-3.6209
X5.3555Y-3.6996
X5.3555Y-3.7783
X5.3555Y-3.8571
X5.3555Y-3.9358
X5.4343Y-1.4949
X5.4343Y-1.5736
X5.4343Y-1.6523
X5.4343Y-1.7311
X5.4343Y-1.8098
X5.4343Y-1.8886
X5.4343Y-1.9673
X5.4343Y-2.0461
X5.4343Y-2.1248
X5.4343Y-2.2035
X5.4343Y-2.2823
X5.4343Y-2.361
X5.4343Y-2.4398
X5.4343Y-2.5185
X5.4343Y-2.5972
X5.4343Y-2.676
X5.4343Y-2.7547
X5.4343Y-2.8335
X5.4343Y-2.9122
X5.4343Y-2.9909
X5.4343Y-3.0697
X5.4343Y-3.1484
X5.4343Y-3.2272
X5.4343Y-3.3059
X5.4343Y-3.3846
X5.4343Y-3.4634
X5.4343Y-3.5421
X5.4343Y-3.6209
X5.4343Y-3.6996
X5.4343Y-3.7783
X5.4343Y-3.8571
X5.4343Y-3.9358
X5.513Y-1.4949
X5.513Y-1.5736
X5.513Y-1.6523
X5.513Y-1.7311
X5.513Y-1.8098
X5.513Y-1.8886
X5.513Y-1.9673
X5.513Y-2.0461
X5.513Y-2.1248
X5.513Y-2.2035
X5.513Y-2.2823
X5.513Y-2.361
X5.513Y-2.4398
X5.513Y-2.5185
X5.513Y-2.5972
X5.513Y-2.676
X5.513Y-2.7547
X5.513Y-2.8335
X5.513Y-2.9161
X5.513Y-2.9909
X5.513Y-3.0697
X5.513Y-3.1484
X5.513Y-3.2272
X5.513Y-3.3059
X5.513Y-3.3846
X5.513Y-3.4634
X5.513Y-3.5421
X5.513Y-3.6209
X5.513Y-3.6996
X5.513Y-3.7783
X5.513Y-3.8571
X5.513Y-3.9358
X5.5917Y-1.4949
X5.5917Y-1.5736
X5.5917Y-1.6523
X5.5917Y-1.7311
X5.5917Y-1.8098
X5.5917Y-1.8886
X5.5917Y-1.9673
X5.5917Y-2.0461
X5.5917Y-2.1248
X5.5917Y-2.2035
X5.5917Y-2.2823
X5.5917Y-2.361
X5.5917Y-2.4398
X5.5917Y-2.5185
X5.5917Y-2.5972
X5.5917Y-2.676
X5.5917Y-2.7547
X5.5917Y-2.8335
X5.5917Y-2.9122
X5.5917Y-2.9909
X5.5917Y-3.0697
X5.5917Y-3.1484
X5.5917Y-3.2272
X5.5917Y-3.302
X5.5917Y-3.3846
X5.5917Y-3.4634
X5.5917Y-3.5421
X5.5917Y-3.6209
X5.5917Y-3.6996
X5.5917Y-3.7783
X5.5917Y-3.8571
X5.5917Y-3.9358
X5.6705Y-1.4949
X5.6705Y-1.5736
X5.6705Y-1.6523
X5.6705Y-1.7311
X5.6705Y-1.8138
X5.6705Y-1.8886
X5.6705Y-1.9673
X5.6705Y-2.0461
X5.6705Y-2.1248
X5.6705Y-2.2035
X5.6705Y-2.2823
X5.6705Y-2.361
X5.6705Y-2.4398
X5.6705Y-2.5185
X5.6705Y-2.5972
X5.6705Y-2.676
X5.6705Y-2.7547
X5.6705Y-2.8335
X5.6705Y-2.9122
X5.6705Y-2.9909
X5.6705Y-3.0697
X5.6705Y-3.1484
X5.6705Y-3.2272
X5.6705Y-3.3059
X5.6705Y-3.3846
X5.6705Y-3.4673
X5.6705Y-3.5421
X5.6705Y-3.6209
X5.6705Y-3.6996
X5.6705Y-3.7783
X5.6705Y-3.8571
X5.6705Y-3.9358
X5.7492Y-1.4949
X5.7492Y-1.5736
X5.7492Y-1.6523
X5.7492Y-1.7311
X5.7492Y-1.8098
X5.7492Y-1.8886
X5.7492Y-1.9712
X5.7492Y-2.0461
X5.7492Y-2.1248
X5.7492Y-2.2035
X5.7492Y-2.2823
X5.7492Y-2.361
X5.7492Y-2.4398
X5.7492Y-2.5185
X5.7492Y-2.5972
X5.7492Y-2.676
X5.7492Y-2.7547
X5.7492Y-2.8335
X5.7492Y-2.9122
X5.7492Y-2.9909
X5.7492Y-3.0697
X5.7492Y-3.1484
X5.7492Y-3.2232
X5.7492Y-3.3059
X5.7492Y-3.3846
X5.7492Y-3.4634
X5.7492Y-3.5421
X5.7492Y-3.6209
X5.7492Y-3.6996
X5.7492Y-3.7783
X5.7492Y-3.8571
X5.7492Y-3.9358
X5.8268Y-4.0039
X5.828Y-1.4949
X5.828Y-1.5736
X5.828Y-1.6523
X5.828Y-1.7311
X5.828Y-1.8098
X5.828Y-1.8886
X5.828Y-1.9673
X5.828Y-2.0461
X5.828Y-2.1248
X5.828Y-2.2035
X5.828Y-2.2823
X5.828Y-2.361
X5.828Y-2.4398
X5.828Y-2.5185
X5.828Y-2.5972
X5.828Y-2.676
X5.828Y-2.7547
X5.828Y-2.8335
X5.828Y-2.9122
X5.828Y-2.9909
X5.828Y-3.0697
X5.828Y-3.1484
X5.828Y-3.2272
X5.828Y-3.3059
X5.828Y-3.3846
X5.828Y-3.4634
X5.828Y-3.5421
X5.828Y-3.6209
X5.828Y-3.6996
X5.828Y-3.7783
X5.828Y-3.8571
X5.828Y-3.9358
X5.9055Y-4.0118
X5.9067Y-1.4949
X5.9067Y-1.5736
X5.9067Y-1.6523
X5.9067Y-1.7311
X5.9067Y-1.8098
X5.9067Y-1.8886
X5.9067Y-1.9673
X5.9067Y-2.0461
X5.9067Y-2.1248
X5.9067Y-2.2035
X5.9067Y-2.2823
X5.9067Y-2.361
X5.9067Y-2.4358
X5.9067Y-2.5185
X5.9067Y-2.5972
X5.9067Y-2.6799
X5.9067Y-2.7547
X5.9067Y-2.8335
X5.9067Y-2.9122
X5.9067Y-2.9909
X5.9067Y-3.0697
X5.9067Y-3.1445
X5.9067Y-3.2272
X5.9067Y-3.3059
X5.9067Y-3.3846
X5.9067Y-3.4634
X5.9067Y-3.5421
X5.9067Y-3.6209
X5.9067Y-3.6996
X5.9067Y-3.7783
X5.9067Y-3.8571
X5.9067Y-3.9358
X5.9843Y-4.0079
X5.9854Y-1.4949
X5.9854Y-1.5736
X5.9854Y-1.6523
X5.9854Y-1.7311
X5.9854Y-1.8098
X5.9854Y-1.8886
X5.9854Y-1.9673
X5.9854Y-2.0461
X5.9854Y-2.1248
X5.9854Y-2.2035
X5.9854Y-2.2823
X5.9854Y-2.3649
X5.9854Y-2.4358
X5.9854Y-2.5185
X5.9854Y-2.5972
X5.9854Y-2.676
X5.9854Y-2.7547
X5.9854Y-2.8335
X5.9854Y-2.9122
X5.9854Y-2.9909
X5.9854Y-3.0697
X5.9854Y-3.1484
X5.9854Y-3.2272
X5.9854Y-3.3059
X5.9854Y-3.3846
X5.9854Y-3.4634
X5.9854Y-3.5421
X5.9854Y-3.6209
X5.9854Y-3.6996
X5.9854Y-3.7823
X5.9854Y-3.8571
X5.9854Y-3.9358
X6.063Y-4.0079
X6.0642Y-1.4949
X6.0642Y-1.5736
X6.0642Y-1.6523
X6.0642Y-1.7311
X6.0642Y-1.8098
X6.0642Y-1.8886
X6.0642Y-1.9673
X6.0642Y-2.0461
X6.0642Y-2.1248
X6.0642Y-2.2035
X6.0642Y-2.2862
X6.0642Y-2.361
X6.0642Y-2.4398
X6.0642Y-2.5224
X6.0642Y-2.5972
X6.0642Y-2.672
X6.0642Y-2.7547
X6.0642Y-2.8335
X6.0642Y-2.9083
X6.0642Y-2.9909
X6.0642Y-3.0697
X6.0642Y-3.1484
X6.0642Y-3.2272
X6.0642Y-3.3059
X6.0642Y-3.3846
X6.0642Y-3.4634
X6.0642Y-3.5421
X6.0642Y-3.6209
X6.0642Y-3.6996
X6.0642Y-3.7783
X6.0642Y-3.8571
X6.0642Y-3.9358
X6.1417Y-4.0079
X6.1429Y-1.4949
X6.1429Y-1.5736
X6.1429Y-1.6523
X6.1429Y-1.7311
X6.1429Y-1.8098
X6.1429Y-1.8886
X6.1429Y-1.9673
X6.1429Y-2.0461
X6.1429Y-2.1248
X6.1429Y-2.2035
X6.1429Y-2.2823
X6.1429Y-2.361
X6.1429Y-2.4398
X6.1429Y-2.5185
X6.1429Y-2.5972
X6.1429Y-2.676
X6.1429Y-2.7547
X6.1429Y-2.8335
X6.1429Y-2.9122
X6.1429Y-2.9909
X6.1429Y-3.0697
X6.1429Y-3.1484
X6.1429Y-3.2272
X6.1429Y-3.3059
X6.1429Y-3.3846
X6.1429Y-3.4673
X6.1429Y-3.5421
X6.1429Y-3.6209
X6.1429Y-3.6996
X6.1429Y-3.7783
X6.1429Y-3.8571
X6.1429Y-3.9358
X6.2205Y-4.0079
X6.2217Y-1.4949
X6.2217Y-1.5736
X6.2217Y-1.6563
X6.2217Y-1.7311
X6.2217Y-1.8098
X6.2217Y-1.8886
X6.2217Y-1.9673
X6.2217Y-2.0461
X6.2217Y-2.1248
X6.2217Y-2.2035
X6.2217Y-2.2823
X6.2217Y-2.361
X6.2217Y-2.4398
X6.2217Y-2.5185
X6.2217Y-2.5972
X6.2217Y-2.676
X6.2217Y-2.7547
X6.2217Y-2.8335
X6.2217Y-2.9122
X6.2217Y-2.9909
X6.2217Y-3.0697
X6.2217Y-3.1484
X6.2217Y-3.2272
X6.2217Y-3.3059
X6.2217Y-3.3846
X6.2217Y-3.4634
X6.2217Y-3.5421
X6.2217Y-3.6209
X6.2217Y-3.6996
X6.2217Y-3.7783
X6.2217Y-3.8571
X6.2217Y-3.9358
X6.2992Y-4.0079
X6.3004Y-1.4949
X6.3004Y-1.5736
X6.3004Y-1.6523
X6.3004Y-1.7311
X6.3004Y-1.8098
X6.3004Y-1.8886
X6.3004Y-1.9673
X6.3004Y-2.0461
X6.3004Y-2.1248
X6.3004Y-2.2035
X6.3004Y-2.2823
X6.3004Y-2.361
X6.3004Y-2.4398
X6.3004Y-2.5185
X6.3004Y-2.5972
X6.3004Y-2.676
X6.3004Y-2.7547
X6.3004Y-2.8335
X6.3004Y-2.9122
X6.3004Y-2.9909
X6.3004Y-3.0697
X6.3004Y-3.1484
X6.3004Y-3.2272
X6.3004Y-3.3059
X6.3004Y-3.3846
X6.3004Y-3.4634
X6.3004Y-3.5421
X6.3004Y-3.6209
X6.3004Y-3.6996
X6.3004Y-3.7783
X6.3004Y-3.8571
X6.3004Y-3.9358
X6.378Y-4.0039
X6.3791Y-1.4949
X6.3791Y-1.5736
X6.3791Y-1.6523
X6.3791Y-1.7311
X6.3791Y-1.8098
X6.3791Y-1.8886
X6.3791Y-1.9673
X6.3791Y-2.0421
X6.3791Y-2.1248
X6.3791Y-2.2035
X6.3791Y-2.2823
X6.3791Y-2.361
X6.3791Y-2.4398
X6.3791Y-2.5185
X6.3791Y-2.5972
X6.3791Y-2.676
X6.3791Y-2.7547
X6.3791Y-2.8335
X6.3791Y-2.9122
X6.3791Y-2.9909
X6.3791Y-3.0736
X6.3791Y-3.1484
X6.3791Y-3.2272
X6.3791Y-3.3059
X6.3791Y-3.3846
X6.3791Y-3.4634
X6.3791Y-3.5421
X6.3791Y-3.6209
X6.3791Y-3.6996
X6.3791Y-3.7783
X6.3791Y-3.8571
X6.3791Y-3.9358
X6.4567Y-4.0
X6.4579Y-1.4949
X6.4579Y-1.5736
X6.4579Y-1.6523
X6.4579Y-1.7311
X6.4579Y-1.8098
X6.4579Y-1.8925
X6.4579Y-1.9673
X6.4579Y-2.0461
X6.4579Y-2.1248
X6.4579Y-2.2075
X6.4579Y-2.2783
X6.4579Y-2.361
X6.4579Y-2.4398
X6.4579Y-2.5185
X6.4579Y-2.5972
X6.4579Y-2.676
X6.4579Y-2.7547
X6.4579Y-2.8335
X6.4579Y-2.9122
X6.4579Y-2.9909
X6.4579Y-3.0697
X6.4579Y-3.1484
X6.4579Y-3.2272
X6.4579Y-3.3059
X6.4579Y-3.3846
X6.4579Y-3.4634
X6.4579Y-3.5421
X6.4579Y-3.6209
X6.4579Y-3.6996
X6.4579Y-3.7783
X6.4579Y-3.8571
X6.4579Y-3.9358
X6.5354Y-4.0
X6.5366Y-1.4949
X6.5366Y-1.5736
X6.5366Y-1.6523
X6.5366Y-1.7311
X6.5366Y-1.8098
X6.5366Y-1.8886
X6.5366Y-1.9673
X6.5366Y-2.0461
X6.5366Y-2.1248
X6.5366Y-2.2035
X6.5366Y-2.2783
X6.5366Y-2.361
X6.5366Y-2.4398
X6.5366Y-2.5185
X6.5366Y-2.5972
X6.5366Y-2.676
X6.5366Y-2.7508
X6.5366Y-2.8335
X6.5366Y-2.9122
X6.5366Y-2.9909
X6.5366Y-3.0697
X6.5366Y-3.1484
X6.5366Y-3.2272
X6.5366Y-3.3059
X6.5366Y-3.3846
X6.5366Y-3.4634
X6.5366Y-3.5382
X6.5366Y-3.6169
X6.5366Y-3.6957
X6.5366Y-3.7783
X6.5366Y-3.8571
X6.5366Y-3.9358
X6.6142Y-4.0039
X6.6154Y-1.4949
X6.6154Y-1.5736
X6.6154Y-1.6523
X6.6154Y-1.7311
X6.6154Y-1.8098
X6.6154Y-1.8886
X6.6154Y-1.9673
X6.6154Y-2.0461
X6.6154Y-2.1248
X6.6154Y-2.2035
X6.6154Y-2.2823
X6.6154Y-2.361
X6.6154Y-2.4398
X6.6154Y-2.5185
X6.6154Y-2.5972
X6.6154Y-2.676
X6.6154Y-2.7547
X6.6154Y-2.8335
X6.6154Y-2.9122
X6.6154Y-2.9909
X6.6154Y-3.0697
X6.6154Y-3.1484
X6.6154Y-3.2272
X6.6154Y-3.3059
X6.6154Y-3.3846
X6.6154Y-3.4634
X6.6154Y-3.5421
X6.6154Y-3.6209
X6.6154Y-3.6996
X6.6154Y-3.7783
X6.6154Y-3.8571
X6.6154Y-3.9358
X6.6929Y-4.0039
X6.6941Y-1.4949
X6.6941Y-1.5736
X6.6941Y-1.6523
X6.6941Y-1.7272
X6.6941Y-1.8098
X6.6941Y-1.8886
X6.6941Y-1.9673
X6.6941Y-2.0461
X6.6941Y-2.1248
X6.6941Y-2.2035
X6.6941Y-2.2823
X6.6941Y-2.361
X6.6941Y-2.4398
X6.6941Y-2.5185
X6.6941Y-2.5972
X6.6941Y-2.676
X6.6941Y-2.7547
X6.6941Y-2.8335
X6.6941Y-2.9122
X6.6941Y-2.9909
X6.6941Y-3.0697
X6.6941Y-3.1484
X6.6941Y-3.2272
X6.6941Y-3.3059
X6.6941Y-3.3846
X6.6941Y-3.4634
X6.6941Y-3.5421
X6.6941Y-3.6209
X6.6941Y-3.6957
X6.6941Y-3.7783
X6.6941Y-3.861
X6.6941Y-3.9358
X6.7717Y-4.0039
X6.7728Y-1.4949
X6.7728Y-1.5736
X6.7728Y-1.6523
X6.7728Y-1.7311
X6.7728Y-1.8098
X6.7728Y-1.8886
X6.7728Y-1.9673
X6.7728Y-2.0461
X6.7728Y-2.1248
X6.7728Y-2.2035
X6.7728Y-2.2823
X6.7728Y-2.361
X6.7728Y-2.4398
X6.7728Y-2.5185
X6.7728Y-2.5972
X6.7728Y-2.676
X6.7728Y-2.7547
X6.7728Y-2.8374
X6.7728Y-2.9122
X6.7728Y-2.9909
X6.7728Y-3.0697
X6.7728Y-3.1484
X6.7728Y-3.2272
X6.7728Y-3.3059
X6.7728Y-3.3846
X6.7728Y-3.4634
X6.7728Y-3.5421
X6.7728Y-3.6209
X6.7728Y-3.6996
X6.7728Y-3.7783
X6.7728Y-3.8571
X6.7728Y-3.9358
X6.8504Y-4.0039
X6.8516Y-1.4949
X6.8516Y-1.5736
X6.8516Y-1.6523
X6.8516Y-1.7311
X6.8516Y-1.8098
X6.8516Y-1.8846
X6.8516Y-1.9673
X6.8516Y-2.0461
X6.8516Y-2.1248
X6.8516Y-2.2035
X6.8516Y-2.2823
X6.8516Y-2.361
X6.8516Y-2.4398
X6.8516Y-2.5185
X6.8516Y-2.5972
X6.8516Y-2.676
X6.8516Y-2.7547
X6.8516Y-2.8335
X6.8516Y-2.9122
X6.8516Y-2.9909
X6.8516Y-3.0697
X6.8516Y-3.1445
X6.8516Y-3.2311
X6.8516Y-3.302
X6.8516Y-3.3846
X6.8516Y-3.4634
X6.8516Y-3.5421
X6.8516Y-3.6209
X6.8516Y-3.6996
X6.8516Y-3.7783
X6.8516Y-3.8571
X6.8516Y-3.9358
X6.9303Y-1.4949
X6.9303Y-1.5697
X6.9303Y-1.6523
X6.9303Y-1.7311
X6.9303Y-1.8059
X6.9303Y-1.8886
X6.9303Y-1.9673
X6.9303Y-2.0461
X6.9303Y-2.1248
X6.9303Y-2.2035
X6.9303Y-2.2783
X6.9303Y-2.361
X6.9303Y-2.4398
X6.9303Y-2.5185
X6.9303Y-2.5972
X6.9303Y-2.676
X6.9303Y-2.7547
X6.9303Y-2.8335
X6.9303Y-2.9161
X6.9303Y-2.9909
X6.9303Y-3.0697
X6.9303Y-3.1484
X6.9303Y-3.2272
X6.9303Y-3.3059
X6.9303Y-3.3846
X6.9303Y-3.4634
X6.9303Y-3.5382
X6.9303Y-3.6209
X6.9303Y-3.6996
X6.9303Y-3.7783
X6.9303Y-3.8571
X6.9303Y-3.9358
X7.0091Y-1.4949
X7.0091Y-1.5736
X7.0091Y-1.6523
X7.0091Y-1.7311
X7.0091Y-1.8098
X7.0091Y-1.8886
X7.0091Y-1.9673
X7.0091Y-2.0461
X7.0091Y-2.1248
X7.0091Y-2.2035
X7.0091Y-2.2823
X7.0091Y-2.361
X7.0091Y-2.4398
X7.0091Y-2.5185
X7.0091Y-2.5972
X7.0091Y-2.676
X7.0091Y-2.7547
X7.0091Y-2.8335
X7.0091Y-2.9122
X7.0091Y-2.9909
X7.0091Y-3.0697
X7.0091Y-3.1484
X7.0091Y-3.2272
X7.0091Y-3.3059
X7.0091Y-3.3807
X7.0091Y-3.4634
X7.0091Y-3.5421
X7.0091Y-3.6209
X7.0091Y-3.6996
X7.0091Y-3.7744
X7.0091Y-3.8571
X7.0091Y-3.9358
T2
X3.9567Y-1.9803
X3.9803Y-2.315
X4.0433Y-2.2323
X4.1142Y-3.0079
X7.4213Y-3.8268
X7.4646Y-2.5866
X7.4843Y-2.0591
X7.6299Y-2.063
T3
X3.8661Y-2.126
T4
X3.9961Y-2.7362
X3.9961Y-2.8362
X3.9961Y-2.9362
X3.9961Y-3.0362
X3.9961Y-3.1362
X3.9961Y-3.2362
X3.9961Y-3.3362
X3.9961Y-3.4362
X3.9961Y-3.5362
X3.9961Y-3.6362
X3.9961Y-3.7362
X7.5394Y-2.7362
X7.5394Y-2.8362
X7.5394Y-2.9362
X7.5394Y-3.0362
X7.5394Y-3.1362
X7.5394Y-3.2362
X7.5394Y-3.3362
X7.5394Y-3.4362
X7.5394Y-3.5362
X7.5394Y-3.6362
X7.5394Y-3.7362
T0
M30
