M48
; DRILL file {KiCad (5.1.2)-2} date 12/17/2019 8:00:24 PM
; FORMAT={-:-/ absolute / inch / decimal}
; #@! TF.CreationDate,2019-12-17T20:00:24-05:00
; #@! TF.GenerationSoftware,Kicad,Pcbnew,(5.1.2)-2
FMAT,2
INCH
T1C0.0157
T2C0.0236
T3C0.0295
T4C0.0315
T5C0.0335
T6C0.0394
T7C0.0591
T8C0.0787
T9C0.0941
T10C0.1358
%
G90
G05
T1
X4.236Y-6.718
X4.4488Y-6.3465
X4.6142Y-7.3504
X5.6122Y-6.5669
X5.7323Y-6.6457
X5.7382Y-6.7618
X5.7717Y-6.7028
X5.7815Y-6.4803
X5.782Y-4.917
X5.788Y-4.852
X5.7913Y-4.7618
X5.815Y-4.9783
X5.8346Y-4.4252
X5.848Y-6.971
X5.876Y-4.6516
X5.917Y-4.437
X5.925Y-4.392
X5.9469Y-5.0925
X5.994Y-4.756
X5.9961Y-6.8031
X6.002Y-4.4783
X6.0551Y-4.8583
X6.0908Y-6.8211
X6.1299Y-4.4803
X6.1575Y-4.7165
X6.2323Y-4.3327
X6.2323Y-6.8957
X6.252Y-4.9921
X6.2795Y-6.5354
X6.288Y-4.458
X6.2913Y-4.685
X6.3213Y-4.4625
X6.3425Y-5.1988
X6.3661Y-4.8583
X6.3799Y-5.4016
X6.3898Y-4.5177
X6.3937Y-6.4331
X6.4094Y-4.4626
X6.4567Y-4.8031
X6.4587Y-4.3327
X6.459Y-5.391
X6.4646Y-4.6457
X6.475Y-5.321
X6.488Y-5.407
X6.5039Y-4.4094
X6.573Y-5.249
X6.6319Y-4.6437
X6.659Y-5.205
X6.6634Y-4.8435
X6.685Y-4.8189
X6.6888Y-5.1886
X6.7067Y-4.8994
X6.7189Y-5.8285
X6.719Y-4.765
X6.7559Y-6.4094
X6.7874Y-4.7402
X6.8268Y-4.5512
X6.8425Y-4.7244
X6.8484Y-4.6378
X6.8898Y-4.7205
X6.9311Y-4.7244
X7.037Y-5.418
X7.257Y-5.377
X7.325Y-5.419
X7.4587Y-5.3583
X7.5Y-4.9272
X7.5197Y-5.4409
X7.5433Y-5.8189
X7.561Y-4.189
X7.6122Y-4.5925
X7.6378Y-5.3701
X7.675Y-5.392
X7.6909Y-4.9528
X7.692Y-5.127
X7.6929Y-5.2697
X7.7303Y-4.5945
X7.741Y-5.759
X7.7559Y-5.4449
X7.78Y-6.116
T3
X4.5669Y-6.1732
X4.6457Y-6.1732
T4
X4.124Y-4.989
X4.124Y-5.0678
X4.124Y-5.1465
T5
X7.6826Y-4.5472
X7.6826Y-4.7441
T6
X6.5748Y-6.2598
X6.6732Y-6.2598
X6.7717Y-6.2598
X4.1339Y-5.9055
X4.1339Y-6.0055
X4.1339Y-6.1055
X4.1339Y-6.2055
X4.1339Y-6.3055
X4.1339Y-6.4055
X4.1339Y-6.5055
X4.1339Y-6.6055
X4.1339Y-6.7055
X4.1339Y-6.8055
X4.1339Y-6.9055
X5.5551Y-5.4331
X5.6551Y-5.4331
X5.7551Y-5.4331
X5.8551Y-5.4331
X5.9551Y-5.4331
X6.0551Y-5.4331
X6.1551Y-5.4331
X7.6772Y-5.9055
X7.6772Y-6.0055
X7.6772Y-6.1055
X7.6772Y-6.2055
X7.6772Y-6.3055
X7.6772Y-6.4055
X7.6772Y-6.5055
X7.6772Y-6.6055
X7.6772Y-6.7055
X7.6772Y-6.8055
X7.6772Y-6.9055
X6.5354Y-4.189
X6.6354Y-4.189
X6.7354Y-4.189
X6.8354Y-4.189
X6.9354Y-4.189
X7.0354Y-4.189
X7.1354Y-4.189
X7.2354Y-4.189
T7
X4.124Y-4.9063
X4.124Y-5.2292
T8
X6.5Y-6.5354
X6.8465Y-6.5354
T9
X7.3201Y-7.6772
T10
X4.8189Y-7.6772
X6.9921Y-7.0472
T2
G00X7.7751Y-4.5079
M15
G01X7.8027Y-4.5079
M16
G05
G00X7.8027Y-4.7835
M15
G01X7.7751Y-4.7835
M16
G05
T0
M30
