G04 #@! TF.GenerationSoftware,KiCad,Pcbnew,(5.1.2)-2*
G04 #@! TF.CreationDate,2019-12-17T20:00:21-05:00*
G04 #@! TF.ProjectId,digiobscura_mcu,64696769-6f62-4736-9375-72615f6d6375,0.1a*
G04 #@! TF.SameCoordinates,Original*
G04 #@! TF.FileFunction,Soldermask,Bot*
G04 #@! TF.FilePolarity,Negative*
%FSLAX46Y46*%
G04 Gerber Fmt 4.6, Leading zero omitted, Abs format (unit mm)*
G04 Created by KiCad (PCBNEW (5.1.2)-2) date 2019-12-17 20:00:21*
%MOMM*%
%LPD*%
G04 APERTURE LIST*
%ADD10O,1.900000X1.900000*%
%ADD11R,1.900000X1.900000*%
%ADD12O,2.100000X1.400000*%
%ADD13C,1.650000*%
%ADD14C,4.200000*%
%ADD15C,2.000000*%
%ADD16O,1.400000X1.950000*%
%ADD17C,0.100000*%
%ADD18C,1.400000*%
%ADD19C,2.590000*%
%ADD20C,3.650000*%
%ADD21R,2.700000X1.700000*%
%ADD22O,2.700000X1.700000*%
%ADD23O,3.700000X2.400000*%
G04 APERTURE END LIST*
D10*
X195000000Y-175400000D03*
X195000000Y-172860000D03*
X195000000Y-170320000D03*
X195000000Y-167780000D03*
X195000000Y-165240000D03*
X195000000Y-162700000D03*
X195000000Y-160160000D03*
X195000000Y-157620000D03*
X195000000Y-155080000D03*
X195000000Y-152540000D03*
D11*
X195000000Y-150000000D03*
D12*
X197837500Y-114500000D03*
X197837500Y-121500000D03*
D13*
X195137500Y-115500000D03*
X195137500Y-120500000D03*
D14*
X165100000Y-166000000D03*
X173900000Y-166000000D03*
D15*
X167000000Y-159000000D03*
X169500000Y-159000000D03*
X172000000Y-159000000D03*
D10*
X156340000Y-138000000D03*
X153800000Y-138000000D03*
X151260000Y-138000000D03*
X148720000Y-138000000D03*
X146180000Y-138000000D03*
X143640000Y-138000000D03*
D11*
X141100000Y-138000000D03*
D10*
X183780000Y-106400000D03*
X181240000Y-106400000D03*
X178700000Y-106400000D03*
X176160000Y-106400000D03*
X173620000Y-106400000D03*
X171080000Y-106400000D03*
X168540000Y-106400000D03*
D11*
X166000000Y-106400000D03*
D10*
X105000000Y-175400000D03*
X105000000Y-172860000D03*
X105000000Y-170320000D03*
X105000000Y-167780000D03*
X105000000Y-165240000D03*
X105000000Y-162700000D03*
X105000000Y-160160000D03*
X105000000Y-157620000D03*
X105000000Y-155080000D03*
X105000000Y-152540000D03*
D11*
X105000000Y-150000000D03*
D16*
X118000000Y-156800000D03*
D17*
G36*
X116436922Y-155826404D02*
G01*
X116465235Y-155830604D01*
X116493000Y-155837559D01*
X116519950Y-155847202D01*
X116545824Y-155859440D01*
X116570375Y-155874155D01*
X116593365Y-155891205D01*
X116614573Y-155910427D01*
X116633795Y-155931635D01*
X116650845Y-155954625D01*
X116665560Y-155979176D01*
X116677798Y-156005050D01*
X116687441Y-156032000D01*
X116694396Y-156059765D01*
X116698596Y-156088078D01*
X116700000Y-156116666D01*
X116700000Y-157483334D01*
X116698596Y-157511922D01*
X116694396Y-157540235D01*
X116687441Y-157568000D01*
X116677798Y-157594950D01*
X116665560Y-157620824D01*
X116650845Y-157645375D01*
X116633795Y-157668365D01*
X116614573Y-157689573D01*
X116593365Y-157708795D01*
X116570375Y-157725845D01*
X116545824Y-157740560D01*
X116519950Y-157752798D01*
X116493000Y-157762441D01*
X116465235Y-157769396D01*
X116436922Y-157773596D01*
X116408334Y-157775000D01*
X115591666Y-157775000D01*
X115563078Y-157773596D01*
X115534765Y-157769396D01*
X115507000Y-157762441D01*
X115480050Y-157752798D01*
X115454176Y-157740560D01*
X115429625Y-157725845D01*
X115406635Y-157708795D01*
X115385427Y-157689573D01*
X115366205Y-157668365D01*
X115349155Y-157645375D01*
X115334440Y-157620824D01*
X115322202Y-157594950D01*
X115312559Y-157568000D01*
X115305604Y-157540235D01*
X115301404Y-157511922D01*
X115300000Y-157483334D01*
X115300000Y-156116666D01*
X115301404Y-156088078D01*
X115305604Y-156059765D01*
X115312559Y-156032000D01*
X115322202Y-156005050D01*
X115334440Y-155979176D01*
X115349155Y-155954625D01*
X115366205Y-155931635D01*
X115385427Y-155910427D01*
X115406635Y-155891205D01*
X115429625Y-155874155D01*
X115454176Y-155859440D01*
X115480050Y-155847202D01*
X115507000Y-155837559D01*
X115534765Y-155830604D01*
X115563078Y-155826404D01*
X115591666Y-155825000D01*
X116408334Y-155825000D01*
X116436922Y-155826404D01*
X116436922Y-155826404D01*
G37*
D18*
X116000000Y-156800000D03*
D19*
X185930000Y-195000000D03*
D20*
X177600000Y-179000000D03*
X122400000Y-195000000D03*
D21*
X104749800Y-126721000D03*
D22*
X104749800Y-128721000D03*
X104749800Y-130721000D03*
D23*
X104749800Y-124621000D03*
X104749800Y-132821000D03*
M02*
