G04 #@! TF.GenerationSoftware,KiCad,Pcbnew,(5.1.2)-2*
G04 #@! TF.CreationDate,2019-12-17T20:00:21-05:00*
G04 #@! TF.ProjectId,digiobscura_mcu,64696769-6f62-4736-9375-72615f6d6375,0.1a*
G04 #@! TF.SameCoordinates,Original*
G04 #@! TF.FileFunction,Legend,Top*
G04 #@! TF.FilePolarity,Positive*
%FSLAX46Y46*%
G04 Gerber Fmt 4.6, Leading zero omitted, Abs format (unit mm)*
G04 Created by KiCad (PCBNEW (5.1.2)-2) date 2019-12-17 20:00:21*
%MOMM*%
%LPD*%
G04 APERTURE LIST*
%ADD10C,0.300000*%
%ADD11C,0.010000*%
%ADD12C,0.120000*%
%ADD13C,0.150000*%
G04 APERTURE END LIST*
D10*
X122693857Y-172052771D02*
X122693857Y-170552771D01*
X123265285Y-170552771D01*
X123408142Y-170624200D01*
X123479571Y-170695628D01*
X123551000Y-170838485D01*
X123551000Y-171052771D01*
X123479571Y-171195628D01*
X123408142Y-171267057D01*
X123265285Y-171338485D01*
X122693857Y-171338485D01*
X125051000Y-172052771D02*
X124551000Y-171338485D01*
X124193857Y-172052771D02*
X124193857Y-170552771D01*
X124765285Y-170552771D01*
X124908142Y-170624200D01*
X124979571Y-170695628D01*
X125051000Y-170838485D01*
X125051000Y-171052771D01*
X124979571Y-171195628D01*
X124908142Y-171267057D01*
X124765285Y-171338485D01*
X124193857Y-171338485D01*
X125693857Y-171267057D02*
X126193857Y-171267057D01*
X126408142Y-172052771D02*
X125693857Y-172052771D01*
X125693857Y-170552771D01*
X126408142Y-170552771D01*
X126836714Y-170552771D02*
X127336714Y-172052771D01*
X127836714Y-170552771D01*
X128336714Y-172052771D02*
X128336714Y-170552771D01*
X129051000Y-171267057D02*
X129551000Y-171267057D01*
X129765285Y-172052771D02*
X129051000Y-172052771D01*
X129051000Y-170552771D01*
X129765285Y-170552771D01*
X130265285Y-170552771D02*
X130622428Y-172052771D01*
X130908142Y-170981342D01*
X131193857Y-172052771D01*
X131551000Y-170552771D01*
X165010257Y-174424514D02*
X164938828Y-174495942D01*
X164724542Y-174567371D01*
X164581685Y-174567371D01*
X164367400Y-174495942D01*
X164224542Y-174353085D01*
X164153114Y-174210228D01*
X164081685Y-173924514D01*
X164081685Y-173710228D01*
X164153114Y-173424514D01*
X164224542Y-173281657D01*
X164367400Y-173138800D01*
X164581685Y-173067371D01*
X164724542Y-173067371D01*
X164938828Y-173138800D01*
X165010257Y-173210228D01*
X165938828Y-173067371D02*
X166224542Y-173067371D01*
X166367400Y-173138800D01*
X166510257Y-173281657D01*
X166581685Y-173567371D01*
X166581685Y-174067371D01*
X166510257Y-174353085D01*
X166367400Y-174495942D01*
X166224542Y-174567371D01*
X165938828Y-174567371D01*
X165795971Y-174495942D01*
X165653114Y-174353085D01*
X165581685Y-174067371D01*
X165581685Y-173567371D01*
X165653114Y-173281657D01*
X165795971Y-173138800D01*
X165938828Y-173067371D01*
X167224542Y-174567371D02*
X167224542Y-173067371D01*
X168081685Y-174567371D01*
X168081685Y-173067371D01*
X168581685Y-173067371D02*
X169438828Y-173067371D01*
X169010257Y-174567371D02*
X169010257Y-173067371D01*
X170795971Y-174567371D02*
X170295971Y-173853085D01*
X169938828Y-174567371D02*
X169938828Y-173067371D01*
X170510257Y-173067371D01*
X170653114Y-173138800D01*
X170724542Y-173210228D01*
X170795971Y-173353085D01*
X170795971Y-173567371D01*
X170724542Y-173710228D01*
X170653114Y-173781657D01*
X170510257Y-173853085D01*
X169938828Y-173853085D01*
X171367400Y-174138800D02*
X172081685Y-174138800D01*
X171224542Y-174567371D02*
X171724542Y-173067371D01*
X172224542Y-174567371D01*
X172653114Y-174495942D02*
X172867400Y-174567371D01*
X173224542Y-174567371D01*
X173367400Y-174495942D01*
X173438828Y-174424514D01*
X173510257Y-174281657D01*
X173510257Y-174138800D01*
X173438828Y-173995942D01*
X173367400Y-173924514D01*
X173224542Y-173853085D01*
X172938828Y-173781657D01*
X172795971Y-173710228D01*
X172724542Y-173638800D01*
X172653114Y-173495942D01*
X172653114Y-173353085D01*
X172724542Y-173210228D01*
X172795971Y-173138800D01*
X172938828Y-173067371D01*
X173295971Y-173067371D01*
X173510257Y-173138800D01*
X173938828Y-173067371D02*
X174795971Y-173067371D01*
X174367400Y-174567371D02*
X174367400Y-173067371D01*
X108020228Y-131182771D02*
X108305942Y-131182771D01*
X108448800Y-131254200D01*
X108591657Y-131397057D01*
X108663085Y-131682771D01*
X108663085Y-132182771D01*
X108591657Y-132468485D01*
X108448800Y-132611342D01*
X108305942Y-132682771D01*
X108020228Y-132682771D01*
X107877371Y-132611342D01*
X107734514Y-132468485D01*
X107663085Y-132182771D01*
X107663085Y-131682771D01*
X107734514Y-131397057D01*
X107877371Y-131254200D01*
X108020228Y-131182771D01*
X109805942Y-131897057D02*
X109305942Y-131897057D01*
X109305942Y-132682771D02*
X109305942Y-131182771D01*
X110020228Y-131182771D01*
X111091657Y-131897057D02*
X110591657Y-131897057D01*
X110591657Y-132682771D02*
X110591657Y-131182771D01*
X111305942Y-131182771D01*
X108088428Y-123969171D02*
X108374142Y-123969171D01*
X108517000Y-124040600D01*
X108659857Y-124183457D01*
X108731285Y-124469171D01*
X108731285Y-124969171D01*
X108659857Y-125254885D01*
X108517000Y-125397742D01*
X108374142Y-125469171D01*
X108088428Y-125469171D01*
X107945571Y-125397742D01*
X107802714Y-125254885D01*
X107731285Y-124969171D01*
X107731285Y-124469171D01*
X107802714Y-124183457D01*
X107945571Y-124040600D01*
X108088428Y-123969171D01*
X109374142Y-125469171D02*
X109374142Y-123969171D01*
X110231285Y-125469171D01*
X110231285Y-123969171D01*
X102834914Y-122649771D02*
X102834914Y-121149771D01*
X103406342Y-121149771D01*
X103549200Y-121221200D01*
X103620628Y-121292628D01*
X103692057Y-121435485D01*
X103692057Y-121649771D01*
X103620628Y-121792628D01*
X103549200Y-121864057D01*
X103406342Y-121935485D01*
X102834914Y-121935485D01*
X104620628Y-121149771D02*
X104906342Y-121149771D01*
X105049200Y-121221200D01*
X105192057Y-121364057D01*
X105263485Y-121649771D01*
X105263485Y-122149771D01*
X105192057Y-122435485D01*
X105049200Y-122578342D01*
X104906342Y-122649771D01*
X104620628Y-122649771D01*
X104477771Y-122578342D01*
X104334914Y-122435485D01*
X104263485Y-122149771D01*
X104263485Y-121649771D01*
X104334914Y-121364057D01*
X104477771Y-121221200D01*
X104620628Y-121149771D01*
X105763485Y-121149771D02*
X106120628Y-122649771D01*
X106406342Y-121578342D01*
X106692057Y-122649771D01*
X107049200Y-121149771D01*
X107620628Y-121864057D02*
X108120628Y-121864057D01*
X108334914Y-122649771D02*
X107620628Y-122649771D01*
X107620628Y-121149771D01*
X108334914Y-121149771D01*
X109834914Y-122649771D02*
X109334914Y-121935485D01*
X108977771Y-122649771D02*
X108977771Y-121149771D01*
X109549200Y-121149771D01*
X109692057Y-121221200D01*
X109763485Y-121292628D01*
X109834914Y-121435485D01*
X109834914Y-121649771D01*
X109763485Y-121792628D01*
X109692057Y-121864057D01*
X109549200Y-121935485D01*
X108977771Y-121935485D01*
D11*
G36*
X123371507Y-110176681D02*
G01*
X123417257Y-110203264D01*
X123443524Y-110245017D01*
X123446743Y-110266523D01*
X123433427Y-110303699D01*
X123401438Y-110337886D01*
X123362716Y-110357527D01*
X123351374Y-110358855D01*
X123316772Y-110348067D01*
X123287795Y-110327065D01*
X123260697Y-110288427D01*
X123262394Y-110251095D01*
X123293306Y-110208875D01*
X123296007Y-110206144D01*
X123333593Y-110178153D01*
X123368522Y-110175859D01*
X123371507Y-110176681D01*
X123371507Y-110176681D01*
G37*
X123371507Y-110176681D02*
X123417257Y-110203264D01*
X123443524Y-110245017D01*
X123446743Y-110266523D01*
X123433427Y-110303699D01*
X123401438Y-110337886D01*
X123362716Y-110357527D01*
X123351374Y-110358855D01*
X123316772Y-110348067D01*
X123287795Y-110327065D01*
X123260697Y-110288427D01*
X123262394Y-110251095D01*
X123293306Y-110208875D01*
X123296007Y-110206144D01*
X123333593Y-110178153D01*
X123368522Y-110175859D01*
X123371507Y-110176681D01*
G36*
X123446743Y-112504662D02*
G01*
X123319585Y-112504662D01*
X123319585Y-110883385D01*
X123263953Y-110883385D01*
X123228333Y-110881460D01*
X123212504Y-110869576D01*
X123208445Y-110838567D01*
X123208320Y-110819806D01*
X123208320Y-110756226D01*
X123446743Y-110756226D01*
X123446743Y-112504662D01*
X123446743Y-112504662D01*
G37*
X123446743Y-112504662D02*
X123319585Y-112504662D01*
X123319585Y-110883385D01*
X123263953Y-110883385D01*
X123228333Y-110881460D01*
X123212504Y-110869576D01*
X123208445Y-110838567D01*
X123208320Y-110819806D01*
X123208320Y-110756226D01*
X123446743Y-110756226D01*
X123446743Y-112504662D01*
G36*
X124361195Y-110786475D02*
G01*
X124463402Y-110828249D01*
X124554205Y-110892232D01*
X124628746Y-110977054D01*
X124681360Y-111079146D01*
X124686431Y-111105059D01*
X124690692Y-111153972D01*
X124694180Y-111227300D01*
X124696932Y-111326463D01*
X124698986Y-111452878D01*
X124700379Y-111607963D01*
X124701148Y-111793137D01*
X124701229Y-111833104D01*
X124702438Y-112536452D01*
X124592724Y-112536452D01*
X124587976Y-111841051D01*
X124586791Y-111674040D01*
X124585624Y-111535782D01*
X124584318Y-111423239D01*
X124582719Y-111333376D01*
X124580670Y-111263156D01*
X124578014Y-111209541D01*
X124574597Y-111169496D01*
X124570263Y-111139984D01*
X124564854Y-111117969D01*
X124558216Y-111100412D01*
X124550193Y-111084279D01*
X124549010Y-111082071D01*
X124486107Y-110993919D01*
X124407028Y-110933131D01*
X124311817Y-110899734D01*
X124233539Y-110892665D01*
X124126775Y-110906380D01*
X124036110Y-110947505D01*
X123961589Y-111016014D01*
X123918069Y-111082071D01*
X123909850Y-111098240D01*
X123903037Y-111115420D01*
X123897476Y-111136647D01*
X123893012Y-111164958D01*
X123889488Y-111203389D01*
X123886751Y-111254977D01*
X123884643Y-111322759D01*
X123883011Y-111409771D01*
X123881698Y-111519049D01*
X123880550Y-111653631D01*
X123879411Y-111816553D01*
X123879248Y-111841051D01*
X123874644Y-112536452D01*
X123822292Y-112536452D01*
X123783239Y-112533510D01*
X123759927Y-112526376D01*
X123759343Y-112525855D01*
X123757348Y-112508405D01*
X123755475Y-112462100D01*
X123753761Y-112389873D01*
X123752240Y-112294661D01*
X123750949Y-112179396D01*
X123749922Y-112047013D01*
X123749195Y-111900448D01*
X123748805Y-111742633D01*
X123748746Y-111651637D01*
X123748746Y-110788016D01*
X123875905Y-110788016D01*
X123875905Y-110916673D01*
X123935511Y-110868870D01*
X124034742Y-110808108D01*
X124142006Y-110775035D01*
X124252443Y-110768281D01*
X124361195Y-110786475D01*
X124361195Y-110786475D01*
G37*
X124361195Y-110786475D02*
X124463402Y-110828249D01*
X124554205Y-110892232D01*
X124628746Y-110977054D01*
X124681360Y-111079146D01*
X124686431Y-111105059D01*
X124690692Y-111153972D01*
X124694180Y-111227300D01*
X124696932Y-111326463D01*
X124698986Y-111452878D01*
X124700379Y-111607963D01*
X124701148Y-111793137D01*
X124701229Y-111833104D01*
X124702438Y-112536452D01*
X124592724Y-112536452D01*
X124587976Y-111841051D01*
X124586791Y-111674040D01*
X124585624Y-111535782D01*
X124584318Y-111423239D01*
X124582719Y-111333376D01*
X124580670Y-111263156D01*
X124578014Y-111209541D01*
X124574597Y-111169496D01*
X124570263Y-111139984D01*
X124564854Y-111117969D01*
X124558216Y-111100412D01*
X124550193Y-111084279D01*
X124549010Y-111082071D01*
X124486107Y-110993919D01*
X124407028Y-110933131D01*
X124311817Y-110899734D01*
X124233539Y-110892665D01*
X124126775Y-110906380D01*
X124036110Y-110947505D01*
X123961589Y-111016014D01*
X123918069Y-111082071D01*
X123909850Y-111098240D01*
X123903037Y-111115420D01*
X123897476Y-111136647D01*
X123893012Y-111164958D01*
X123889488Y-111203389D01*
X123886751Y-111254977D01*
X123884643Y-111322759D01*
X123883011Y-111409771D01*
X123881698Y-111519049D01*
X123880550Y-111653631D01*
X123879411Y-111816553D01*
X123879248Y-111841051D01*
X123874644Y-112536452D01*
X123822292Y-112536452D01*
X123783239Y-112533510D01*
X123759927Y-112526376D01*
X123759343Y-112525855D01*
X123757348Y-112508405D01*
X123755475Y-112462100D01*
X123753761Y-112389873D01*
X123752240Y-112294661D01*
X123750949Y-112179396D01*
X123749922Y-112047013D01*
X123749195Y-111900448D01*
X123748805Y-111742633D01*
X123748746Y-111651637D01*
X123748746Y-110788016D01*
X123875905Y-110788016D01*
X123875905Y-110916673D01*
X123935511Y-110868870D01*
X124034742Y-110808108D01*
X124142006Y-110775035D01*
X124252443Y-110768281D01*
X124361195Y-110786475D01*
G36*
X118551124Y-110921123D02*
G01*
X118594835Y-110879264D01*
X118677520Y-110820862D01*
X118777084Y-110783618D01*
X118885751Y-110768623D01*
X118995747Y-110776963D01*
X119097475Y-110808888D01*
X119196390Y-110869709D01*
X119278218Y-110951269D01*
X119336556Y-111046871D01*
X119345176Y-111067977D01*
X119353015Y-111090267D01*
X119359482Y-111113436D01*
X119364710Y-111140633D01*
X119368829Y-111175009D01*
X119371970Y-111219712D01*
X119374266Y-111277894D01*
X119375847Y-111352704D01*
X119376845Y-111447292D01*
X119377392Y-111564808D01*
X119377618Y-111708403D01*
X119377657Y-111846581D01*
X119377657Y-112538371D01*
X119318051Y-112533437D01*
X119258446Y-112528504D01*
X119250498Y-111829130D01*
X119242551Y-111129756D01*
X119198417Y-111054677D01*
X119136320Y-110977901D01*
X119057564Y-110924481D01*
X118968002Y-110895324D01*
X118873485Y-110891340D01*
X118779865Y-110913434D01*
X118692994Y-110962516D01*
X118678796Y-110974055D01*
X118651312Y-110997441D01*
X118628395Y-111018379D01*
X118609599Y-111039868D01*
X118594475Y-111064906D01*
X118582576Y-111096491D01*
X118573454Y-111137621D01*
X118566662Y-111191293D01*
X118561753Y-111260506D01*
X118558277Y-111348258D01*
X118555789Y-111457547D01*
X118553839Y-111591370D01*
X118551981Y-111752726D01*
X118551124Y-111829130D01*
X118543177Y-112528504D01*
X118494921Y-112533231D01*
X118457231Y-112533205D01*
X118435315Y-112526608D01*
X118433539Y-112509305D01*
X118431848Y-112462630D01*
X118430264Y-112389001D01*
X118428809Y-112290836D01*
X118427504Y-112170554D01*
X118426370Y-112030571D01*
X118425429Y-111873306D01*
X118424703Y-111701177D01*
X118424213Y-111516601D01*
X118423981Y-111321998D01*
X118423965Y-111254265D01*
X118423965Y-109993273D01*
X118551124Y-109993273D01*
X118551124Y-110921123D01*
X118551124Y-110921123D01*
G37*
X118551124Y-110921123D02*
X118594835Y-110879264D01*
X118677520Y-110820862D01*
X118777084Y-110783618D01*
X118885751Y-110768623D01*
X118995747Y-110776963D01*
X119097475Y-110808888D01*
X119196390Y-110869709D01*
X119278218Y-110951269D01*
X119336556Y-111046871D01*
X119345176Y-111067977D01*
X119353015Y-111090267D01*
X119359482Y-111113436D01*
X119364710Y-111140633D01*
X119368829Y-111175009D01*
X119371970Y-111219712D01*
X119374266Y-111277894D01*
X119375847Y-111352704D01*
X119376845Y-111447292D01*
X119377392Y-111564808D01*
X119377618Y-111708403D01*
X119377657Y-111846581D01*
X119377657Y-112538371D01*
X119318051Y-112533437D01*
X119258446Y-112528504D01*
X119250498Y-111829130D01*
X119242551Y-111129756D01*
X119198417Y-111054677D01*
X119136320Y-110977901D01*
X119057564Y-110924481D01*
X118968002Y-110895324D01*
X118873485Y-110891340D01*
X118779865Y-110913434D01*
X118692994Y-110962516D01*
X118678796Y-110974055D01*
X118651312Y-110997441D01*
X118628395Y-111018379D01*
X118609599Y-111039868D01*
X118594475Y-111064906D01*
X118582576Y-111096491D01*
X118573454Y-111137621D01*
X118566662Y-111191293D01*
X118561753Y-111260506D01*
X118558277Y-111348258D01*
X118555789Y-111457547D01*
X118553839Y-111591370D01*
X118551981Y-111752726D01*
X118551124Y-111829130D01*
X118543177Y-112528504D01*
X118494921Y-112533231D01*
X118457231Y-112533205D01*
X118435315Y-112526608D01*
X118433539Y-112509305D01*
X118431848Y-112462630D01*
X118430264Y-112389001D01*
X118428809Y-112290836D01*
X118427504Y-112170554D01*
X118426370Y-112030571D01*
X118425429Y-111873306D01*
X118424703Y-111701177D01*
X118424213Y-111516601D01*
X118423981Y-111321998D01*
X118423965Y-111254265D01*
X118423965Y-109993273D01*
X118551124Y-109993273D01*
X118551124Y-110921123D01*
G36*
X117801280Y-110776188D02*
G01*
X117897521Y-110804603D01*
X117977451Y-110852016D01*
X118052862Y-110919869D01*
X118115487Y-110999099D01*
X118157056Y-111080643D01*
X118161351Y-111093803D01*
X118167432Y-111119053D01*
X118172444Y-111152029D01*
X118176480Y-111195726D01*
X118179637Y-111253139D01*
X118182008Y-111327266D01*
X118183689Y-111421101D01*
X118184775Y-111537640D01*
X118185361Y-111679880D01*
X118185542Y-111850815D01*
X118185542Y-112538371D01*
X118125936Y-112533437D01*
X118066330Y-112528504D01*
X118058383Y-111829130D01*
X118056431Y-111656364D01*
X118054582Y-111512360D01*
X118052430Y-111394093D01*
X118049570Y-111298540D01*
X118045597Y-111222677D01*
X118040107Y-111163480D01*
X118032695Y-111117924D01*
X118022954Y-111082986D01*
X118010481Y-111055641D01*
X117994870Y-111032866D01*
X117975717Y-111011637D01*
X117952615Y-110988929D01*
X117944837Y-110981359D01*
X117894425Y-110944903D01*
X117827413Y-110912515D01*
X117758096Y-110890126D01*
X117708696Y-110883385D01*
X117648441Y-110892844D01*
X117578525Y-110917267D01*
X117513243Y-110950723D01*
X117472555Y-110981359D01*
X117448187Y-111005103D01*
X117427889Y-111026459D01*
X117411256Y-111048451D01*
X117397882Y-111074104D01*
X117387363Y-111106441D01*
X117379293Y-111148486D01*
X117373267Y-111203264D01*
X117368881Y-111273799D01*
X117365729Y-111363114D01*
X117363407Y-111474233D01*
X117361509Y-111610181D01*
X117359631Y-111773981D01*
X117359009Y-111829130D01*
X117351061Y-112528504D01*
X117291456Y-112533437D01*
X117231850Y-112538371D01*
X117231850Y-110788016D01*
X117359009Y-110788016D01*
X117359009Y-110921123D01*
X117402720Y-110879264D01*
X117484419Y-110821678D01*
X117583431Y-110784495D01*
X117691728Y-110768928D01*
X117801280Y-110776188D01*
X117801280Y-110776188D01*
G37*
X117801280Y-110776188D02*
X117897521Y-110804603D01*
X117977451Y-110852016D01*
X118052862Y-110919869D01*
X118115487Y-110999099D01*
X118157056Y-111080643D01*
X118161351Y-111093803D01*
X118167432Y-111119053D01*
X118172444Y-111152029D01*
X118176480Y-111195726D01*
X118179637Y-111253139D01*
X118182008Y-111327266D01*
X118183689Y-111421101D01*
X118184775Y-111537640D01*
X118185361Y-111679880D01*
X118185542Y-111850815D01*
X118185542Y-112538371D01*
X118125936Y-112533437D01*
X118066330Y-112528504D01*
X118058383Y-111829130D01*
X118056431Y-111656364D01*
X118054582Y-111512360D01*
X118052430Y-111394093D01*
X118049570Y-111298540D01*
X118045597Y-111222677D01*
X118040107Y-111163480D01*
X118032695Y-111117924D01*
X118022954Y-111082986D01*
X118010481Y-111055641D01*
X117994870Y-111032866D01*
X117975717Y-111011637D01*
X117952615Y-110988929D01*
X117944837Y-110981359D01*
X117894425Y-110944903D01*
X117827413Y-110912515D01*
X117758096Y-110890126D01*
X117708696Y-110883385D01*
X117648441Y-110892844D01*
X117578525Y-110917267D01*
X117513243Y-110950723D01*
X117472555Y-110981359D01*
X117448187Y-111005103D01*
X117427889Y-111026459D01*
X117411256Y-111048451D01*
X117397882Y-111074104D01*
X117387363Y-111106441D01*
X117379293Y-111148486D01*
X117373267Y-111203264D01*
X117368881Y-111273799D01*
X117365729Y-111363114D01*
X117363407Y-111474233D01*
X117361509Y-111610181D01*
X117359631Y-111773981D01*
X117359009Y-111829130D01*
X117351061Y-112528504D01*
X117291456Y-112533437D01*
X117231850Y-112538371D01*
X117231850Y-110788016D01*
X117359009Y-110788016D01*
X117359009Y-110921123D01*
X117402720Y-110879264D01*
X117484419Y-110821678D01*
X117583431Y-110784495D01*
X117691728Y-110768928D01*
X117801280Y-110776188D01*
G36*
X113399404Y-110138710D02*
G01*
X113405805Y-110139246D01*
X113461297Y-110144274D01*
X113116734Y-111312547D01*
X113061666Y-111499143D01*
X113009039Y-111677250D01*
X112959567Y-111844461D01*
X112913965Y-111998369D01*
X112872949Y-112136567D01*
X112837233Y-112256648D01*
X112807532Y-112356206D01*
X112784563Y-112432835D01*
X112769040Y-112484126D01*
X112761677Y-112507674D01*
X112761332Y-112508636D01*
X112738536Y-112530159D01*
X112694364Y-112536452D01*
X112657370Y-112534911D01*
X112638758Y-112531119D01*
X112638233Y-112530275D01*
X112642610Y-112513653D01*
X112655184Y-112469454D01*
X112675121Y-112400503D01*
X112701587Y-112309624D01*
X112733749Y-112199639D01*
X112770772Y-112073373D01*
X112811822Y-111933648D01*
X112856065Y-111783290D01*
X112902667Y-111625120D01*
X112950795Y-111461964D01*
X112999613Y-111296644D01*
X113048287Y-111131984D01*
X113095985Y-110970808D01*
X113141872Y-110815940D01*
X113185113Y-110670202D01*
X113224875Y-110536419D01*
X113260323Y-110417414D01*
X113290624Y-110316011D01*
X113314944Y-110235033D01*
X113332448Y-110177305D01*
X113342302Y-110145649D01*
X113344176Y-110140354D01*
X113362502Y-110137551D01*
X113399404Y-110138710D01*
X113399404Y-110138710D01*
G37*
X113399404Y-110138710D02*
X113405805Y-110139246D01*
X113461297Y-110144274D01*
X113116734Y-111312547D01*
X113061666Y-111499143D01*
X113009039Y-111677250D01*
X112959567Y-111844461D01*
X112913965Y-111998369D01*
X112872949Y-112136567D01*
X112837233Y-112256648D01*
X112807532Y-112356206D01*
X112784563Y-112432835D01*
X112769040Y-112484126D01*
X112761677Y-112507674D01*
X112761332Y-112508636D01*
X112738536Y-112530159D01*
X112694364Y-112536452D01*
X112657370Y-112534911D01*
X112638758Y-112531119D01*
X112638233Y-112530275D01*
X112642610Y-112513653D01*
X112655184Y-112469454D01*
X112675121Y-112400503D01*
X112701587Y-112309624D01*
X112733749Y-112199639D01*
X112770772Y-112073373D01*
X112811822Y-111933648D01*
X112856065Y-111783290D01*
X112902667Y-111625120D01*
X112950795Y-111461964D01*
X112999613Y-111296644D01*
X113048287Y-111131984D01*
X113095985Y-110970808D01*
X113141872Y-110815940D01*
X113185113Y-110670202D01*
X113224875Y-110536419D01*
X113260323Y-110417414D01*
X113290624Y-110316011D01*
X113314944Y-110235033D01*
X113332448Y-110177305D01*
X113342302Y-110145649D01*
X113344176Y-110140354D01*
X113362502Y-110137551D01*
X113399404Y-110138710D01*
G36*
X125545193Y-110782440D02*
G01*
X125653475Y-110824742D01*
X125746712Y-110891069D01*
X125821117Y-110978004D01*
X125872901Y-111082130D01*
X125897641Y-111193335D01*
X125898020Y-111225151D01*
X125884559Y-111239678D01*
X125848603Y-111245516D01*
X125844822Y-111245838D01*
X125806817Y-111246725D01*
X125788163Y-111235157D01*
X125778194Y-111202633D01*
X125775942Y-111190945D01*
X125742165Y-111086091D01*
X125685542Y-111001496D01*
X125608871Y-110939542D01*
X125514947Y-110902610D01*
X125425655Y-110892665D01*
X125319222Y-110906775D01*
X125228424Y-110947661D01*
X125155738Y-111013163D01*
X125103644Y-111101117D01*
X125076470Y-111197341D01*
X125072881Y-111250856D01*
X125084427Y-111300907D01*
X125100698Y-111338223D01*
X125125553Y-111378525D01*
X125162440Y-111418561D01*
X125214705Y-111460693D01*
X125285696Y-111507284D01*
X125378760Y-111560695D01*
X125497243Y-111623289D01*
X125524137Y-111637042D01*
X125658644Y-111713867D01*
X125762504Y-111792443D01*
X125836857Y-111874376D01*
X125882844Y-111961270D01*
X125901609Y-112054729D01*
X125894290Y-112156358D01*
X125894142Y-112157144D01*
X125858315Y-112267572D01*
X125798135Y-112363787D01*
X125718247Y-112442835D01*
X125623294Y-112501760D01*
X125517920Y-112537609D01*
X125406767Y-112547426D01*
X125305657Y-112531572D01*
X125201219Y-112488176D01*
X125110092Y-112423192D01*
X125036506Y-112341700D01*
X124984690Y-112248782D01*
X124958872Y-112149517D01*
X124956756Y-112112406D01*
X124959564Y-112076604D01*
X124974558Y-112062225D01*
X125010619Y-112059605D01*
X125046692Y-112062676D01*
X125064691Y-112078117D01*
X125074920Y-112115273D01*
X125075526Y-112118472D01*
X125108118Y-112216886D01*
X125163880Y-112301855D01*
X125237868Y-112367569D01*
X125321103Y-112407045D01*
X125424856Y-112424701D01*
X125519945Y-112412161D01*
X125608351Y-112368907D01*
X125672416Y-112315046D01*
X125719624Y-112262617D01*
X125748360Y-112214473D01*
X125766502Y-112157118D01*
X125767713Y-112151812D01*
X125777612Y-112088751D01*
X125775608Y-112032584D01*
X125759361Y-111980810D01*
X125726531Y-111930931D01*
X125674777Y-111880448D01*
X125601758Y-111826863D01*
X125505134Y-111767676D01*
X125382564Y-111700388D01*
X125308891Y-111661932D01*
X125209055Y-111603581D01*
X125119286Y-111538019D01*
X125045526Y-111470310D01*
X124993716Y-111405518D01*
X124980818Y-111382291D01*
X124961826Y-111314260D01*
X124957489Y-111229567D01*
X124967070Y-111139365D01*
X124989832Y-111054806D01*
X125004740Y-111020450D01*
X125069959Y-110925216D01*
X125157045Y-110849629D01*
X125260658Y-110796899D01*
X125375455Y-110770234D01*
X125425655Y-110767580D01*
X125545193Y-110782440D01*
X125545193Y-110782440D01*
G37*
X125545193Y-110782440D02*
X125653475Y-110824742D01*
X125746712Y-110891069D01*
X125821117Y-110978004D01*
X125872901Y-111082130D01*
X125897641Y-111193335D01*
X125898020Y-111225151D01*
X125884559Y-111239678D01*
X125848603Y-111245516D01*
X125844822Y-111245838D01*
X125806817Y-111246725D01*
X125788163Y-111235157D01*
X125778194Y-111202633D01*
X125775942Y-111190945D01*
X125742165Y-111086091D01*
X125685542Y-111001496D01*
X125608871Y-110939542D01*
X125514947Y-110902610D01*
X125425655Y-110892665D01*
X125319222Y-110906775D01*
X125228424Y-110947661D01*
X125155738Y-111013163D01*
X125103644Y-111101117D01*
X125076470Y-111197341D01*
X125072881Y-111250856D01*
X125084427Y-111300907D01*
X125100698Y-111338223D01*
X125125553Y-111378525D01*
X125162440Y-111418561D01*
X125214705Y-111460693D01*
X125285696Y-111507284D01*
X125378760Y-111560695D01*
X125497243Y-111623289D01*
X125524137Y-111637042D01*
X125658644Y-111713867D01*
X125762504Y-111792443D01*
X125836857Y-111874376D01*
X125882844Y-111961270D01*
X125901609Y-112054729D01*
X125894290Y-112156358D01*
X125894142Y-112157144D01*
X125858315Y-112267572D01*
X125798135Y-112363787D01*
X125718247Y-112442835D01*
X125623294Y-112501760D01*
X125517920Y-112537609D01*
X125406767Y-112547426D01*
X125305657Y-112531572D01*
X125201219Y-112488176D01*
X125110092Y-112423192D01*
X125036506Y-112341700D01*
X124984690Y-112248782D01*
X124958872Y-112149517D01*
X124956756Y-112112406D01*
X124959564Y-112076604D01*
X124974558Y-112062225D01*
X125010619Y-112059605D01*
X125046692Y-112062676D01*
X125064691Y-112078117D01*
X125074920Y-112115273D01*
X125075526Y-112118472D01*
X125108118Y-112216886D01*
X125163880Y-112301855D01*
X125237868Y-112367569D01*
X125321103Y-112407045D01*
X125424856Y-112424701D01*
X125519945Y-112412161D01*
X125608351Y-112368907D01*
X125672416Y-112315046D01*
X125719624Y-112262617D01*
X125748360Y-112214473D01*
X125766502Y-112157118D01*
X125767713Y-112151812D01*
X125777612Y-112088751D01*
X125775608Y-112032584D01*
X125759361Y-111980810D01*
X125726531Y-111930931D01*
X125674777Y-111880448D01*
X125601758Y-111826863D01*
X125505134Y-111767676D01*
X125382564Y-111700388D01*
X125308891Y-111661932D01*
X125209055Y-111603581D01*
X125119286Y-111538019D01*
X125045526Y-111470310D01*
X124993716Y-111405518D01*
X124980818Y-111382291D01*
X124961826Y-111314260D01*
X124957489Y-111229567D01*
X124967070Y-111139365D01*
X124989832Y-111054806D01*
X125004740Y-111020450D01*
X125069959Y-110925216D01*
X125157045Y-110849629D01*
X125260658Y-110796899D01*
X125375455Y-110770234D01*
X125425655Y-110767580D01*
X125545193Y-110782440D01*
G36*
X121761887Y-112536452D02*
G01*
X121706255Y-112536452D01*
X121672295Y-112534982D01*
X121656062Y-112524857D01*
X121651011Y-112497506D01*
X121650623Y-112463589D01*
X121650623Y-112390726D01*
X121588446Y-112439972D01*
X121538291Y-112475242D01*
X121486509Y-112505076D01*
X121470407Y-112512558D01*
X121397180Y-112533453D01*
X121310914Y-112543980D01*
X121227615Y-112542825D01*
X121185452Y-112535914D01*
X121075322Y-112493191D01*
X120977859Y-112425719D01*
X120899044Y-112338695D01*
X120846435Y-112241464D01*
X120838024Y-112217337D01*
X120831318Y-112190828D01*
X120826128Y-112158199D01*
X120822262Y-112115711D01*
X120819531Y-112059624D01*
X120817744Y-111986199D01*
X120816711Y-111891696D01*
X120816241Y-111772377D01*
X120816143Y-111646339D01*
X120816143Y-111640248D01*
X120935157Y-111640248D01*
X120935436Y-111757009D01*
X120936677Y-111869353D01*
X120938885Y-111972109D01*
X120942063Y-112060106D01*
X120946215Y-112128176D01*
X120951345Y-112171146D01*
X120952754Y-112177268D01*
X120973697Y-112223833D01*
X121009064Y-112277053D01*
X121036114Y-112309042D01*
X121119236Y-112376303D01*
X121211453Y-112414501D01*
X121308968Y-112422832D01*
X121407982Y-112400492D01*
X121428095Y-112392062D01*
X121509145Y-112346115D01*
X121568859Y-112288226D01*
X121608459Y-112226502D01*
X121617920Y-112207764D01*
X121625456Y-112188116D01*
X121631285Y-112163895D01*
X121635627Y-112131438D01*
X121638699Y-112087082D01*
X121640720Y-112027163D01*
X121641910Y-111948019D01*
X121642485Y-111845986D01*
X121642665Y-111717402D01*
X121642676Y-111653040D01*
X121642676Y-111143158D01*
X121594571Y-111065350D01*
X121533036Y-110990103D01*
X121468659Y-110939437D01*
X121378789Y-110901154D01*
X121284241Y-110890673D01*
X121190802Y-110905781D01*
X121104263Y-110944263D01*
X121030413Y-111003904D01*
X120975041Y-111082491D01*
X120953497Y-111136468D01*
X120948076Y-111171152D01*
X120943596Y-111232442D01*
X120940061Y-111315167D01*
X120937473Y-111414157D01*
X120935837Y-111524241D01*
X120935157Y-111640248D01*
X120816143Y-111640248D01*
X120816143Y-111129756D01*
X120860746Y-111038925D01*
X120927836Y-110936247D01*
X121015431Y-110855786D01*
X121119385Y-110800122D01*
X121235550Y-110771835D01*
X121295147Y-110768745D01*
X121399236Y-110779246D01*
X121492068Y-110811432D01*
X121575123Y-110861562D01*
X121650623Y-110915122D01*
X121650623Y-109993273D01*
X121761887Y-109993273D01*
X121761887Y-112536452D01*
X121761887Y-112536452D01*
G37*
X121761887Y-112536452D02*
X121706255Y-112536452D01*
X121672295Y-112534982D01*
X121656062Y-112524857D01*
X121651011Y-112497506D01*
X121650623Y-112463589D01*
X121650623Y-112390726D01*
X121588446Y-112439972D01*
X121538291Y-112475242D01*
X121486509Y-112505076D01*
X121470407Y-112512558D01*
X121397180Y-112533453D01*
X121310914Y-112543980D01*
X121227615Y-112542825D01*
X121185452Y-112535914D01*
X121075322Y-112493191D01*
X120977859Y-112425719D01*
X120899044Y-112338695D01*
X120846435Y-112241464D01*
X120838024Y-112217337D01*
X120831318Y-112190828D01*
X120826128Y-112158199D01*
X120822262Y-112115711D01*
X120819531Y-112059624D01*
X120817744Y-111986199D01*
X120816711Y-111891696D01*
X120816241Y-111772377D01*
X120816143Y-111646339D01*
X120816143Y-111640248D01*
X120935157Y-111640248D01*
X120935436Y-111757009D01*
X120936677Y-111869353D01*
X120938885Y-111972109D01*
X120942063Y-112060106D01*
X120946215Y-112128176D01*
X120951345Y-112171146D01*
X120952754Y-112177268D01*
X120973697Y-112223833D01*
X121009064Y-112277053D01*
X121036114Y-112309042D01*
X121119236Y-112376303D01*
X121211453Y-112414501D01*
X121308968Y-112422832D01*
X121407982Y-112400492D01*
X121428095Y-112392062D01*
X121509145Y-112346115D01*
X121568859Y-112288226D01*
X121608459Y-112226502D01*
X121617920Y-112207764D01*
X121625456Y-112188116D01*
X121631285Y-112163895D01*
X121635627Y-112131438D01*
X121638699Y-112087082D01*
X121640720Y-112027163D01*
X121641910Y-111948019D01*
X121642485Y-111845986D01*
X121642665Y-111717402D01*
X121642676Y-111653040D01*
X121642676Y-111143158D01*
X121594571Y-111065350D01*
X121533036Y-110990103D01*
X121468659Y-110939437D01*
X121378789Y-110901154D01*
X121284241Y-110890673D01*
X121190802Y-110905781D01*
X121104263Y-110944263D01*
X121030413Y-111003904D01*
X120975041Y-111082491D01*
X120953497Y-111136468D01*
X120948076Y-111171152D01*
X120943596Y-111232442D01*
X120940061Y-111315167D01*
X120937473Y-111414157D01*
X120935837Y-111524241D01*
X120935157Y-111640248D01*
X120816143Y-111640248D01*
X120816143Y-111129756D01*
X120860746Y-111038925D01*
X120927836Y-110936247D01*
X121015431Y-110855786D01*
X121119385Y-110800122D01*
X121235550Y-110771835D01*
X121295147Y-110768745D01*
X121399236Y-110779246D01*
X121492068Y-110811432D01*
X121575123Y-110861562D01*
X121650623Y-110915122D01*
X121650623Y-109993273D01*
X121761887Y-109993273D01*
X121761887Y-112536452D01*
G36*
X120250296Y-110793496D02*
G01*
X120347968Y-110838953D01*
X120433545Y-110906373D01*
X120502465Y-110994840D01*
X120545825Y-111089702D01*
X120552976Y-111115230D01*
X120558587Y-111146279D01*
X120562781Y-111186481D01*
X120565687Y-111239468D01*
X120567430Y-111308871D01*
X120568135Y-111398323D01*
X120567929Y-111511455D01*
X120566938Y-111651899D01*
X120566611Y-111688649D01*
X120565231Y-111831511D01*
X120563825Y-111946216D01*
X120562142Y-112036394D01*
X120559931Y-112105677D01*
X120556943Y-112157695D01*
X120552925Y-112196081D01*
X120547629Y-112224465D01*
X120540803Y-112246478D01*
X120532197Y-112265752D01*
X120525964Y-112277718D01*
X120455122Y-112383106D01*
X120369045Y-112461551D01*
X120310394Y-112495947D01*
X120221141Y-112528092D01*
X120124005Y-112544271D01*
X120031136Y-112543215D01*
X119973715Y-112531064D01*
X119886916Y-112496765D01*
X119818686Y-112454901D01*
X119755816Y-112397167D01*
X119748865Y-112389712D01*
X119716714Y-112353673D01*
X119690610Y-112319858D01*
X119669925Y-112284566D01*
X119654030Y-112244091D01*
X119642295Y-112194730D01*
X119634093Y-112132780D01*
X119628794Y-112054537D01*
X119625770Y-111956297D01*
X119624393Y-111834357D01*
X119624033Y-111685012D01*
X119624031Y-111670181D01*
X119743677Y-111670181D01*
X119743890Y-111807332D01*
X119744506Y-111916514D01*
X119745745Y-112001549D01*
X119747824Y-112066255D01*
X119750961Y-112114455D01*
X119755374Y-112149969D01*
X119761281Y-112176618D01*
X119768899Y-112198221D01*
X119774506Y-112210607D01*
X119834269Y-112303568D01*
X119909790Y-112370953D01*
X119997301Y-112411414D01*
X120093036Y-112423607D01*
X120193229Y-112406186D01*
X120252900Y-112381477D01*
X120338855Y-112323051D01*
X120386883Y-112268843D01*
X120434666Y-112199921D01*
X120434666Y-111111539D01*
X120391311Y-111046025D01*
X120324137Y-110970786D01*
X120242072Y-110920177D01*
X120150665Y-110894482D01*
X120055467Y-110893985D01*
X119962027Y-110918969D01*
X119875895Y-110969719D01*
X119826049Y-111017121D01*
X119791191Y-111066085D01*
X119764743Y-111119297D01*
X119760090Y-111133295D01*
X119755281Y-111167066D01*
X119751166Y-111229249D01*
X119747848Y-111316468D01*
X119745430Y-111425352D01*
X119744015Y-111552526D01*
X119743677Y-111670181D01*
X119624031Y-111670181D01*
X119624028Y-111654286D01*
X119624282Y-111499604D01*
X119625436Y-111373028D01*
X119628079Y-111270878D01*
X119632800Y-111189472D01*
X119640187Y-111125127D01*
X119650828Y-111074164D01*
X119665313Y-111032900D01*
X119684229Y-110997653D01*
X119708166Y-110964744D01*
X119737712Y-110930489D01*
X119740183Y-110927749D01*
X119829900Y-110849636D01*
X119930331Y-110798071D01*
X120036916Y-110772138D01*
X120145091Y-110770918D01*
X120250296Y-110793496D01*
X120250296Y-110793496D01*
G37*
X120250296Y-110793496D02*
X120347968Y-110838953D01*
X120433545Y-110906373D01*
X120502465Y-110994840D01*
X120545825Y-111089702D01*
X120552976Y-111115230D01*
X120558587Y-111146279D01*
X120562781Y-111186481D01*
X120565687Y-111239468D01*
X120567430Y-111308871D01*
X120568135Y-111398323D01*
X120567929Y-111511455D01*
X120566938Y-111651899D01*
X120566611Y-111688649D01*
X120565231Y-111831511D01*
X120563825Y-111946216D01*
X120562142Y-112036394D01*
X120559931Y-112105677D01*
X120556943Y-112157695D01*
X120552925Y-112196081D01*
X120547629Y-112224465D01*
X120540803Y-112246478D01*
X120532197Y-112265752D01*
X120525964Y-112277718D01*
X120455122Y-112383106D01*
X120369045Y-112461551D01*
X120310394Y-112495947D01*
X120221141Y-112528092D01*
X120124005Y-112544271D01*
X120031136Y-112543215D01*
X119973715Y-112531064D01*
X119886916Y-112496765D01*
X119818686Y-112454901D01*
X119755816Y-112397167D01*
X119748865Y-112389712D01*
X119716714Y-112353673D01*
X119690610Y-112319858D01*
X119669925Y-112284566D01*
X119654030Y-112244091D01*
X119642295Y-112194730D01*
X119634093Y-112132780D01*
X119628794Y-112054537D01*
X119625770Y-111956297D01*
X119624393Y-111834357D01*
X119624033Y-111685012D01*
X119624031Y-111670181D01*
X119743677Y-111670181D01*
X119743890Y-111807332D01*
X119744506Y-111916514D01*
X119745745Y-112001549D01*
X119747824Y-112066255D01*
X119750961Y-112114455D01*
X119755374Y-112149969D01*
X119761281Y-112176618D01*
X119768899Y-112198221D01*
X119774506Y-112210607D01*
X119834269Y-112303568D01*
X119909790Y-112370953D01*
X119997301Y-112411414D01*
X120093036Y-112423607D01*
X120193229Y-112406186D01*
X120252900Y-112381477D01*
X120338855Y-112323051D01*
X120386883Y-112268843D01*
X120434666Y-112199921D01*
X120434666Y-111111539D01*
X120391311Y-111046025D01*
X120324137Y-110970786D01*
X120242072Y-110920177D01*
X120150665Y-110894482D01*
X120055467Y-110893985D01*
X119962027Y-110918969D01*
X119875895Y-110969719D01*
X119826049Y-111017121D01*
X119791191Y-111066085D01*
X119764743Y-111119297D01*
X119760090Y-111133295D01*
X119755281Y-111167066D01*
X119751166Y-111229249D01*
X119747848Y-111316468D01*
X119745430Y-111425352D01*
X119744015Y-111552526D01*
X119743677Y-111670181D01*
X119624031Y-111670181D01*
X119624028Y-111654286D01*
X119624282Y-111499604D01*
X119625436Y-111373028D01*
X119628079Y-111270878D01*
X119632800Y-111189472D01*
X119640187Y-111125127D01*
X119650828Y-111074164D01*
X119665313Y-111032900D01*
X119684229Y-110997653D01*
X119708166Y-110964744D01*
X119737712Y-110930489D01*
X119740183Y-110927749D01*
X119829900Y-110849636D01*
X119930331Y-110798071D01*
X120036916Y-110772138D01*
X120145091Y-110770918D01*
X120250296Y-110793496D01*
G36*
X116649847Y-110782261D02*
G01*
X116751119Y-110822186D01*
X116841242Y-110887020D01*
X116915905Y-110975874D01*
X116951507Y-111040388D01*
X116959600Y-111058788D01*
X116966294Y-111077795D01*
X116971723Y-111100458D01*
X116976017Y-111129823D01*
X116979311Y-111168936D01*
X116981737Y-111220844D01*
X116983426Y-111288595D01*
X116984513Y-111375235D01*
X116985128Y-111483811D01*
X116985406Y-111617369D01*
X116985478Y-111778956D01*
X116985479Y-111821182D01*
X116985479Y-112528504D01*
X116929847Y-112528504D01*
X116895026Y-112526495D01*
X116877551Y-112514640D01*
X116869368Y-112484198D01*
X116866268Y-112459476D01*
X116858320Y-112390448D01*
X116820993Y-112430376D01*
X116760667Y-112476371D01*
X116679683Y-112513002D01*
X116588483Y-112537511D01*
X116497503Y-112547137D01*
X116417185Y-112539124D01*
X116413264Y-112538112D01*
X116294559Y-112491733D01*
X116195459Y-112422740D01*
X116118804Y-112333590D01*
X116073599Y-112244293D01*
X116050113Y-112155345D01*
X116039743Y-112056443D01*
X116042018Y-111978377D01*
X116168850Y-111978377D01*
X116169081Y-112052598D01*
X116169353Y-112060052D01*
X116173241Y-112130999D01*
X116179922Y-112180137D01*
X116191942Y-112217449D01*
X116211846Y-112252913D01*
X116222624Y-112268873D01*
X116292860Y-112344166D01*
X116378601Y-112394750D01*
X116473919Y-112419392D01*
X116572886Y-112416861D01*
X116669575Y-112385924D01*
X116701412Y-112368385D01*
X116765868Y-112317298D01*
X116814694Y-112249610D01*
X116821854Y-112236362D01*
X116837543Y-112205425D01*
X116849020Y-112177866D01*
X116856943Y-112148114D01*
X116861970Y-112110597D01*
X116864760Y-112059743D01*
X116865971Y-111989981D01*
X116866262Y-111895737D01*
X116866268Y-111860476D01*
X116866268Y-111569607D01*
X116604467Y-111669770D01*
X116473195Y-111721336D01*
X116369691Y-111765201D01*
X116291261Y-111802748D01*
X116235209Y-111835361D01*
X116198841Y-111864427D01*
X116181566Y-111887046D01*
X116173189Y-111920681D01*
X116168850Y-111978377D01*
X116042018Y-111978377D01*
X116042588Y-111958846D01*
X116058744Y-111873818D01*
X116070143Y-111843180D01*
X116086373Y-111811113D01*
X116105858Y-111782566D01*
X116131614Y-111755909D01*
X116166660Y-111729508D01*
X116214013Y-111701732D01*
X116276690Y-111670950D01*
X116357709Y-111635530D01*
X116460088Y-111593839D01*
X116586843Y-111544246D01*
X116711293Y-111496461D01*
X116866268Y-111437238D01*
X116866179Y-111307339D01*
X116862522Y-111205552D01*
X116850118Y-111127304D01*
X116826578Y-111064986D01*
X116789515Y-111010990D01*
X116764822Y-110984390D01*
X116683410Y-110923027D01*
X116593626Y-110891727D01*
X116498261Y-110890787D01*
X116400108Y-110920506D01*
X116360372Y-110941231D01*
X116310139Y-110980012D01*
X116262531Y-111032446D01*
X116224206Y-111089389D01*
X116201820Y-111141696D01*
X116198683Y-111163357D01*
X116192390Y-111214277D01*
X116170327Y-111240949D01*
X116127720Y-111248956D01*
X116125456Y-111248967D01*
X116090429Y-111246781D01*
X116075223Y-111233999D01*
X116071591Y-111201286D01*
X116071524Y-111187926D01*
X116081567Y-111128379D01*
X116108052Y-111056821D01*
X116145516Y-110984276D01*
X116188492Y-110921769D01*
X116219474Y-110889429D01*
X116322238Y-110820828D01*
X116431095Y-110780693D01*
X116541735Y-110768133D01*
X116649847Y-110782261D01*
X116649847Y-110782261D01*
G37*
X116649847Y-110782261D02*
X116751119Y-110822186D01*
X116841242Y-110887020D01*
X116915905Y-110975874D01*
X116951507Y-111040388D01*
X116959600Y-111058788D01*
X116966294Y-111077795D01*
X116971723Y-111100458D01*
X116976017Y-111129823D01*
X116979311Y-111168936D01*
X116981737Y-111220844D01*
X116983426Y-111288595D01*
X116984513Y-111375235D01*
X116985128Y-111483811D01*
X116985406Y-111617369D01*
X116985478Y-111778956D01*
X116985479Y-111821182D01*
X116985479Y-112528504D01*
X116929847Y-112528504D01*
X116895026Y-112526495D01*
X116877551Y-112514640D01*
X116869368Y-112484198D01*
X116866268Y-112459476D01*
X116858320Y-112390448D01*
X116820993Y-112430376D01*
X116760667Y-112476371D01*
X116679683Y-112513002D01*
X116588483Y-112537511D01*
X116497503Y-112547137D01*
X116417185Y-112539124D01*
X116413264Y-112538112D01*
X116294559Y-112491733D01*
X116195459Y-112422740D01*
X116118804Y-112333590D01*
X116073599Y-112244293D01*
X116050113Y-112155345D01*
X116039743Y-112056443D01*
X116042018Y-111978377D01*
X116168850Y-111978377D01*
X116169081Y-112052598D01*
X116169353Y-112060052D01*
X116173241Y-112130999D01*
X116179922Y-112180137D01*
X116191942Y-112217449D01*
X116211846Y-112252913D01*
X116222624Y-112268873D01*
X116292860Y-112344166D01*
X116378601Y-112394750D01*
X116473919Y-112419392D01*
X116572886Y-112416861D01*
X116669575Y-112385924D01*
X116701412Y-112368385D01*
X116765868Y-112317298D01*
X116814694Y-112249610D01*
X116821854Y-112236362D01*
X116837543Y-112205425D01*
X116849020Y-112177866D01*
X116856943Y-112148114D01*
X116861970Y-112110597D01*
X116864760Y-112059743D01*
X116865971Y-111989981D01*
X116866262Y-111895737D01*
X116866268Y-111860476D01*
X116866268Y-111569607D01*
X116604467Y-111669770D01*
X116473195Y-111721336D01*
X116369691Y-111765201D01*
X116291261Y-111802748D01*
X116235209Y-111835361D01*
X116198841Y-111864427D01*
X116181566Y-111887046D01*
X116173189Y-111920681D01*
X116168850Y-111978377D01*
X116042018Y-111978377D01*
X116042588Y-111958846D01*
X116058744Y-111873818D01*
X116070143Y-111843180D01*
X116086373Y-111811113D01*
X116105858Y-111782566D01*
X116131614Y-111755909D01*
X116166660Y-111729508D01*
X116214013Y-111701732D01*
X116276690Y-111670950D01*
X116357709Y-111635530D01*
X116460088Y-111593839D01*
X116586843Y-111544246D01*
X116711293Y-111496461D01*
X116866268Y-111437238D01*
X116866179Y-111307339D01*
X116862522Y-111205552D01*
X116850118Y-111127304D01*
X116826578Y-111064986D01*
X116789515Y-111010990D01*
X116764822Y-110984390D01*
X116683410Y-110923027D01*
X116593626Y-110891727D01*
X116498261Y-110890787D01*
X116400108Y-110920506D01*
X116360372Y-110941231D01*
X116310139Y-110980012D01*
X116262531Y-111032446D01*
X116224206Y-111089389D01*
X116201820Y-111141696D01*
X116198683Y-111163357D01*
X116192390Y-111214277D01*
X116170327Y-111240949D01*
X116127720Y-111248956D01*
X116125456Y-111248967D01*
X116090429Y-111246781D01*
X116075223Y-111233999D01*
X116071591Y-111201286D01*
X116071524Y-111187926D01*
X116081567Y-111128379D01*
X116108052Y-111056821D01*
X116145516Y-110984276D01*
X116188492Y-110921769D01*
X116219474Y-110889429D01*
X116322238Y-110820828D01*
X116431095Y-110780693D01*
X116541735Y-110768133D01*
X116649847Y-110782261D01*
G36*
X115518471Y-110789245D02*
G01*
X115568814Y-110808888D01*
X115662857Y-110865583D01*
X115738670Y-110938436D01*
X115795273Y-111022833D01*
X115831684Y-111114157D01*
X115846920Y-111207795D01*
X115840001Y-111299131D01*
X115809944Y-111383550D01*
X115755768Y-111456437D01*
X115713890Y-111490937D01*
X115681156Y-111508869D01*
X115623637Y-111535637D01*
X115546405Y-111569165D01*
X115454533Y-111607376D01*
X115353094Y-111648193D01*
X115247161Y-111689539D01*
X115141805Y-111729339D01*
X115050279Y-111762614D01*
X115038350Y-111770345D01*
X115030367Y-111787114D01*
X115025568Y-111818379D01*
X115023191Y-111869596D01*
X115022475Y-111946222D01*
X115022463Y-111961922D01*
X115022986Y-112044398D01*
X115025424Y-112103146D01*
X115031080Y-112146226D01*
X115041260Y-112181692D01*
X115057266Y-112217604D01*
X115066877Y-112236362D01*
X115127909Y-112321520D01*
X115208017Y-112381605D01*
X115305121Y-112415277D01*
X115353512Y-112421434D01*
X115451885Y-112413320D01*
X115542754Y-112378374D01*
X115620608Y-112320861D01*
X115679936Y-112245046D01*
X115715226Y-112155194D01*
X115718396Y-112139080D01*
X115727597Y-112095018D01*
X115741171Y-112073328D01*
X115767651Y-112064863D01*
X115789745Y-112062620D01*
X115828546Y-112061328D01*
X115845164Y-112070819D01*
X115848954Y-112097901D01*
X115848996Y-112105734D01*
X115843382Y-112147153D01*
X115828912Y-112203281D01*
X115815132Y-112244293D01*
X115761363Y-112345193D01*
X115685058Y-112428547D01*
X115591599Y-112491723D01*
X115486369Y-112532092D01*
X115374752Y-112547024D01*
X115262130Y-112533889D01*
X115237044Y-112526746D01*
X115125516Y-112475205D01*
X115032005Y-112398816D01*
X114959874Y-112300938D01*
X114919885Y-112209620D01*
X114912400Y-112182928D01*
X114906560Y-112151473D01*
X114902224Y-112111469D01*
X114899255Y-112059129D01*
X114897510Y-111990666D01*
X114896849Y-111902293D01*
X114897134Y-111790224D01*
X114898224Y-111650671D01*
X114898305Y-111642024D01*
X115022463Y-111642024D01*
X115288702Y-111541100D01*
X115377419Y-111507164D01*
X115458064Y-111475746D01*
X115524977Y-111449095D01*
X115572501Y-111429460D01*
X115593224Y-111420072D01*
X115631107Y-111395291D01*
X115672584Y-111361583D01*
X115676672Y-111357828D01*
X115712615Y-111303565D01*
X115724684Y-111233726D01*
X115712927Y-111153674D01*
X115677391Y-111068770D01*
X115674096Y-111062926D01*
X115611337Y-110982561D01*
X115532432Y-110926406D01*
X115442865Y-110895372D01*
X115348118Y-110890372D01*
X115253671Y-110912315D01*
X115165009Y-110962113D01*
X115148393Y-110975546D01*
X115104416Y-111016767D01*
X115071933Y-111058155D01*
X115049259Y-111105431D01*
X115034709Y-111164314D01*
X115026597Y-111240525D01*
X115023239Y-111339783D01*
X115022812Y-111401785D01*
X115022463Y-111642024D01*
X114898305Y-111642024D01*
X114898425Y-111629458D01*
X114899856Y-111489794D01*
X114901338Y-111378100D01*
X114903144Y-111290554D01*
X114905546Y-111223338D01*
X114908817Y-111172630D01*
X114913230Y-111134610D01*
X114919057Y-111105459D01*
X114926572Y-111081356D01*
X114936048Y-111058482D01*
X114939776Y-111050281D01*
X115002965Y-110947600D01*
X115085787Y-110866159D01*
X115183495Y-110807783D01*
X115291343Y-110774290D01*
X115404584Y-110767504D01*
X115518471Y-110789245D01*
X115518471Y-110789245D01*
G37*
X115518471Y-110789245D02*
X115568814Y-110808888D01*
X115662857Y-110865583D01*
X115738670Y-110938436D01*
X115795273Y-111022833D01*
X115831684Y-111114157D01*
X115846920Y-111207795D01*
X115840001Y-111299131D01*
X115809944Y-111383550D01*
X115755768Y-111456437D01*
X115713890Y-111490937D01*
X115681156Y-111508869D01*
X115623637Y-111535637D01*
X115546405Y-111569165D01*
X115454533Y-111607376D01*
X115353094Y-111648193D01*
X115247161Y-111689539D01*
X115141805Y-111729339D01*
X115050279Y-111762614D01*
X115038350Y-111770345D01*
X115030367Y-111787114D01*
X115025568Y-111818379D01*
X115023191Y-111869596D01*
X115022475Y-111946222D01*
X115022463Y-111961922D01*
X115022986Y-112044398D01*
X115025424Y-112103146D01*
X115031080Y-112146226D01*
X115041260Y-112181692D01*
X115057266Y-112217604D01*
X115066877Y-112236362D01*
X115127909Y-112321520D01*
X115208017Y-112381605D01*
X115305121Y-112415277D01*
X115353512Y-112421434D01*
X115451885Y-112413320D01*
X115542754Y-112378374D01*
X115620608Y-112320861D01*
X115679936Y-112245046D01*
X115715226Y-112155194D01*
X115718396Y-112139080D01*
X115727597Y-112095018D01*
X115741171Y-112073328D01*
X115767651Y-112064863D01*
X115789745Y-112062620D01*
X115828546Y-112061328D01*
X115845164Y-112070819D01*
X115848954Y-112097901D01*
X115848996Y-112105734D01*
X115843382Y-112147153D01*
X115828912Y-112203281D01*
X115815132Y-112244293D01*
X115761363Y-112345193D01*
X115685058Y-112428547D01*
X115591599Y-112491723D01*
X115486369Y-112532092D01*
X115374752Y-112547024D01*
X115262130Y-112533889D01*
X115237044Y-112526746D01*
X115125516Y-112475205D01*
X115032005Y-112398816D01*
X114959874Y-112300938D01*
X114919885Y-112209620D01*
X114912400Y-112182928D01*
X114906560Y-112151473D01*
X114902224Y-112111469D01*
X114899255Y-112059129D01*
X114897510Y-111990666D01*
X114896849Y-111902293D01*
X114897134Y-111790224D01*
X114898224Y-111650671D01*
X114898305Y-111642024D01*
X115022463Y-111642024D01*
X115288702Y-111541100D01*
X115377419Y-111507164D01*
X115458064Y-111475746D01*
X115524977Y-111449095D01*
X115572501Y-111429460D01*
X115593224Y-111420072D01*
X115631107Y-111395291D01*
X115672584Y-111361583D01*
X115676672Y-111357828D01*
X115712615Y-111303565D01*
X115724684Y-111233726D01*
X115712927Y-111153674D01*
X115677391Y-111068770D01*
X115674096Y-111062926D01*
X115611337Y-110982561D01*
X115532432Y-110926406D01*
X115442865Y-110895372D01*
X115348118Y-110890372D01*
X115253671Y-110912315D01*
X115165009Y-110962113D01*
X115148393Y-110975546D01*
X115104416Y-111016767D01*
X115071933Y-111058155D01*
X115049259Y-111105431D01*
X115034709Y-111164314D01*
X115026597Y-111240525D01*
X115023239Y-111339783D01*
X115022812Y-111401785D01*
X115022463Y-111642024D01*
X114898305Y-111642024D01*
X114898425Y-111629458D01*
X114899856Y-111489794D01*
X114901338Y-111378100D01*
X114903144Y-111290554D01*
X114905546Y-111223338D01*
X114908817Y-111172630D01*
X114913230Y-111134610D01*
X114919057Y-111105459D01*
X114926572Y-111081356D01*
X114936048Y-111058482D01*
X114939776Y-111050281D01*
X115002965Y-110947600D01*
X115085787Y-110866159D01*
X115183495Y-110807783D01*
X115291343Y-110774290D01*
X115404584Y-110767504D01*
X115518471Y-110789245D01*
G36*
X114320730Y-110787540D02*
G01*
X114368860Y-110804603D01*
X114454296Y-110855504D01*
X114530918Y-110927514D01*
X114593575Y-111013328D01*
X114637116Y-111105639D01*
X114656387Y-111197139D01*
X114656881Y-111213074D01*
X114653248Y-111237833D01*
X114636235Y-111246994D01*
X114598941Y-111245953D01*
X114563363Y-111240569D01*
X114543113Y-111226416D01*
X114529720Y-111194722D01*
X114522164Y-111166466D01*
X114482226Y-111063889D01*
X114420118Y-110984064D01*
X114336092Y-110927238D01*
X114250579Y-110897878D01*
X114153283Y-110890509D01*
X114060590Y-110911044D01*
X113977366Y-110955596D01*
X113908477Y-111020282D01*
X113858791Y-111101215D01*
X113833172Y-111194510D01*
X113830756Y-111233072D01*
X113835089Y-111287141D01*
X113850517Y-111335670D01*
X113879980Y-111381422D01*
X113926421Y-111427157D01*
X113992781Y-111475637D01*
X114082001Y-111529624D01*
X114197022Y-111591879D01*
X114232588Y-111610311D01*
X114374171Y-111689802D01*
X114485494Y-111767831D01*
X114567900Y-111846400D01*
X114622729Y-111927512D01*
X114651323Y-112013168D01*
X114655024Y-112105371D01*
X114635173Y-112206123D01*
X114634129Y-112209627D01*
X114585080Y-112320567D01*
X114511409Y-112412088D01*
X114414928Y-112482428D01*
X114307836Y-112526841D01*
X114224338Y-112546333D01*
X114151695Y-112548788D01*
X114073892Y-112534155D01*
X114045763Y-112526001D01*
X113941187Y-112480469D01*
X113850889Y-112414760D01*
X113792641Y-112348642D01*
X113756432Y-112284336D01*
X113726433Y-112209275D01*
X113707415Y-112136942D01*
X113703189Y-112095857D01*
X113706657Y-112071067D01*
X113723134Y-112061662D01*
X113761727Y-112062547D01*
X113762610Y-112062620D01*
X113802274Y-112068823D01*
X113821347Y-112085370D01*
X113830879Y-112122529D01*
X113831558Y-112126688D01*
X113861303Y-112217468D01*
X113916115Y-112297915D01*
X113989894Y-112362804D01*
X114076540Y-112406911D01*
X114169953Y-112425009D01*
X114180035Y-112425187D01*
X114274337Y-112410580D01*
X114360993Y-112370126D01*
X114434826Y-112308873D01*
X114490659Y-112231873D01*
X114523316Y-112144173D01*
X114529663Y-112084151D01*
X114525630Y-112028159D01*
X114511620Y-111978714D01*
X114484633Y-111932945D01*
X114441670Y-111887984D01*
X114379729Y-111840961D01*
X114295813Y-111789005D01*
X114186920Y-111729248D01*
X114124841Y-111696922D01*
X113984902Y-111618783D01*
X113874924Y-111542798D01*
X113793395Y-111466671D01*
X113738801Y-111388102D01*
X113709627Y-111304796D01*
X113704359Y-111214455D01*
X113721484Y-111114781D01*
X113727380Y-111093803D01*
X113764643Y-111012753D01*
X113824337Y-110932509D01*
X113898194Y-110862134D01*
X113977945Y-110810692D01*
X113991210Y-110804603D01*
X114096161Y-110775041D01*
X114210026Y-110769353D01*
X114320730Y-110787540D01*
X114320730Y-110787540D01*
G37*
X114320730Y-110787540D02*
X114368860Y-110804603D01*
X114454296Y-110855504D01*
X114530918Y-110927514D01*
X114593575Y-111013328D01*
X114637116Y-111105639D01*
X114656387Y-111197139D01*
X114656881Y-111213074D01*
X114653248Y-111237833D01*
X114636235Y-111246994D01*
X114598941Y-111245953D01*
X114563363Y-111240569D01*
X114543113Y-111226416D01*
X114529720Y-111194722D01*
X114522164Y-111166466D01*
X114482226Y-111063889D01*
X114420118Y-110984064D01*
X114336092Y-110927238D01*
X114250579Y-110897878D01*
X114153283Y-110890509D01*
X114060590Y-110911044D01*
X113977366Y-110955596D01*
X113908477Y-111020282D01*
X113858791Y-111101215D01*
X113833172Y-111194510D01*
X113830756Y-111233072D01*
X113835089Y-111287141D01*
X113850517Y-111335670D01*
X113879980Y-111381422D01*
X113926421Y-111427157D01*
X113992781Y-111475637D01*
X114082001Y-111529624D01*
X114197022Y-111591879D01*
X114232588Y-111610311D01*
X114374171Y-111689802D01*
X114485494Y-111767831D01*
X114567900Y-111846400D01*
X114622729Y-111927512D01*
X114651323Y-112013168D01*
X114655024Y-112105371D01*
X114635173Y-112206123D01*
X114634129Y-112209627D01*
X114585080Y-112320567D01*
X114511409Y-112412088D01*
X114414928Y-112482428D01*
X114307836Y-112526841D01*
X114224338Y-112546333D01*
X114151695Y-112548788D01*
X114073892Y-112534155D01*
X114045763Y-112526001D01*
X113941187Y-112480469D01*
X113850889Y-112414760D01*
X113792641Y-112348642D01*
X113756432Y-112284336D01*
X113726433Y-112209275D01*
X113707415Y-112136942D01*
X113703189Y-112095857D01*
X113706657Y-112071067D01*
X113723134Y-112061662D01*
X113761727Y-112062547D01*
X113762610Y-112062620D01*
X113802274Y-112068823D01*
X113821347Y-112085370D01*
X113830879Y-112122529D01*
X113831558Y-112126688D01*
X113861303Y-112217468D01*
X113916115Y-112297915D01*
X113989894Y-112362804D01*
X114076540Y-112406911D01*
X114169953Y-112425009D01*
X114180035Y-112425187D01*
X114274337Y-112410580D01*
X114360993Y-112370126D01*
X114434826Y-112308873D01*
X114490659Y-112231873D01*
X114523316Y-112144173D01*
X114529663Y-112084151D01*
X114525630Y-112028159D01*
X114511620Y-111978714D01*
X114484633Y-111932945D01*
X114441670Y-111887984D01*
X114379729Y-111840961D01*
X114295813Y-111789005D01*
X114186920Y-111729248D01*
X114124841Y-111696922D01*
X113984902Y-111618783D01*
X113874924Y-111542798D01*
X113793395Y-111466671D01*
X113738801Y-111388102D01*
X113709627Y-111304796D01*
X113704359Y-111214455D01*
X113721484Y-111114781D01*
X113727380Y-111093803D01*
X113764643Y-111012753D01*
X113824337Y-110932509D01*
X113898194Y-110862134D01*
X113977945Y-110810692D01*
X113991210Y-110804603D01*
X114096161Y-110775041D01*
X114210026Y-110769353D01*
X114320730Y-110787540D01*
G36*
X110918609Y-109880790D02*
G01*
X110961324Y-109882148D01*
X111143103Y-109888333D01*
X111296275Y-109894254D01*
X111424017Y-109900251D01*
X111529505Y-109906659D01*
X111615916Y-109913818D01*
X111686427Y-109922064D01*
X111744215Y-109931737D01*
X111792456Y-109943172D01*
X111834328Y-109956709D01*
X111873007Y-109972685D01*
X111890619Y-109980954D01*
X111993064Y-110044690D01*
X112077244Y-110128805D01*
X112144263Y-110235219D01*
X112195224Y-110365855D01*
X112231233Y-110522634D01*
X112241522Y-110591742D01*
X112254554Y-110705562D01*
X112264666Y-110825694D01*
X112272092Y-110957308D01*
X112277066Y-111105574D01*
X112279821Y-111275662D01*
X112280598Y-111455600D01*
X112278973Y-111694357D01*
X112273814Y-111903844D01*
X112264690Y-112086431D01*
X112251175Y-112244485D01*
X112232841Y-112380376D01*
X112209258Y-112496471D01*
X112179999Y-112595139D01*
X112144636Y-112678748D01*
X112102740Y-112749667D01*
X112053883Y-112810265D01*
X112031592Y-112832818D01*
X111961393Y-112891750D01*
X111886745Y-112935863D01*
X111800739Y-112967779D01*
X111696466Y-112990123D01*
X111579901Y-113004346D01*
X111480604Y-113011823D01*
X111353207Y-113018558D01*
X111201393Y-113024517D01*
X111028846Y-113029666D01*
X110839248Y-113033972D01*
X110636281Y-113037402D01*
X110423628Y-113039920D01*
X110204972Y-113041493D01*
X109983996Y-113042088D01*
X109764382Y-113041671D01*
X109549812Y-113040207D01*
X109343970Y-113037664D01*
X109150539Y-113034008D01*
X108973200Y-113029204D01*
X108950623Y-113028463D01*
X108760317Y-113020726D01*
X108598619Y-113010834D01*
X108462381Y-112998055D01*
X108348453Y-112981662D01*
X108253687Y-112960924D01*
X108174933Y-112935112D01*
X108109043Y-112903497D01*
X108052867Y-112865348D01*
X108003256Y-112819936D01*
X107990251Y-112805974D01*
X107945327Y-112749685D01*
X107906669Y-112685827D01*
X107873876Y-112611891D01*
X107846546Y-112525366D01*
X107824280Y-112423745D01*
X107806676Y-112304518D01*
X107793335Y-112165175D01*
X107783855Y-112003208D01*
X107777836Y-111816108D01*
X107774877Y-111601364D01*
X107774403Y-111454190D01*
X107774615Y-111416889D01*
X109554628Y-111416889D01*
X109554628Y-112045762D01*
X109852657Y-111891777D01*
X109967539Y-111832404D01*
X110099099Y-111764389D01*
X110235785Y-111693703D01*
X110366047Y-111626321D01*
X110456662Y-111579432D01*
X110546315Y-111532553D01*
X110625595Y-111490181D01*
X110690423Y-111454572D01*
X110736720Y-111427982D01*
X110760408Y-111412667D01*
X110762638Y-111410201D01*
X110749289Y-111399305D01*
X110712830Y-111377376D01*
X110658645Y-111347478D01*
X110592118Y-111312674D01*
X110583821Y-111308445D01*
X110521234Y-111276408D01*
X110436338Y-111232620D01*
X110334972Y-111180110D01*
X110222974Y-111121906D01*
X110106179Y-111061039D01*
X109994732Y-111002789D01*
X109889690Y-110948059D01*
X109793572Y-110898473D01*
X109710030Y-110855876D01*
X109642721Y-110822115D01*
X109595297Y-110799034D01*
X109571414Y-110788481D01*
X109569544Y-110788016D01*
X109565790Y-110803552D01*
X109562492Y-110848729D01*
X109559703Y-110921401D01*
X109557471Y-111019423D01*
X109555850Y-111140649D01*
X109554888Y-111282931D01*
X109554628Y-111416889D01*
X107774615Y-111416889D01*
X107775734Y-111220526D01*
X107779998Y-111016051D01*
X107787606Y-110838265D01*
X107798966Y-110684668D01*
X107814487Y-110552761D01*
X107834579Y-110440042D01*
X107859651Y-110344013D01*
X107890112Y-110262174D01*
X107926370Y-110192023D01*
X107968836Y-110131061D01*
X107996152Y-110099276D01*
X108078610Y-110027283D01*
X108177865Y-109973964D01*
X108298640Y-109937144D01*
X108380358Y-109922500D01*
X108447950Y-109913150D01*
X108505139Y-109905844D01*
X108543552Y-109901624D01*
X108553252Y-109900994D01*
X108574571Y-109900419D01*
X108623592Y-109898867D01*
X108696245Y-109896474D01*
X108788463Y-109893375D01*
X108896175Y-109889708D01*
X109015315Y-109885608D01*
X109069835Y-109883718D01*
X109679941Y-109869529D01*
X110301892Y-109868548D01*
X110918609Y-109880790D01*
X110918609Y-109880790D01*
G37*
X110918609Y-109880790D02*
X110961324Y-109882148D01*
X111143103Y-109888333D01*
X111296275Y-109894254D01*
X111424017Y-109900251D01*
X111529505Y-109906659D01*
X111615916Y-109913818D01*
X111686427Y-109922064D01*
X111744215Y-109931737D01*
X111792456Y-109943172D01*
X111834328Y-109956709D01*
X111873007Y-109972685D01*
X111890619Y-109980954D01*
X111993064Y-110044690D01*
X112077244Y-110128805D01*
X112144263Y-110235219D01*
X112195224Y-110365855D01*
X112231233Y-110522634D01*
X112241522Y-110591742D01*
X112254554Y-110705562D01*
X112264666Y-110825694D01*
X112272092Y-110957308D01*
X112277066Y-111105574D01*
X112279821Y-111275662D01*
X112280598Y-111455600D01*
X112278973Y-111694357D01*
X112273814Y-111903844D01*
X112264690Y-112086431D01*
X112251175Y-112244485D01*
X112232841Y-112380376D01*
X112209258Y-112496471D01*
X112179999Y-112595139D01*
X112144636Y-112678748D01*
X112102740Y-112749667D01*
X112053883Y-112810265D01*
X112031592Y-112832818D01*
X111961393Y-112891750D01*
X111886745Y-112935863D01*
X111800739Y-112967779D01*
X111696466Y-112990123D01*
X111579901Y-113004346D01*
X111480604Y-113011823D01*
X111353207Y-113018558D01*
X111201393Y-113024517D01*
X111028846Y-113029666D01*
X110839248Y-113033972D01*
X110636281Y-113037402D01*
X110423628Y-113039920D01*
X110204972Y-113041493D01*
X109983996Y-113042088D01*
X109764382Y-113041671D01*
X109549812Y-113040207D01*
X109343970Y-113037664D01*
X109150539Y-113034008D01*
X108973200Y-113029204D01*
X108950623Y-113028463D01*
X108760317Y-113020726D01*
X108598619Y-113010834D01*
X108462381Y-112998055D01*
X108348453Y-112981662D01*
X108253687Y-112960924D01*
X108174933Y-112935112D01*
X108109043Y-112903497D01*
X108052867Y-112865348D01*
X108003256Y-112819936D01*
X107990251Y-112805974D01*
X107945327Y-112749685D01*
X107906669Y-112685827D01*
X107873876Y-112611891D01*
X107846546Y-112525366D01*
X107824280Y-112423745D01*
X107806676Y-112304518D01*
X107793335Y-112165175D01*
X107783855Y-112003208D01*
X107777836Y-111816108D01*
X107774877Y-111601364D01*
X107774403Y-111454190D01*
X107774615Y-111416889D01*
X109554628Y-111416889D01*
X109554628Y-112045762D01*
X109852657Y-111891777D01*
X109967539Y-111832404D01*
X110099099Y-111764389D01*
X110235785Y-111693703D01*
X110366047Y-111626321D01*
X110456662Y-111579432D01*
X110546315Y-111532553D01*
X110625595Y-111490181D01*
X110690423Y-111454572D01*
X110736720Y-111427982D01*
X110760408Y-111412667D01*
X110762638Y-111410201D01*
X110749289Y-111399305D01*
X110712830Y-111377376D01*
X110658645Y-111347478D01*
X110592118Y-111312674D01*
X110583821Y-111308445D01*
X110521234Y-111276408D01*
X110436338Y-111232620D01*
X110334972Y-111180110D01*
X110222974Y-111121906D01*
X110106179Y-111061039D01*
X109994732Y-111002789D01*
X109889690Y-110948059D01*
X109793572Y-110898473D01*
X109710030Y-110855876D01*
X109642721Y-110822115D01*
X109595297Y-110799034D01*
X109571414Y-110788481D01*
X109569544Y-110788016D01*
X109565790Y-110803552D01*
X109562492Y-110848729D01*
X109559703Y-110921401D01*
X109557471Y-111019423D01*
X109555850Y-111140649D01*
X109554888Y-111282931D01*
X109554628Y-111416889D01*
X107774615Y-111416889D01*
X107775734Y-111220526D01*
X107779998Y-111016051D01*
X107787606Y-110838265D01*
X107798966Y-110684668D01*
X107814487Y-110552761D01*
X107834579Y-110440042D01*
X107859651Y-110344013D01*
X107890112Y-110262174D01*
X107926370Y-110192023D01*
X107968836Y-110131061D01*
X107996152Y-110099276D01*
X108078610Y-110027283D01*
X108177865Y-109973964D01*
X108298640Y-109937144D01*
X108380358Y-109922500D01*
X108447950Y-109913150D01*
X108505139Y-109905844D01*
X108543552Y-109901624D01*
X108553252Y-109900994D01*
X108574571Y-109900419D01*
X108623592Y-109898867D01*
X108696245Y-109896474D01*
X108788463Y-109893375D01*
X108896175Y-109889708D01*
X109015315Y-109885608D01*
X109069835Y-109883718D01*
X109679941Y-109869529D01*
X110301892Y-109868548D01*
X110918609Y-109880790D01*
G36*
X122581119Y-110777412D02*
G01*
X122694464Y-110817883D01*
X122767238Y-110861562D01*
X122842738Y-110915122D01*
X122842738Y-110851569D01*
X122844425Y-110810872D01*
X122854833Y-110792791D01*
X122881988Y-110788157D01*
X122898371Y-110788016D01*
X122954003Y-110788016D01*
X122953847Y-111888736D01*
X122953692Y-112989455D01*
X122915424Y-113071646D01*
X122852746Y-113171090D01*
X122769509Y-113250384D01*
X122670918Y-113307408D01*
X122562176Y-113340043D01*
X122448488Y-113346170D01*
X122335058Y-113323668D01*
X122314720Y-113316277D01*
X122209014Y-113260803D01*
X122126858Y-113185148D01*
X122065835Y-113087902D01*
X122039980Y-113027259D01*
X122019759Y-112968345D01*
X122010647Y-112929850D01*
X122002309Y-112870244D01*
X122063492Y-112870244D01*
X122103123Y-112872409D01*
X122122643Y-112884971D01*
X122132465Y-112917032D01*
X122135277Y-112932997D01*
X122160093Y-113006955D01*
X122205786Y-113082292D01*
X122264349Y-113147105D01*
X122295965Y-113171853D01*
X122344150Y-113197195D01*
X122401820Y-113211534D01*
X122462162Y-113217282D01*
X122526132Y-113218884D01*
X122572652Y-113213126D01*
X122615721Y-113197272D01*
X122646692Y-113181251D01*
X122731018Y-113117750D01*
X122793870Y-113033826D01*
X122824918Y-112957666D01*
X122831092Y-112919571D01*
X122836334Y-112857028D01*
X122840232Y-112777373D01*
X122842370Y-112687944D01*
X122842650Y-112643847D01*
X122842738Y-112393608D01*
X122771912Y-112447671D01*
X122688162Y-112501116D01*
X122602685Y-112531427D01*
X122503613Y-112542425D01*
X122477157Y-112542621D01*
X122357255Y-112526581D01*
X122248247Y-112481920D01*
X122153554Y-112410918D01*
X122076596Y-112315852D01*
X122042605Y-112253136D01*
X122033088Y-112231282D01*
X122025511Y-112208927D01*
X122019653Y-112182325D01*
X122015295Y-112147734D01*
X122012215Y-112101407D01*
X122010192Y-112039601D01*
X122009007Y-111958572D01*
X122008616Y-111887050D01*
X122128595Y-111887050D01*
X122130352Y-111988684D01*
X122134548Y-112069435D01*
X122141740Y-112132936D01*
X122152485Y-112182818D01*
X122167338Y-112222714D01*
X122186857Y-112256257D01*
X122211598Y-112287079D01*
X122238785Y-112315489D01*
X122323428Y-112382307D01*
X122413496Y-112418015D01*
X122510799Y-112423082D01*
X122589656Y-112407045D01*
X122669147Y-112368873D01*
X122741876Y-112307749D01*
X122797652Y-112232323D01*
X122799489Y-112228938D01*
X122809252Y-112209688D01*
X122817027Y-112190001D01*
X122823040Y-112166195D01*
X122827517Y-112134588D01*
X122830684Y-112091499D01*
X122832768Y-112033246D01*
X122833993Y-111956147D01*
X122834588Y-111856522D01*
X122834778Y-111730689D01*
X122834791Y-111654286D01*
X122834713Y-111513346D01*
X122834332Y-111400528D01*
X122833430Y-111312161D01*
X122831786Y-111244578D01*
X122829182Y-111194110D01*
X122825397Y-111157089D01*
X122820214Y-111129845D01*
X122813411Y-111108710D01*
X122804771Y-111090015D01*
X122800574Y-111082071D01*
X122737672Y-110993919D01*
X122658592Y-110933131D01*
X122563381Y-110899734D01*
X122485104Y-110892665D01*
X122378339Y-110906380D01*
X122287674Y-110947505D01*
X122213153Y-111016014D01*
X122169633Y-111082071D01*
X122159694Y-111102045D01*
X122151819Y-111123435D01*
X122145713Y-111150148D01*
X122141083Y-111186090D01*
X122137635Y-111235168D01*
X122135075Y-111301288D01*
X122133109Y-111388356D01*
X122131443Y-111500280D01*
X122130172Y-111606602D01*
X122128720Y-111760900D01*
X122128595Y-111887050D01*
X122008616Y-111887050D01*
X122008438Y-111854575D01*
X122008266Y-111723865D01*
X122008258Y-111670181D01*
X122008514Y-111512357D01*
X122009735Y-111382677D01*
X122012597Y-111277496D01*
X122017778Y-111193171D01*
X122025956Y-111126056D01*
X122037808Y-111072507D01*
X122054012Y-111028880D01*
X122075244Y-110991529D01*
X122102183Y-110956812D01*
X122135506Y-110921083D01*
X122150275Y-110906191D01*
X122246278Y-110830999D01*
X122352862Y-110784271D01*
X122465864Y-110766308D01*
X122581119Y-110777412D01*
X122581119Y-110777412D01*
G37*
X122581119Y-110777412D02*
X122694464Y-110817883D01*
X122767238Y-110861562D01*
X122842738Y-110915122D01*
X122842738Y-110851569D01*
X122844425Y-110810872D01*
X122854833Y-110792791D01*
X122881988Y-110788157D01*
X122898371Y-110788016D01*
X122954003Y-110788016D01*
X122953847Y-111888736D01*
X122953692Y-112989455D01*
X122915424Y-113071646D01*
X122852746Y-113171090D01*
X122769509Y-113250384D01*
X122670918Y-113307408D01*
X122562176Y-113340043D01*
X122448488Y-113346170D01*
X122335058Y-113323668D01*
X122314720Y-113316277D01*
X122209014Y-113260803D01*
X122126858Y-113185148D01*
X122065835Y-113087902D01*
X122039980Y-113027259D01*
X122019759Y-112968345D01*
X122010647Y-112929850D01*
X122002309Y-112870244D01*
X122063492Y-112870244D01*
X122103123Y-112872409D01*
X122122643Y-112884971D01*
X122132465Y-112917032D01*
X122135277Y-112932997D01*
X122160093Y-113006955D01*
X122205786Y-113082292D01*
X122264349Y-113147105D01*
X122295965Y-113171853D01*
X122344150Y-113197195D01*
X122401820Y-113211534D01*
X122462162Y-113217282D01*
X122526132Y-113218884D01*
X122572652Y-113213126D01*
X122615721Y-113197272D01*
X122646692Y-113181251D01*
X122731018Y-113117750D01*
X122793870Y-113033826D01*
X122824918Y-112957666D01*
X122831092Y-112919571D01*
X122836334Y-112857028D01*
X122840232Y-112777373D01*
X122842370Y-112687944D01*
X122842650Y-112643847D01*
X122842738Y-112393608D01*
X122771912Y-112447671D01*
X122688162Y-112501116D01*
X122602685Y-112531427D01*
X122503613Y-112542425D01*
X122477157Y-112542621D01*
X122357255Y-112526581D01*
X122248247Y-112481920D01*
X122153554Y-112410918D01*
X122076596Y-112315852D01*
X122042605Y-112253136D01*
X122033088Y-112231282D01*
X122025511Y-112208927D01*
X122019653Y-112182325D01*
X122015295Y-112147734D01*
X122012215Y-112101407D01*
X122010192Y-112039601D01*
X122009007Y-111958572D01*
X122008616Y-111887050D01*
X122128595Y-111887050D01*
X122130352Y-111988684D01*
X122134548Y-112069435D01*
X122141740Y-112132936D01*
X122152485Y-112182818D01*
X122167338Y-112222714D01*
X122186857Y-112256257D01*
X122211598Y-112287079D01*
X122238785Y-112315489D01*
X122323428Y-112382307D01*
X122413496Y-112418015D01*
X122510799Y-112423082D01*
X122589656Y-112407045D01*
X122669147Y-112368873D01*
X122741876Y-112307749D01*
X122797652Y-112232323D01*
X122799489Y-112228938D01*
X122809252Y-112209688D01*
X122817027Y-112190001D01*
X122823040Y-112166195D01*
X122827517Y-112134588D01*
X122830684Y-112091499D01*
X122832768Y-112033246D01*
X122833993Y-111956147D01*
X122834588Y-111856522D01*
X122834778Y-111730689D01*
X122834791Y-111654286D01*
X122834713Y-111513346D01*
X122834332Y-111400528D01*
X122833430Y-111312161D01*
X122831786Y-111244578D01*
X122829182Y-111194110D01*
X122825397Y-111157089D01*
X122820214Y-111129845D01*
X122813411Y-111108710D01*
X122804771Y-111090015D01*
X122800574Y-111082071D01*
X122737672Y-110993919D01*
X122658592Y-110933131D01*
X122563381Y-110899734D01*
X122485104Y-110892665D01*
X122378339Y-110906380D01*
X122287674Y-110947505D01*
X122213153Y-111016014D01*
X122169633Y-111082071D01*
X122159694Y-111102045D01*
X122151819Y-111123435D01*
X122145713Y-111150148D01*
X122141083Y-111186090D01*
X122137635Y-111235168D01*
X122135075Y-111301288D01*
X122133109Y-111388356D01*
X122131443Y-111500280D01*
X122130172Y-111606602D01*
X122128720Y-111760900D01*
X122128595Y-111887050D01*
X122008616Y-111887050D01*
X122008438Y-111854575D01*
X122008266Y-111723865D01*
X122008258Y-111670181D01*
X122008514Y-111512357D01*
X122009735Y-111382677D01*
X122012597Y-111277496D01*
X122017778Y-111193171D01*
X122025956Y-111126056D01*
X122037808Y-111072507D01*
X122054012Y-111028880D01*
X122075244Y-110991529D01*
X122102183Y-110956812D01*
X122135506Y-110921083D01*
X122150275Y-110906191D01*
X122246278Y-110830999D01*
X122352862Y-110784271D01*
X122465864Y-110766308D01*
X122581119Y-110777412D01*
G36*
X114102277Y-102828262D02*
G01*
X114165927Y-102895886D01*
X114192248Y-102980154D01*
X114192250Y-102980691D01*
X114165724Y-103066487D01*
X114099579Y-103123290D01*
X114013962Y-103143560D01*
X113929020Y-103119756D01*
X113895545Y-103091737D01*
X113851832Y-103004575D01*
X113859372Y-102914851D01*
X113909965Y-102841283D01*
X113995408Y-102802589D01*
X114023141Y-102800550D01*
X114102277Y-102828262D01*
X114102277Y-102828262D01*
G37*
X114102277Y-102828262D02*
X114165927Y-102895886D01*
X114192248Y-102980154D01*
X114192250Y-102980691D01*
X114165724Y-103066487D01*
X114099579Y-103123290D01*
X114013962Y-103143560D01*
X113929020Y-103119756D01*
X113895545Y-103091737D01*
X113851832Y-103004575D01*
X113859372Y-102914851D01*
X113909965Y-102841283D01*
X113995408Y-102802589D01*
X114023141Y-102800550D01*
X114102277Y-102828262D01*
G36*
X110736777Y-102828262D02*
G01*
X110800427Y-102895886D01*
X110826748Y-102980154D01*
X110826750Y-102980691D01*
X110800224Y-103066487D01*
X110734079Y-103123290D01*
X110648462Y-103143560D01*
X110563520Y-103119756D01*
X110530045Y-103091737D01*
X110486332Y-103004575D01*
X110493872Y-102914851D01*
X110544465Y-102841283D01*
X110629908Y-102802589D01*
X110657641Y-102800550D01*
X110736777Y-102828262D01*
X110736777Y-102828262D01*
G37*
X110736777Y-102828262D02*
X110800427Y-102895886D01*
X110826748Y-102980154D01*
X110826750Y-102980691D01*
X110800224Y-103066487D01*
X110734079Y-103123290D01*
X110648462Y-103143560D01*
X110563520Y-103119756D01*
X110530045Y-103091737D01*
X110486332Y-103004575D01*
X110493872Y-102914851D01*
X110544465Y-102841283D01*
X110629908Y-102802589D01*
X110657641Y-102800550D01*
X110736777Y-102828262D01*
G36*
X114192250Y-107436050D02*
G01*
X113970000Y-107436050D01*
X113970000Y-104197550D01*
X113858875Y-104197550D01*
X113787725Y-104193705D01*
X113756106Y-104169965D01*
X113747998Y-104108024D01*
X113747750Y-104070550D01*
X113747750Y-103943550D01*
X114192250Y-103943550D01*
X114192250Y-107436050D01*
X114192250Y-107436050D01*
G37*
X114192250Y-107436050D02*
X113970000Y-107436050D01*
X113970000Y-104197550D01*
X113858875Y-104197550D01*
X113787725Y-104193705D01*
X113756106Y-104169965D01*
X113747998Y-104108024D01*
X113747750Y-104070550D01*
X113747750Y-103943550D01*
X114192250Y-103943550D01*
X114192250Y-107436050D01*
G36*
X110826750Y-107436050D02*
G01*
X110604500Y-107436050D01*
X110604500Y-104197550D01*
X110493375Y-104197550D01*
X110422225Y-104193705D01*
X110390606Y-104169965D01*
X110382498Y-104108024D01*
X110382250Y-104070550D01*
X110382250Y-103943550D01*
X110826750Y-103943550D01*
X110826750Y-107436050D01*
X110826750Y-107436050D01*
G37*
X110826750Y-107436050D02*
X110604500Y-107436050D01*
X110604500Y-104197550D01*
X110493375Y-104197550D01*
X110422225Y-104193705D01*
X110390606Y-104169965D01*
X110382498Y-104108024D01*
X110382250Y-104070550D01*
X110382250Y-103943550D01*
X110826750Y-103943550D01*
X110826750Y-107436050D01*
G36*
X134935135Y-102711789D02*
G01*
X135130573Y-102721175D01*
X135655718Y-105094487D01*
X136180862Y-107467800D01*
X136063070Y-107467800D01*
X135973936Y-107457062D01*
X135932473Y-107421340D01*
X135929204Y-107412237D01*
X135917933Y-107365967D01*
X135895343Y-107267423D01*
X135863627Y-107126379D01*
X135824975Y-106952605D01*
X135781580Y-106755875D01*
X135761888Y-106666112D01*
X135610645Y-105975550D01*
X134242281Y-105975550D01*
X134101766Y-106618487D01*
X134046881Y-106870276D01*
X134003694Y-107066931D01*
X133969773Y-107215222D01*
X133942681Y-107321921D01*
X133919983Y-107393801D01*
X133899246Y-107437633D01*
X133878033Y-107460190D01*
X133853910Y-107468242D01*
X133824442Y-107468562D01*
X133796382Y-107467800D01*
X133723527Y-107459712D01*
X133687558Y-107439860D01*
X133686750Y-107436003D01*
X133693447Y-107401000D01*
X133712669Y-107309913D01*
X133743112Y-107168633D01*
X133783471Y-106983050D01*
X133832441Y-106759056D01*
X133888719Y-106502543D01*
X133950998Y-106219400D01*
X134017976Y-105915520D01*
X134061892Y-105716614D01*
X134300846Y-105716614D01*
X134313820Y-105730669D01*
X134349423Y-105740608D01*
X134415519Y-105747135D01*
X134519971Y-105750955D01*
X134670643Y-105752772D01*
X134875398Y-105753290D01*
X134922860Y-105753300D01*
X135116181Y-105752924D01*
X135285882Y-105751875D01*
X135422480Y-105750272D01*
X135516492Y-105748232D01*
X135558433Y-105745874D01*
X135559738Y-105745362D01*
X135552268Y-105698274D01*
X135532266Y-105599786D01*
X135501478Y-105457339D01*
X135461650Y-105278375D01*
X135414530Y-105070335D01*
X135361863Y-104840662D01*
X135305395Y-104596797D01*
X135246874Y-104346182D01*
X135188044Y-104096258D01*
X135130653Y-103854467D01*
X135076447Y-103628251D01*
X135027171Y-103425052D01*
X134984574Y-103252312D01*
X134950399Y-103117471D01*
X134926395Y-103027972D01*
X134914307Y-102991256D01*
X134913400Y-102991050D01*
X134902747Y-103031422D01*
X134880003Y-103127092D01*
X134846695Y-103271336D01*
X134804348Y-103457430D01*
X134754488Y-103678648D01*
X134698641Y-103928267D01*
X134638335Y-104199561D01*
X134607165Y-104340425D01*
X134545211Y-104620346D01*
X134487038Y-104882250D01*
X134434165Y-105119359D01*
X134388115Y-105324898D01*
X134350407Y-105492090D01*
X134322561Y-105614157D01*
X134306097Y-105684324D01*
X134302637Y-105697737D01*
X134300846Y-105716614D01*
X134061892Y-105716614D01*
X134088347Y-105596794D01*
X134160807Y-105269112D01*
X134234051Y-104938366D01*
X134306775Y-104610447D01*
X134377674Y-104291247D01*
X134445444Y-103986656D01*
X134508781Y-103702565D01*
X134566379Y-103444866D01*
X134616934Y-103219450D01*
X134659142Y-103032209D01*
X134691699Y-102889032D01*
X134713299Y-102795812D01*
X134722317Y-102759414D01*
X134741617Y-102727822D01*
X134784895Y-102712261D01*
X134867491Y-102709298D01*
X134935135Y-102711789D01*
X134935135Y-102711789D01*
G37*
X134935135Y-102711789D02*
X135130573Y-102721175D01*
X135655718Y-105094487D01*
X136180862Y-107467800D01*
X136063070Y-107467800D01*
X135973936Y-107457062D01*
X135932473Y-107421340D01*
X135929204Y-107412237D01*
X135917933Y-107365967D01*
X135895343Y-107267423D01*
X135863627Y-107126379D01*
X135824975Y-106952605D01*
X135781580Y-106755875D01*
X135761888Y-106666112D01*
X135610645Y-105975550D01*
X134242281Y-105975550D01*
X134101766Y-106618487D01*
X134046881Y-106870276D01*
X134003694Y-107066931D01*
X133969773Y-107215222D01*
X133942681Y-107321921D01*
X133919983Y-107393801D01*
X133899246Y-107437633D01*
X133878033Y-107460190D01*
X133853910Y-107468242D01*
X133824442Y-107468562D01*
X133796382Y-107467800D01*
X133723527Y-107459712D01*
X133687558Y-107439860D01*
X133686750Y-107436003D01*
X133693447Y-107401000D01*
X133712669Y-107309913D01*
X133743112Y-107168633D01*
X133783471Y-106983050D01*
X133832441Y-106759056D01*
X133888719Y-106502543D01*
X133950998Y-106219400D01*
X134017976Y-105915520D01*
X134061892Y-105716614D01*
X134300846Y-105716614D01*
X134313820Y-105730669D01*
X134349423Y-105740608D01*
X134415519Y-105747135D01*
X134519971Y-105750955D01*
X134670643Y-105752772D01*
X134875398Y-105753290D01*
X134922860Y-105753300D01*
X135116181Y-105752924D01*
X135285882Y-105751875D01*
X135422480Y-105750272D01*
X135516492Y-105748232D01*
X135558433Y-105745874D01*
X135559738Y-105745362D01*
X135552268Y-105698274D01*
X135532266Y-105599786D01*
X135501478Y-105457339D01*
X135461650Y-105278375D01*
X135414530Y-105070335D01*
X135361863Y-104840662D01*
X135305395Y-104596797D01*
X135246874Y-104346182D01*
X135188044Y-104096258D01*
X135130653Y-103854467D01*
X135076447Y-103628251D01*
X135027171Y-103425052D01*
X134984574Y-103252312D01*
X134950399Y-103117471D01*
X134926395Y-103027972D01*
X134914307Y-102991256D01*
X134913400Y-102991050D01*
X134902747Y-103031422D01*
X134880003Y-103127092D01*
X134846695Y-103271336D01*
X134804348Y-103457430D01*
X134754488Y-103678648D01*
X134698641Y-103928267D01*
X134638335Y-104199561D01*
X134607165Y-104340425D01*
X134545211Y-104620346D01*
X134487038Y-104882250D01*
X134434165Y-105119359D01*
X134388115Y-105324898D01*
X134350407Y-105492090D01*
X134322561Y-105614157D01*
X134306097Y-105684324D01*
X134302637Y-105697737D01*
X134300846Y-105716614D01*
X134061892Y-105716614D01*
X134088347Y-105596794D01*
X134160807Y-105269112D01*
X134234051Y-104938366D01*
X134306775Y-104610447D01*
X134377674Y-104291247D01*
X134445444Y-103986656D01*
X134508781Y-103702565D01*
X134566379Y-103444866D01*
X134616934Y-103219450D01*
X134659142Y-103032209D01*
X134691699Y-102889032D01*
X134713299Y-102795812D01*
X134722317Y-102759414D01*
X134741617Y-102727822D01*
X134784895Y-102712261D01*
X134867491Y-102709298D01*
X134935135Y-102711789D01*
G36*
X131964312Y-102711211D02*
G01*
X132169743Y-102715809D01*
X132323125Y-102721318D01*
X132435906Y-102729149D01*
X132519534Y-102740715D01*
X132585458Y-102757429D01*
X132645126Y-102780704D01*
X132686625Y-102800337D01*
X132884087Y-102928911D01*
X133055861Y-103101361D01*
X133180413Y-103293503D01*
X133208454Y-103354502D01*
X133229124Y-103414243D01*
X133243788Y-103484026D01*
X133253809Y-103575156D01*
X133260552Y-103698935D01*
X133265381Y-103866666D01*
X133268478Y-104023214D01*
X133271670Y-104231081D01*
X133272010Y-104387370D01*
X133268549Y-104503978D01*
X133260340Y-104592799D01*
X133246433Y-104665727D01*
X133225881Y-104734657D01*
X133207752Y-104784980D01*
X133115794Y-104963295D01*
X132983967Y-105130256D01*
X132827665Y-105270238D01*
X132662284Y-105367616D01*
X132616432Y-105385124D01*
X132522541Y-105419115D01*
X132477750Y-105447020D01*
X132469978Y-105479767D01*
X132479234Y-105509271D01*
X132498079Y-105554790D01*
X132538500Y-105651158D01*
X132597287Y-105790761D01*
X132671228Y-105965988D01*
X132757112Y-106169224D01*
X132851728Y-106392856D01*
X132903576Y-106515300D01*
X133300301Y-107451925D01*
X133203738Y-107462175D01*
X133128021Y-107461673D01*
X133083277Y-107446300D01*
X133065376Y-107411863D01*
X133025516Y-107326079D01*
X132966810Y-107195941D01*
X132892373Y-107028443D01*
X132805317Y-106830579D01*
X132708757Y-106609340D01*
X132636982Y-106443862D01*
X132214586Y-105467550D01*
X131623000Y-105467550D01*
X131623000Y-107467800D01*
X131400750Y-107467800D01*
X131400750Y-102927550D01*
X131623000Y-102927550D01*
X131623000Y-105251389D01*
X132059562Y-105240407D01*
X132236917Y-105235181D01*
X132364446Y-105228372D01*
X132455821Y-105217671D01*
X132524712Y-105200769D01*
X132584790Y-105175357D01*
X132645861Y-105141404D01*
X132823399Y-105002947D01*
X132955213Y-104826814D01*
X133006450Y-104713551D01*
X133027602Y-104613129D01*
X133041881Y-104449762D01*
X133049275Y-104223633D01*
X133050356Y-104100018D01*
X133048125Y-103860256D01*
X133038007Y-103672656D01*
X133017143Y-103526079D01*
X132982671Y-103409386D01*
X132931732Y-103311438D01*
X132861468Y-103221097D01*
X132811118Y-103168181D01*
X132704704Y-103074756D01*
X132592778Y-103007919D01*
X132462293Y-102963808D01*
X132300203Y-102938561D01*
X132093462Y-102928314D01*
X131998344Y-102927550D01*
X131623000Y-102927550D01*
X131400750Y-102927550D01*
X131400750Y-102700157D01*
X131964312Y-102711211D01*
X131964312Y-102711211D01*
G37*
X131964312Y-102711211D02*
X132169743Y-102715809D01*
X132323125Y-102721318D01*
X132435906Y-102729149D01*
X132519534Y-102740715D01*
X132585458Y-102757429D01*
X132645126Y-102780704D01*
X132686625Y-102800337D01*
X132884087Y-102928911D01*
X133055861Y-103101361D01*
X133180413Y-103293503D01*
X133208454Y-103354502D01*
X133229124Y-103414243D01*
X133243788Y-103484026D01*
X133253809Y-103575156D01*
X133260552Y-103698935D01*
X133265381Y-103866666D01*
X133268478Y-104023214D01*
X133271670Y-104231081D01*
X133272010Y-104387370D01*
X133268549Y-104503978D01*
X133260340Y-104592799D01*
X133246433Y-104665727D01*
X133225881Y-104734657D01*
X133207752Y-104784980D01*
X133115794Y-104963295D01*
X132983967Y-105130256D01*
X132827665Y-105270238D01*
X132662284Y-105367616D01*
X132616432Y-105385124D01*
X132522541Y-105419115D01*
X132477750Y-105447020D01*
X132469978Y-105479767D01*
X132479234Y-105509271D01*
X132498079Y-105554790D01*
X132538500Y-105651158D01*
X132597287Y-105790761D01*
X132671228Y-105965988D01*
X132757112Y-106169224D01*
X132851728Y-106392856D01*
X132903576Y-106515300D01*
X133300301Y-107451925D01*
X133203738Y-107462175D01*
X133128021Y-107461673D01*
X133083277Y-107446300D01*
X133065376Y-107411863D01*
X133025516Y-107326079D01*
X132966810Y-107195941D01*
X132892373Y-107028443D01*
X132805317Y-106830579D01*
X132708757Y-106609340D01*
X132636982Y-106443862D01*
X132214586Y-105467550D01*
X131623000Y-105467550D01*
X131623000Y-107467800D01*
X131400750Y-107467800D01*
X131400750Y-102927550D01*
X131623000Y-102927550D01*
X131623000Y-105251389D01*
X132059562Y-105240407D01*
X132236917Y-105235181D01*
X132364446Y-105228372D01*
X132455821Y-105217671D01*
X132524712Y-105200769D01*
X132584790Y-105175357D01*
X132645861Y-105141404D01*
X132823399Y-105002947D01*
X132955213Y-104826814D01*
X133006450Y-104713551D01*
X133027602Y-104613129D01*
X133041881Y-104449762D01*
X133049275Y-104223633D01*
X133050356Y-104100018D01*
X133048125Y-103860256D01*
X133038007Y-103672656D01*
X133017143Y-103526079D01*
X132982671Y-103409386D01*
X132931732Y-103311438D01*
X132861468Y-103221097D01*
X132811118Y-103168181D01*
X132704704Y-103074756D01*
X132592778Y-103007919D01*
X132462293Y-102963808D01*
X132300203Y-102938561D01*
X132093462Y-102928314D01*
X131998344Y-102927550D01*
X131623000Y-102927550D01*
X131400750Y-102927550D01*
X131400750Y-102700157D01*
X131964312Y-102711211D01*
G36*
X121772562Y-102710763D02*
G01*
X122019229Y-102716994D01*
X122213106Y-102727989D01*
X122364879Y-102746715D01*
X122485231Y-102776139D01*
X122584848Y-102819228D01*
X122674415Y-102878949D01*
X122764617Y-102958268D01*
X122804397Y-102997276D01*
X122952207Y-103171775D01*
X123045130Y-103351718D01*
X123090559Y-103554933D01*
X123098125Y-103705425D01*
X123094172Y-103850997D01*
X123078644Y-103960243D01*
X123046035Y-104060045D01*
X123008877Y-104141169D01*
X122938686Y-104259629D01*
X122852920Y-104371299D01*
X122796722Y-104428118D01*
X122673814Y-104533323D01*
X122815092Y-104608270D01*
X122985866Y-104729104D01*
X123137649Y-104893580D01*
X123252133Y-105081840D01*
X123252514Y-105082663D01*
X123274200Y-105133393D01*
X123290717Y-105185721D01*
X123302763Y-105248830D01*
X123311037Y-105331902D01*
X123316236Y-105444120D01*
X123319057Y-105594666D01*
X123320200Y-105792724D01*
X123320375Y-105975550D01*
X123320155Y-106212760D01*
X123318966Y-106395702D01*
X123316014Y-106533607D01*
X123310507Y-106635705D01*
X123301650Y-106711229D01*
X123288650Y-106769408D01*
X123270713Y-106819475D01*
X123247047Y-106870661D01*
X123242663Y-106879596D01*
X123131717Y-107053596D01*
X122983588Y-107213775D01*
X122817947Y-107340460D01*
X122739234Y-107383026D01*
X122685502Y-107405751D01*
X122629139Y-107423127D01*
X122560562Y-107436037D01*
X122470186Y-107445367D01*
X122348429Y-107452002D01*
X122185707Y-107456828D01*
X121972437Y-107460728D01*
X121883687Y-107462044D01*
X121177250Y-107472164D01*
X121177250Y-107250593D01*
X121399500Y-107250593D01*
X121978937Y-107240134D01*
X122184504Y-107236123D01*
X122337483Y-107231602D01*
X122448778Y-107225081D01*
X122529292Y-107215070D01*
X122589930Y-107200082D01*
X122641597Y-107178627D01*
X122695195Y-107149216D01*
X122710526Y-107140239D01*
X122869906Y-107016277D01*
X122998113Y-106857046D01*
X123079831Y-106681994D01*
X123084638Y-106665180D01*
X123096421Y-106585029D01*
X123104751Y-106449882D01*
X123109368Y-106268160D01*
X123110010Y-106048287D01*
X123108357Y-105900136D01*
X123104325Y-105679732D01*
X123099571Y-105512872D01*
X123093071Y-105389602D01*
X123083801Y-105299967D01*
X123070737Y-105234012D01*
X123052856Y-105181782D01*
X123029595Y-105134175D01*
X122894541Y-104949625D01*
X122712301Y-104804869D01*
X122669500Y-104780612D01*
X122620100Y-104758771D01*
X122558677Y-104742409D01*
X122475017Y-104730495D01*
X122358904Y-104721999D01*
X122200123Y-104715890D01*
X121988458Y-104711138D01*
X121978937Y-104710965D01*
X121399500Y-104700506D01*
X121399500Y-107250593D01*
X121177250Y-107250593D01*
X121177250Y-104489124D01*
X121399500Y-104489124D01*
X121870404Y-104478274D01*
X122053478Y-104473588D01*
X122185880Y-104467874D01*
X122280425Y-104458942D01*
X122349930Y-104444606D01*
X122407210Y-104422679D01*
X122465082Y-104390973D01*
X122497466Y-104371249D01*
X122670442Y-104231730D01*
X122792375Y-104064151D01*
X122863265Y-103878225D01*
X122883111Y-103683666D01*
X122851913Y-103490188D01*
X122769672Y-103307502D01*
X122636388Y-103145323D01*
X122497466Y-103039600D01*
X122434639Y-103002316D01*
X122378670Y-102975880D01*
X122316744Y-102958106D01*
X122236045Y-102946805D01*
X122123755Y-102939791D01*
X121967059Y-102934875D01*
X121870404Y-102932575D01*
X121399500Y-102921725D01*
X121399500Y-104489124D01*
X121177250Y-104489124D01*
X121177250Y-102700352D01*
X121772562Y-102710763D01*
X121772562Y-102710763D01*
G37*
X121772562Y-102710763D02*
X122019229Y-102716994D01*
X122213106Y-102727989D01*
X122364879Y-102746715D01*
X122485231Y-102776139D01*
X122584848Y-102819228D01*
X122674415Y-102878949D01*
X122764617Y-102958268D01*
X122804397Y-102997276D01*
X122952207Y-103171775D01*
X123045130Y-103351718D01*
X123090559Y-103554933D01*
X123098125Y-103705425D01*
X123094172Y-103850997D01*
X123078644Y-103960243D01*
X123046035Y-104060045D01*
X123008877Y-104141169D01*
X122938686Y-104259629D01*
X122852920Y-104371299D01*
X122796722Y-104428118D01*
X122673814Y-104533323D01*
X122815092Y-104608270D01*
X122985866Y-104729104D01*
X123137649Y-104893580D01*
X123252133Y-105081840D01*
X123252514Y-105082663D01*
X123274200Y-105133393D01*
X123290717Y-105185721D01*
X123302763Y-105248830D01*
X123311037Y-105331902D01*
X123316236Y-105444120D01*
X123319057Y-105594666D01*
X123320200Y-105792724D01*
X123320375Y-105975550D01*
X123320155Y-106212760D01*
X123318966Y-106395702D01*
X123316014Y-106533607D01*
X123310507Y-106635705D01*
X123301650Y-106711229D01*
X123288650Y-106769408D01*
X123270713Y-106819475D01*
X123247047Y-106870661D01*
X123242663Y-106879596D01*
X123131717Y-107053596D01*
X122983588Y-107213775D01*
X122817947Y-107340460D01*
X122739234Y-107383026D01*
X122685502Y-107405751D01*
X122629139Y-107423127D01*
X122560562Y-107436037D01*
X122470186Y-107445367D01*
X122348429Y-107452002D01*
X122185707Y-107456828D01*
X121972437Y-107460728D01*
X121883687Y-107462044D01*
X121177250Y-107472164D01*
X121177250Y-107250593D01*
X121399500Y-107250593D01*
X121978937Y-107240134D01*
X122184504Y-107236123D01*
X122337483Y-107231602D01*
X122448778Y-107225081D01*
X122529292Y-107215070D01*
X122589930Y-107200082D01*
X122641597Y-107178627D01*
X122695195Y-107149216D01*
X122710526Y-107140239D01*
X122869906Y-107016277D01*
X122998113Y-106857046D01*
X123079831Y-106681994D01*
X123084638Y-106665180D01*
X123096421Y-106585029D01*
X123104751Y-106449882D01*
X123109368Y-106268160D01*
X123110010Y-106048287D01*
X123108357Y-105900136D01*
X123104325Y-105679732D01*
X123099571Y-105512872D01*
X123093071Y-105389602D01*
X123083801Y-105299967D01*
X123070737Y-105234012D01*
X123052856Y-105181782D01*
X123029595Y-105134175D01*
X122894541Y-104949625D01*
X122712301Y-104804869D01*
X122669500Y-104780612D01*
X122620100Y-104758771D01*
X122558677Y-104742409D01*
X122475017Y-104730495D01*
X122358904Y-104721999D01*
X122200123Y-104715890D01*
X121988458Y-104711138D01*
X121978937Y-104710965D01*
X121399500Y-104700506D01*
X121399500Y-107250593D01*
X121177250Y-107250593D01*
X121177250Y-104489124D01*
X121399500Y-104489124D01*
X121870404Y-104478274D01*
X122053478Y-104473588D01*
X122185880Y-104467874D01*
X122280425Y-104458942D01*
X122349930Y-104444606D01*
X122407210Y-104422679D01*
X122465082Y-104390973D01*
X122497466Y-104371249D01*
X122670442Y-104231730D01*
X122792375Y-104064151D01*
X122863265Y-103878225D01*
X122883111Y-103683666D01*
X122851913Y-103490188D01*
X122769672Y-103307502D01*
X122636388Y-103145323D01*
X122497466Y-103039600D01*
X122434639Y-103002316D01*
X122378670Y-102975880D01*
X122316744Y-102958106D01*
X122236045Y-102946805D01*
X122123755Y-102939791D01*
X121967059Y-102934875D01*
X121870404Y-102932575D01*
X121399500Y-102921725D01*
X121399500Y-104489124D01*
X121177250Y-104489124D01*
X121177250Y-102700352D01*
X121772562Y-102710763D01*
G36*
X129083000Y-104652269D02*
G01*
X129083004Y-105073487D01*
X129083347Y-105436131D01*
X129084517Y-105745128D01*
X129087006Y-106005404D01*
X129091305Y-106221884D01*
X129097905Y-106399496D01*
X129107297Y-106543165D01*
X129119971Y-106657818D01*
X129136418Y-106748380D01*
X129157130Y-106819778D01*
X129182598Y-106876937D01*
X129213311Y-106924786D01*
X129249761Y-106968248D01*
X129292440Y-107012251D01*
X129321012Y-107040733D01*
X129493043Y-107172380D01*
X129682851Y-107249194D01*
X129880504Y-107273475D01*
X130076068Y-107247524D01*
X130259609Y-107173643D01*
X130421194Y-107054132D01*
X130550890Y-106891291D01*
X130622252Y-106739315D01*
X130632382Y-106703142D01*
X130641028Y-106653246D01*
X130648301Y-106584803D01*
X130654314Y-106492989D01*
X130659178Y-106372978D01*
X130663005Y-106219946D01*
X130665905Y-106029069D01*
X130667992Y-105795523D01*
X130669376Y-105514482D01*
X130670169Y-105181123D01*
X130670482Y-104790620D01*
X130670500Y-104653933D01*
X130670500Y-102705300D01*
X130894554Y-102705300D01*
X130885714Y-104729362D01*
X130876875Y-106753425D01*
X130789565Y-106919051D01*
X130641962Y-107138544D01*
X130459119Y-107307174D01*
X130245039Y-107422310D01*
X130003725Y-107481321D01*
X129924375Y-107487790D01*
X129799690Y-107489248D01*
X129690300Y-107483239D01*
X129622750Y-107471746D01*
X129376043Y-107358996D01*
X129168667Y-107197264D01*
X129004198Y-106989550D01*
X128963934Y-106919051D01*
X128876625Y-106753425D01*
X128867785Y-104729362D01*
X128858945Y-102705300D01*
X129083000Y-102705300D01*
X129083000Y-104652269D01*
X129083000Y-104652269D01*
G37*
X129083000Y-104652269D02*
X129083004Y-105073487D01*
X129083347Y-105436131D01*
X129084517Y-105745128D01*
X129087006Y-106005404D01*
X129091305Y-106221884D01*
X129097905Y-106399496D01*
X129107297Y-106543165D01*
X129119971Y-106657818D01*
X129136418Y-106748380D01*
X129157130Y-106819778D01*
X129182598Y-106876937D01*
X129213311Y-106924786D01*
X129249761Y-106968248D01*
X129292440Y-107012251D01*
X129321012Y-107040733D01*
X129493043Y-107172380D01*
X129682851Y-107249194D01*
X129880504Y-107273475D01*
X130076068Y-107247524D01*
X130259609Y-107173643D01*
X130421194Y-107054132D01*
X130550890Y-106891291D01*
X130622252Y-106739315D01*
X130632382Y-106703142D01*
X130641028Y-106653246D01*
X130648301Y-106584803D01*
X130654314Y-106492989D01*
X130659178Y-106372978D01*
X130663005Y-106219946D01*
X130665905Y-106029069D01*
X130667992Y-105795523D01*
X130669376Y-105514482D01*
X130670169Y-105181123D01*
X130670482Y-104790620D01*
X130670500Y-104653933D01*
X130670500Y-102705300D01*
X130894554Y-102705300D01*
X130885714Y-104729362D01*
X130876875Y-106753425D01*
X130789565Y-106919051D01*
X130641962Y-107138544D01*
X130459119Y-107307174D01*
X130245039Y-107422310D01*
X130003725Y-107481321D01*
X129924375Y-107487790D01*
X129799690Y-107489248D01*
X129690300Y-107483239D01*
X129622750Y-107471746D01*
X129376043Y-107358996D01*
X129168667Y-107197264D01*
X129004198Y-106989550D01*
X128963934Y-106919051D01*
X128876625Y-106753425D01*
X128867785Y-104729362D01*
X128858945Y-102705300D01*
X129083000Y-102705300D01*
X129083000Y-104652269D01*
G36*
X127515274Y-102692821D02*
G01*
X127623192Y-102705435D01*
X127716710Y-102732489D01*
X127818097Y-102777683D01*
X128026247Y-102913797D01*
X128192539Y-103093289D01*
X128310465Y-103307177D01*
X128373153Y-103543797D01*
X128393131Y-103689550D01*
X128281295Y-103689550D01*
X128211963Y-103685570D01*
X128175891Y-103662224D01*
X128157038Y-103602398D01*
X128148165Y-103547546D01*
X128095702Y-103381660D01*
X127995477Y-103218064D01*
X127860959Y-103075873D01*
X127767879Y-103007850D01*
X127672149Y-102954609D01*
X127586359Y-102925419D01*
X127483428Y-102913454D01*
X127386223Y-102911675D01*
X127239679Y-102917850D01*
X127126237Y-102940550D01*
X127016333Y-102986029D01*
X127003011Y-102992783D01*
X126850863Y-103098584D01*
X126720574Y-103240756D01*
X126629156Y-103399173D01*
X126607948Y-103460164D01*
X126599817Y-103522370D01*
X126592708Y-103644626D01*
X126586692Y-103823488D01*
X126581838Y-104055512D01*
X126578215Y-104337256D01*
X126575895Y-104665275D01*
X126574946Y-105036126D01*
X126574927Y-105088831D01*
X126574991Y-105462400D01*
X126575749Y-105778140D01*
X126577908Y-106041719D01*
X126582174Y-106258807D01*
X126589253Y-106435075D01*
X126599852Y-106576193D01*
X126614677Y-106687829D01*
X126634434Y-106775655D01*
X126659831Y-106845339D01*
X126691572Y-106902553D01*
X126730366Y-106952965D01*
X126776917Y-107002245D01*
X126818378Y-107042876D01*
X126995219Y-107174426D01*
X127190235Y-107250433D01*
X127393064Y-107271966D01*
X127593340Y-107240095D01*
X127780699Y-107155889D01*
X127944776Y-107020417D01*
X128025497Y-106918316D01*
X128088148Y-106804632D01*
X128134833Y-106682938D01*
X128148165Y-106625553D01*
X128164387Y-106538276D01*
X128188975Y-106496919D01*
X128237972Y-106484372D01*
X128281295Y-106483550D01*
X128393131Y-106483550D01*
X128373153Y-106629302D01*
X128310198Y-106870489D01*
X128195597Y-107080459D01*
X128035969Y-107253239D01*
X127837932Y-107382859D01*
X127608106Y-107463347D01*
X127421609Y-107487758D01*
X127295741Y-107489264D01*
X127185254Y-107483476D01*
X127114500Y-107471746D01*
X126867793Y-107358996D01*
X126660417Y-107197264D01*
X126495948Y-106989550D01*
X126455684Y-106919051D01*
X126368375Y-106753425D01*
X126368375Y-103419675D01*
X126455684Y-103254048D01*
X126605182Y-103033766D01*
X126798184Y-102859390D01*
X126932998Y-102777180D01*
X127027963Y-102732294D01*
X127116022Y-102705886D01*
X127220405Y-102693300D01*
X127364343Y-102689878D01*
X127368500Y-102689870D01*
X127515274Y-102692821D01*
X127515274Y-102692821D01*
G37*
X127515274Y-102692821D02*
X127623192Y-102705435D01*
X127716710Y-102732489D01*
X127818097Y-102777683D01*
X128026247Y-102913797D01*
X128192539Y-103093289D01*
X128310465Y-103307177D01*
X128373153Y-103543797D01*
X128393131Y-103689550D01*
X128281295Y-103689550D01*
X128211963Y-103685570D01*
X128175891Y-103662224D01*
X128157038Y-103602398D01*
X128148165Y-103547546D01*
X128095702Y-103381660D01*
X127995477Y-103218064D01*
X127860959Y-103075873D01*
X127767879Y-103007850D01*
X127672149Y-102954609D01*
X127586359Y-102925419D01*
X127483428Y-102913454D01*
X127386223Y-102911675D01*
X127239679Y-102917850D01*
X127126237Y-102940550D01*
X127016333Y-102986029D01*
X127003011Y-102992783D01*
X126850863Y-103098584D01*
X126720574Y-103240756D01*
X126629156Y-103399173D01*
X126607948Y-103460164D01*
X126599817Y-103522370D01*
X126592708Y-103644626D01*
X126586692Y-103823488D01*
X126581838Y-104055512D01*
X126578215Y-104337256D01*
X126575895Y-104665275D01*
X126574946Y-105036126D01*
X126574927Y-105088831D01*
X126574991Y-105462400D01*
X126575749Y-105778140D01*
X126577908Y-106041719D01*
X126582174Y-106258807D01*
X126589253Y-106435075D01*
X126599852Y-106576193D01*
X126614677Y-106687829D01*
X126634434Y-106775655D01*
X126659831Y-106845339D01*
X126691572Y-106902553D01*
X126730366Y-106952965D01*
X126776917Y-107002245D01*
X126818378Y-107042876D01*
X126995219Y-107174426D01*
X127190235Y-107250433D01*
X127393064Y-107271966D01*
X127593340Y-107240095D01*
X127780699Y-107155889D01*
X127944776Y-107020417D01*
X128025497Y-106918316D01*
X128088148Y-106804632D01*
X128134833Y-106682938D01*
X128148165Y-106625553D01*
X128164387Y-106538276D01*
X128188975Y-106496919D01*
X128237972Y-106484372D01*
X128281295Y-106483550D01*
X128393131Y-106483550D01*
X128373153Y-106629302D01*
X128310198Y-106870489D01*
X128195597Y-107080459D01*
X128035969Y-107253239D01*
X127837932Y-107382859D01*
X127608106Y-107463347D01*
X127421609Y-107487758D01*
X127295741Y-107489264D01*
X127185254Y-107483476D01*
X127114500Y-107471746D01*
X126867793Y-107358996D01*
X126660417Y-107197264D01*
X126495948Y-106989550D01*
X126455684Y-106919051D01*
X126368375Y-106753425D01*
X126368375Y-103419675D01*
X126455684Y-103254048D01*
X126605182Y-103033766D01*
X126798184Y-102859390D01*
X126932998Y-102777180D01*
X127027963Y-102732294D01*
X127116022Y-102705886D01*
X127220405Y-102693300D01*
X127364343Y-102689878D01*
X127368500Y-102689870D01*
X127515274Y-102692821D01*
G36*
X125007024Y-102692821D02*
G01*
X125114942Y-102705435D01*
X125208460Y-102732489D01*
X125309847Y-102777683D01*
X125517997Y-102913797D01*
X125684289Y-103093289D01*
X125802215Y-103307177D01*
X125864903Y-103543797D01*
X125884881Y-103689550D01*
X125773045Y-103689550D01*
X125703713Y-103685570D01*
X125667641Y-103662224D01*
X125648788Y-103602398D01*
X125639915Y-103547546D01*
X125608740Y-103437303D01*
X125553032Y-103314622D01*
X125517247Y-103254783D01*
X125372875Y-103091184D01*
X125200666Y-102978164D01*
X125010708Y-102915371D01*
X124813092Y-102902454D01*
X124617905Y-102939062D01*
X124435237Y-103024843D01*
X124275176Y-103159447D01*
X124170395Y-103301688D01*
X124124222Y-103389034D01*
X124097539Y-103470563D01*
X124085286Y-103569496D01*
X124082400Y-103705425D01*
X124093884Y-103883815D01*
X124131535Y-104048393D01*
X124200207Y-104206414D01*
X124304755Y-104365130D01*
X124450032Y-104531793D01*
X124640894Y-104713657D01*
X124882195Y-104917975D01*
X124907875Y-104938781D01*
X125139586Y-105132294D01*
X125325040Y-105302879D01*
X125472671Y-105459869D01*
X125590914Y-105612600D01*
X125688204Y-105770409D01*
X125727677Y-105846134D01*
X125789862Y-105974826D01*
X125828789Y-106071652D01*
X125849893Y-106160019D01*
X125858609Y-106263333D01*
X125860371Y-106405000D01*
X125860375Y-106417634D01*
X125857877Y-106572377D01*
X125847937Y-106684993D01*
X125826878Y-106776747D01*
X125791029Y-106868898D01*
X125777195Y-106899045D01*
X125642162Y-107117474D01*
X125466352Y-107289505D01*
X125255634Y-107411153D01*
X125015875Y-107478433D01*
X124907875Y-107489522D01*
X124724333Y-107487839D01*
X124569069Y-107458251D01*
X124521555Y-107442704D01*
X124297066Y-107331056D01*
X124110598Y-107173382D01*
X123969356Y-106977145D01*
X123891562Y-106790091D01*
X123854345Y-106650435D01*
X123843369Y-106559740D01*
X123860536Y-106508319D01*
X123907750Y-106486482D01*
X123951769Y-106483550D01*
X124019136Y-106488018D01*
X124054084Y-106512968D01*
X124072627Y-106575710D01*
X124080097Y-106622301D01*
X124139557Y-106816558D01*
X124249905Y-106985747D01*
X124400987Y-107122299D01*
X124582651Y-107218646D01*
X124784742Y-107267220D01*
X124945691Y-107267534D01*
X125151120Y-107216148D01*
X125335221Y-107112176D01*
X125486699Y-106965161D01*
X125594261Y-106784642D01*
X125625884Y-106692969D01*
X125652020Y-106483989D01*
X125627499Y-106256574D01*
X125556410Y-106024464D01*
X125442844Y-105801396D01*
X125305742Y-105617518D01*
X125234727Y-105545230D01*
X125126025Y-105443888D01*
X124991506Y-105324141D01*
X124843042Y-105196638D01*
X124749840Y-105118889D01*
X124537258Y-104939679D01*
X124368890Y-104787278D01*
X124236582Y-104652581D01*
X124132182Y-104526481D01*
X124047536Y-104399873D01*
X123974490Y-104263652D01*
X123963509Y-104240726D01*
X123913908Y-104129673D01*
X123883333Y-104037896D01*
X123867253Y-103942574D01*
X123861135Y-103820888D01*
X123860357Y-103721300D01*
X123862306Y-103571727D01*
X123870938Y-103465369D01*
X123890021Y-103382006D01*
X123923324Y-103301420D01*
X123947434Y-103254048D01*
X124096932Y-103033766D01*
X124289934Y-102859390D01*
X124424748Y-102777180D01*
X124519713Y-102732294D01*
X124607772Y-102705886D01*
X124712155Y-102693300D01*
X124856093Y-102689878D01*
X124860250Y-102689870D01*
X125007024Y-102692821D01*
X125007024Y-102692821D01*
G37*
X125007024Y-102692821D02*
X125114942Y-102705435D01*
X125208460Y-102732489D01*
X125309847Y-102777683D01*
X125517997Y-102913797D01*
X125684289Y-103093289D01*
X125802215Y-103307177D01*
X125864903Y-103543797D01*
X125884881Y-103689550D01*
X125773045Y-103689550D01*
X125703713Y-103685570D01*
X125667641Y-103662224D01*
X125648788Y-103602398D01*
X125639915Y-103547546D01*
X125608740Y-103437303D01*
X125553032Y-103314622D01*
X125517247Y-103254783D01*
X125372875Y-103091184D01*
X125200666Y-102978164D01*
X125010708Y-102915371D01*
X124813092Y-102902454D01*
X124617905Y-102939062D01*
X124435237Y-103024843D01*
X124275176Y-103159447D01*
X124170395Y-103301688D01*
X124124222Y-103389034D01*
X124097539Y-103470563D01*
X124085286Y-103569496D01*
X124082400Y-103705425D01*
X124093884Y-103883815D01*
X124131535Y-104048393D01*
X124200207Y-104206414D01*
X124304755Y-104365130D01*
X124450032Y-104531793D01*
X124640894Y-104713657D01*
X124882195Y-104917975D01*
X124907875Y-104938781D01*
X125139586Y-105132294D01*
X125325040Y-105302879D01*
X125472671Y-105459869D01*
X125590914Y-105612600D01*
X125688204Y-105770409D01*
X125727677Y-105846134D01*
X125789862Y-105974826D01*
X125828789Y-106071652D01*
X125849893Y-106160019D01*
X125858609Y-106263333D01*
X125860371Y-106405000D01*
X125860375Y-106417634D01*
X125857877Y-106572377D01*
X125847937Y-106684993D01*
X125826878Y-106776747D01*
X125791029Y-106868898D01*
X125777195Y-106899045D01*
X125642162Y-107117474D01*
X125466352Y-107289505D01*
X125255634Y-107411153D01*
X125015875Y-107478433D01*
X124907875Y-107489522D01*
X124724333Y-107487839D01*
X124569069Y-107458251D01*
X124521555Y-107442704D01*
X124297066Y-107331056D01*
X124110598Y-107173382D01*
X123969356Y-106977145D01*
X123891562Y-106790091D01*
X123854345Y-106650435D01*
X123843369Y-106559740D01*
X123860536Y-106508319D01*
X123907750Y-106486482D01*
X123951769Y-106483550D01*
X124019136Y-106488018D01*
X124054084Y-106512968D01*
X124072627Y-106575710D01*
X124080097Y-106622301D01*
X124139557Y-106816558D01*
X124249905Y-106985747D01*
X124400987Y-107122299D01*
X124582651Y-107218646D01*
X124784742Y-107267220D01*
X124945691Y-107267534D01*
X125151120Y-107216148D01*
X125335221Y-107112176D01*
X125486699Y-106965161D01*
X125594261Y-106784642D01*
X125625884Y-106692969D01*
X125652020Y-106483989D01*
X125627499Y-106256574D01*
X125556410Y-106024464D01*
X125442844Y-105801396D01*
X125305742Y-105617518D01*
X125234727Y-105545230D01*
X125126025Y-105443888D01*
X124991506Y-105324141D01*
X124843042Y-105196638D01*
X124749840Y-105118889D01*
X124537258Y-104939679D01*
X124368890Y-104787278D01*
X124236582Y-104652581D01*
X124132182Y-104526481D01*
X124047536Y-104399873D01*
X123974490Y-104263652D01*
X123963509Y-104240726D01*
X123913908Y-104129673D01*
X123883333Y-104037896D01*
X123867253Y-103942574D01*
X123861135Y-103820888D01*
X123860357Y-103721300D01*
X123862306Y-103571727D01*
X123870938Y-103465369D01*
X123890021Y-103382006D01*
X123923324Y-103301420D01*
X123947434Y-103254048D01*
X124096932Y-103033766D01*
X124289934Y-102859390D01*
X124424748Y-102777180D01*
X124519713Y-102732294D01*
X124607772Y-102705886D01*
X124712155Y-102693300D01*
X124856093Y-102689878D01*
X124860250Y-102689870D01*
X125007024Y-102692821D01*
G36*
X109842500Y-107467800D02*
G01*
X109620250Y-107467800D01*
X109620250Y-107170169D01*
X109532937Y-107251991D01*
X109348067Y-107382661D01*
X109130000Y-107463037D01*
X108953500Y-107487604D01*
X108832271Y-107489065D01*
X108726061Y-107482455D01*
X108667750Y-107471760D01*
X108431152Y-107362887D01*
X108235983Y-107205984D01*
X108083069Y-107001747D01*
X108059985Y-106959800D01*
X108039869Y-106920150D01*
X108023724Y-106881369D01*
X108011113Y-106836328D01*
X108001599Y-106777898D01*
X107994747Y-106698952D01*
X107990120Y-106592360D01*
X107987280Y-106450994D01*
X107985792Y-106267727D01*
X107985219Y-106035428D01*
X107985125Y-105746971D01*
X107985125Y-105737425D01*
X107985133Y-105707670D01*
X108191491Y-105707670D01*
X108192117Y-105942136D01*
X108194624Y-106167474D01*
X108199015Y-106373318D01*
X108205294Y-106549301D01*
X108213464Y-106685057D01*
X108223530Y-106770221D01*
X108226256Y-106782080D01*
X108268090Y-106875094D01*
X108338735Y-106981401D01*
X108392767Y-107045298D01*
X108560569Y-107181529D01*
X108747872Y-107257391D01*
X108953696Y-107272623D01*
X109128125Y-107241787D01*
X109250212Y-107183559D01*
X109376132Y-107084300D01*
X109487447Y-106962447D01*
X109565721Y-106836434D01*
X109584737Y-106785175D01*
X109595453Y-106713014D01*
X109604258Y-106587768D01*
X109611154Y-106419824D01*
X109616141Y-106219567D01*
X109619218Y-105997383D01*
X109620385Y-105763659D01*
X109619642Y-105528781D01*
X109616990Y-105303134D01*
X109612428Y-105097106D01*
X109605956Y-104921082D01*
X109597575Y-104785449D01*
X109587284Y-104700592D01*
X109584737Y-104689675D01*
X109511596Y-104535619D01*
X109390128Y-104398699D01*
X109235188Y-104289676D01*
X109061627Y-104219308D01*
X108905875Y-104197904D01*
X108728208Y-104225534D01*
X108556141Y-104301252D01*
X108404526Y-104414299D01*
X108288217Y-104553914D01*
X108227012Y-104689675D01*
X108216434Y-104761224D01*
X108207715Y-104885842D01*
X108200857Y-105053161D01*
X108195864Y-105252816D01*
X108192741Y-105474441D01*
X108191491Y-105707670D01*
X107985133Y-105707670D01*
X107985212Y-105447182D01*
X107985764Y-105213311D01*
X107987219Y-105028683D01*
X107990011Y-104886170D01*
X107994579Y-104778643D01*
X108001359Y-104698974D01*
X108010786Y-104640036D01*
X108023298Y-104594698D01*
X108039331Y-104555833D01*
X108059323Y-104516313D01*
X108059985Y-104515050D01*
X108198881Y-104311808D01*
X108373052Y-104154861D01*
X108573406Y-104046435D01*
X108790849Y-103988761D01*
X109016289Y-103984067D01*
X109240634Y-104034582D01*
X109454789Y-104142534D01*
X109487338Y-104165167D01*
X109620250Y-104261448D01*
X109620250Y-102419550D01*
X109842500Y-102419550D01*
X109842500Y-107467800D01*
X109842500Y-107467800D01*
G37*
X109842500Y-107467800D02*
X109620250Y-107467800D01*
X109620250Y-107170169D01*
X109532937Y-107251991D01*
X109348067Y-107382661D01*
X109130000Y-107463037D01*
X108953500Y-107487604D01*
X108832271Y-107489065D01*
X108726061Y-107482455D01*
X108667750Y-107471760D01*
X108431152Y-107362887D01*
X108235983Y-107205984D01*
X108083069Y-107001747D01*
X108059985Y-106959800D01*
X108039869Y-106920150D01*
X108023724Y-106881369D01*
X108011113Y-106836328D01*
X108001599Y-106777898D01*
X107994747Y-106698952D01*
X107990120Y-106592360D01*
X107987280Y-106450994D01*
X107985792Y-106267727D01*
X107985219Y-106035428D01*
X107985125Y-105746971D01*
X107985125Y-105737425D01*
X107985133Y-105707670D01*
X108191491Y-105707670D01*
X108192117Y-105942136D01*
X108194624Y-106167474D01*
X108199015Y-106373318D01*
X108205294Y-106549301D01*
X108213464Y-106685057D01*
X108223530Y-106770221D01*
X108226256Y-106782080D01*
X108268090Y-106875094D01*
X108338735Y-106981401D01*
X108392767Y-107045298D01*
X108560569Y-107181529D01*
X108747872Y-107257391D01*
X108953696Y-107272623D01*
X109128125Y-107241787D01*
X109250212Y-107183559D01*
X109376132Y-107084300D01*
X109487447Y-106962447D01*
X109565721Y-106836434D01*
X109584737Y-106785175D01*
X109595453Y-106713014D01*
X109604258Y-106587768D01*
X109611154Y-106419824D01*
X109616141Y-106219567D01*
X109619218Y-105997383D01*
X109620385Y-105763659D01*
X109619642Y-105528781D01*
X109616990Y-105303134D01*
X109612428Y-105097106D01*
X109605956Y-104921082D01*
X109597575Y-104785449D01*
X109587284Y-104700592D01*
X109584737Y-104689675D01*
X109511596Y-104535619D01*
X109390128Y-104398699D01*
X109235188Y-104289676D01*
X109061627Y-104219308D01*
X108905875Y-104197904D01*
X108728208Y-104225534D01*
X108556141Y-104301252D01*
X108404526Y-104414299D01*
X108288217Y-104553914D01*
X108227012Y-104689675D01*
X108216434Y-104761224D01*
X108207715Y-104885842D01*
X108200857Y-105053161D01*
X108195864Y-105252816D01*
X108192741Y-105474441D01*
X108191491Y-105707670D01*
X107985133Y-105707670D01*
X107985212Y-105447182D01*
X107985764Y-105213311D01*
X107987219Y-105028683D01*
X107990011Y-104886170D01*
X107994579Y-104778643D01*
X108001359Y-104698974D01*
X108010786Y-104640036D01*
X108023298Y-104594698D01*
X108039331Y-104555833D01*
X108059323Y-104516313D01*
X108059985Y-104515050D01*
X108198881Y-104311808D01*
X108373052Y-104154861D01*
X108573406Y-104046435D01*
X108790849Y-103988761D01*
X109016289Y-103984067D01*
X109240634Y-104034582D01*
X109454789Y-104142534D01*
X109487338Y-104165167D01*
X109620250Y-104261448D01*
X109620250Y-102419550D01*
X109842500Y-102419550D01*
X109842500Y-107467800D01*
G36*
X112558338Y-104018962D02*
G01*
X112756889Y-104112470D01*
X112851664Y-104182976D01*
X112985750Y-104297748D01*
X112985750Y-104152399D01*
X112987982Y-104063630D01*
X113003480Y-104021227D01*
X113045440Y-104008054D01*
X113097706Y-104007050D01*
X113209663Y-104007050D01*
X113200894Y-106221612D01*
X113192125Y-108436175D01*
X113107647Y-108594925D01*
X112965161Y-108801563D01*
X112786415Y-108957471D01*
X112575526Y-109059974D01*
X112336607Y-109106397D01*
X112319000Y-109107474D01*
X112173219Y-109106165D01*
X112038064Y-109089586D01*
X111980734Y-109075216D01*
X111784335Y-108980488D01*
X111609564Y-108838281D01*
X111469668Y-108662432D01*
X111377895Y-108466780D01*
X111368990Y-108436175D01*
X111340800Y-108316633D01*
X111337385Y-108245092D01*
X111362407Y-108209664D01*
X111419527Y-108198463D01*
X111442341Y-108198050D01*
X111514031Y-108204046D01*
X111549925Y-108234410D01*
X111570238Y-108307700D01*
X111572007Y-108317112D01*
X111637038Y-108502878D01*
X111752042Y-108663173D01*
X111905532Y-108788484D01*
X112086018Y-108869299D01*
X112271375Y-108896195D01*
X112465557Y-108869619D01*
X112637279Y-108787160D01*
X112764099Y-108678848D01*
X112838015Y-108596417D01*
X112893633Y-108514944D01*
X112933481Y-108423738D01*
X112960088Y-108312110D01*
X112975983Y-108169369D01*
X112983694Y-107984824D01*
X112985749Y-107747787D01*
X112985750Y-107741729D01*
X112985750Y-107213401D01*
X112852838Y-107309682D01*
X112641143Y-107426984D01*
X112417812Y-107486493D01*
X112191937Y-107490438D01*
X111972613Y-107441049D01*
X111768930Y-107340554D01*
X111589982Y-107191181D01*
X111444862Y-106995161D01*
X111425485Y-106959800D01*
X111405369Y-106920150D01*
X111389224Y-106881369D01*
X111376613Y-106836328D01*
X111367099Y-106777898D01*
X111360247Y-106698952D01*
X111355620Y-106592360D01*
X111352780Y-106450994D01*
X111351292Y-106267727D01*
X111350719Y-106035428D01*
X111350625Y-105746971D01*
X111350625Y-105737425D01*
X111350633Y-105707670D01*
X111556991Y-105707670D01*
X111557617Y-105942136D01*
X111560124Y-106167474D01*
X111564515Y-106373318D01*
X111570794Y-106549301D01*
X111578964Y-106685057D01*
X111589030Y-106770221D01*
X111591756Y-106782080D01*
X111633590Y-106875094D01*
X111704235Y-106981401D01*
X111758267Y-107045298D01*
X111926069Y-107181529D01*
X112113372Y-107257391D01*
X112319196Y-107272623D01*
X112493625Y-107241787D01*
X112615712Y-107183559D01*
X112741632Y-107084300D01*
X112852947Y-106962447D01*
X112931221Y-106836434D01*
X112950237Y-106785175D01*
X112960953Y-106713014D01*
X112969758Y-106587768D01*
X112976654Y-106419824D01*
X112981641Y-106219567D01*
X112984718Y-105997383D01*
X112985885Y-105763659D01*
X112985142Y-105528781D01*
X112982490Y-105303134D01*
X112977928Y-105097106D01*
X112971456Y-104921082D01*
X112963075Y-104785449D01*
X112952784Y-104700592D01*
X112950237Y-104689675D01*
X112877096Y-104535619D01*
X112755628Y-104398699D01*
X112600688Y-104289676D01*
X112427127Y-104219308D01*
X112271375Y-104197904D01*
X112093708Y-104225534D01*
X111921641Y-104301252D01*
X111770026Y-104414299D01*
X111653717Y-104553914D01*
X111592512Y-104689675D01*
X111581934Y-104761224D01*
X111573215Y-104885842D01*
X111566357Y-105053161D01*
X111561364Y-105252816D01*
X111558241Y-105474441D01*
X111556991Y-105707670D01*
X111350633Y-105707670D01*
X111350712Y-105447182D01*
X111351264Y-105213311D01*
X111352719Y-105028683D01*
X111355511Y-104886170D01*
X111360079Y-104778643D01*
X111366859Y-104698974D01*
X111376286Y-104640036D01*
X111388798Y-104594698D01*
X111404831Y-104555833D01*
X111424823Y-104516313D01*
X111425485Y-104515050D01*
X111560141Y-104317508D01*
X111729044Y-104162980D01*
X111922754Y-104053664D01*
X112131832Y-103991757D01*
X112346840Y-103979458D01*
X112558338Y-104018962D01*
X112558338Y-104018962D01*
G37*
X112558338Y-104018962D02*
X112756889Y-104112470D01*
X112851664Y-104182976D01*
X112985750Y-104297748D01*
X112985750Y-104152399D01*
X112987982Y-104063630D01*
X113003480Y-104021227D01*
X113045440Y-104008054D01*
X113097706Y-104007050D01*
X113209663Y-104007050D01*
X113200894Y-106221612D01*
X113192125Y-108436175D01*
X113107647Y-108594925D01*
X112965161Y-108801563D01*
X112786415Y-108957471D01*
X112575526Y-109059974D01*
X112336607Y-109106397D01*
X112319000Y-109107474D01*
X112173219Y-109106165D01*
X112038064Y-109089586D01*
X111980734Y-109075216D01*
X111784335Y-108980488D01*
X111609564Y-108838281D01*
X111469668Y-108662432D01*
X111377895Y-108466780D01*
X111368990Y-108436175D01*
X111340800Y-108316633D01*
X111337385Y-108245092D01*
X111362407Y-108209664D01*
X111419527Y-108198463D01*
X111442341Y-108198050D01*
X111514031Y-108204046D01*
X111549925Y-108234410D01*
X111570238Y-108307700D01*
X111572007Y-108317112D01*
X111637038Y-108502878D01*
X111752042Y-108663173D01*
X111905532Y-108788484D01*
X112086018Y-108869299D01*
X112271375Y-108896195D01*
X112465557Y-108869619D01*
X112637279Y-108787160D01*
X112764099Y-108678848D01*
X112838015Y-108596417D01*
X112893633Y-108514944D01*
X112933481Y-108423738D01*
X112960088Y-108312110D01*
X112975983Y-108169369D01*
X112983694Y-107984824D01*
X112985749Y-107747787D01*
X112985750Y-107741729D01*
X112985750Y-107213401D01*
X112852838Y-107309682D01*
X112641143Y-107426984D01*
X112417812Y-107486493D01*
X112191937Y-107490438D01*
X111972613Y-107441049D01*
X111768930Y-107340554D01*
X111589982Y-107191181D01*
X111444862Y-106995161D01*
X111425485Y-106959800D01*
X111405369Y-106920150D01*
X111389224Y-106881369D01*
X111376613Y-106836328D01*
X111367099Y-106777898D01*
X111360247Y-106698952D01*
X111355620Y-106592360D01*
X111352780Y-106450994D01*
X111351292Y-106267727D01*
X111350719Y-106035428D01*
X111350625Y-105746971D01*
X111350625Y-105737425D01*
X111350633Y-105707670D01*
X111556991Y-105707670D01*
X111557617Y-105942136D01*
X111560124Y-106167474D01*
X111564515Y-106373318D01*
X111570794Y-106549301D01*
X111578964Y-106685057D01*
X111589030Y-106770221D01*
X111591756Y-106782080D01*
X111633590Y-106875094D01*
X111704235Y-106981401D01*
X111758267Y-107045298D01*
X111926069Y-107181529D01*
X112113372Y-107257391D01*
X112319196Y-107272623D01*
X112493625Y-107241787D01*
X112615712Y-107183559D01*
X112741632Y-107084300D01*
X112852947Y-106962447D01*
X112931221Y-106836434D01*
X112950237Y-106785175D01*
X112960953Y-106713014D01*
X112969758Y-106587768D01*
X112976654Y-106419824D01*
X112981641Y-106219567D01*
X112984718Y-105997383D01*
X112985885Y-105763659D01*
X112985142Y-105528781D01*
X112982490Y-105303134D01*
X112977928Y-105097106D01*
X112971456Y-104921082D01*
X112963075Y-104785449D01*
X112952784Y-104700592D01*
X112950237Y-104689675D01*
X112877096Y-104535619D01*
X112755628Y-104398699D01*
X112600688Y-104289676D01*
X112427127Y-104219308D01*
X112271375Y-104197904D01*
X112093708Y-104225534D01*
X111921641Y-104301252D01*
X111770026Y-104414299D01*
X111653717Y-104553914D01*
X111592512Y-104689675D01*
X111581934Y-104761224D01*
X111573215Y-104885842D01*
X111566357Y-105053161D01*
X111561364Y-105252816D01*
X111558241Y-105474441D01*
X111556991Y-105707670D01*
X111350633Y-105707670D01*
X111350712Y-105447182D01*
X111351264Y-105213311D01*
X111352719Y-105028683D01*
X111355511Y-104886170D01*
X111360079Y-104778643D01*
X111366859Y-104698974D01*
X111376286Y-104640036D01*
X111388798Y-104594698D01*
X111404831Y-104555833D01*
X111424823Y-104516313D01*
X111425485Y-104515050D01*
X111560141Y-104317508D01*
X111729044Y-104162980D01*
X111922754Y-104053664D01*
X112131832Y-103991757D01*
X112346840Y-103979458D01*
X112558338Y-104018962D01*
D12*
X147800000Y-173800000D02*
X151650000Y-173800000D01*
X147800000Y-175800000D02*
X151650000Y-175800000D01*
X147800000Y-173800000D02*
X147800000Y-175800000D01*
X161110000Y-138458578D02*
X161110000Y-137941422D01*
X159690000Y-138458578D02*
X159690000Y-137941422D01*
X194287500Y-119700000D02*
X194737500Y-119700000D01*
X194287500Y-119700000D02*
X194287500Y-119250000D01*
X194837500Y-114100000D02*
X194837500Y-114550000D01*
X196687500Y-114100000D02*
X194837500Y-114100000D01*
X199237500Y-121900000D02*
X198987500Y-121900000D01*
X199237500Y-114100000D02*
X198987500Y-114100000D01*
X196687500Y-121900000D02*
X194837500Y-121900000D01*
X194837500Y-121900000D02*
X194837500Y-121450000D01*
X174470000Y-172120000D02*
X164530000Y-172120000D01*
X166130000Y-159880000D02*
X164530000Y-159880000D01*
X168629000Y-159880000D02*
X167870000Y-159880000D01*
X171129000Y-159880000D02*
X170370000Y-159880000D01*
X174470000Y-159880000D02*
X172871000Y-159880000D01*
X164530000Y-168255000D02*
X164530000Y-172120000D01*
X164530000Y-159880000D02*
X164530000Y-163745000D01*
X174470000Y-168255000D02*
X174470000Y-172120000D01*
X174470000Y-159880000D02*
X174470000Y-163745000D01*
X178141600Y-158106000D02*
X179541600Y-158106000D01*
X180241600Y-158806000D02*
X180241600Y-159406000D01*
X179541600Y-160106000D02*
X178141600Y-160106000D01*
X177441600Y-159406000D02*
X177441600Y-158806000D01*
X177441600Y-158806000D02*
G75*
G02X178141600Y-158106000I700000J0D01*
G01*
X178141600Y-160106000D02*
G75*
G02X177441600Y-159406000I0J700000D01*
G01*
X180241600Y-159406000D02*
G75*
G02X179541600Y-160106000I-700000J0D01*
G01*
X179541600Y-158106000D02*
G75*
G02X180241600Y-158806000I0J-700000D01*
G01*
X159853600Y-158614000D02*
X161253600Y-158614000D01*
X161953600Y-159314000D02*
X161953600Y-159914000D01*
X161253600Y-160614000D02*
X159853600Y-160614000D01*
X159153600Y-159914000D02*
X159153600Y-159314000D01*
X159153600Y-159314000D02*
G75*
G02X159853600Y-158614000I700000J0D01*
G01*
X159853600Y-160614000D02*
G75*
G02X159153600Y-159914000I0J700000D01*
G01*
X161953600Y-159914000D02*
G75*
G02X161253600Y-160614000I-700000J0D01*
G01*
X161253600Y-158614000D02*
G75*
G02X161953600Y-159314000I0J-700000D01*
G01*
X139770000Y-138000000D02*
X139770000Y-136670000D01*
X139770000Y-136670000D02*
X141100000Y-136670000D01*
X142370000Y-136670000D02*
X157670000Y-136670000D01*
X157670000Y-139330000D02*
X157670000Y-136670000D01*
X142370000Y-139330000D02*
X157670000Y-139330000D01*
X142370000Y-139330000D02*
X142370000Y-136670000D01*
X164670000Y-106400000D02*
X164670000Y-105070000D01*
X164670000Y-105070000D02*
X166000000Y-105070000D01*
X167270000Y-105070000D02*
X185110000Y-105070000D01*
X185110000Y-107730000D02*
X185110000Y-105070000D01*
X167270000Y-107730000D02*
X185110000Y-107730000D01*
X167270000Y-107730000D02*
X167270000Y-105070000D01*
X151710000Y-122458578D02*
X151710000Y-121941422D01*
X150290000Y-122458578D02*
X150290000Y-121941422D01*
X150290000Y-125341422D02*
X150290000Y-125858578D01*
X151710000Y-125341422D02*
X151710000Y-125858578D01*
X186015000Y-124875000D02*
X186015000Y-124765000D01*
X187175000Y-137635000D02*
X186015000Y-137635000D01*
X186015000Y-137635000D02*
X186015000Y-126375000D01*
X186015000Y-124765000D02*
X187825000Y-124765000D01*
X190425000Y-137635000D02*
X196025000Y-137635000D01*
X189725000Y-124765000D02*
X196025000Y-124765000D01*
X154675000Y-116475000D02*
X153325000Y-116475000D01*
X154675000Y-114725000D02*
X153325000Y-114725000D01*
X187350000Y-107800000D02*
X187350000Y-107500000D01*
X190650000Y-107800000D02*
X187350000Y-107800000D01*
X190650000Y-107500000D02*
X190650000Y-107800000D01*
X187350000Y-105000000D02*
X187350000Y-105300000D01*
X190650000Y-105000000D02*
X187350000Y-105000000D01*
X190650000Y-105300000D02*
X190650000Y-105000000D01*
X150258578Y-105490000D02*
X149741422Y-105490000D01*
X150258578Y-106910000D02*
X149741422Y-106910000D01*
X174941422Y-103910000D02*
X175458578Y-103910000D01*
X174941422Y-102490000D02*
X175458578Y-102490000D01*
X187802064Y-119440000D02*
X186597936Y-119440000D01*
X187802064Y-122160000D02*
X186597936Y-122160000D01*
X157000000Y-162400000D02*
X160850000Y-162400000D01*
X157000000Y-164400000D02*
X160850000Y-164400000D01*
X157000000Y-162400000D02*
X157000000Y-164400000D01*
X171341422Y-118510000D02*
X171858578Y-118510000D01*
X171341422Y-117090000D02*
X171858578Y-117090000D01*
X160490000Y-129741422D02*
X160490000Y-130258578D01*
X161910000Y-129741422D02*
X161910000Y-130258578D01*
X162541422Y-112510000D02*
X163058578Y-112510000D01*
X162541422Y-111090000D02*
X163058578Y-111090000D01*
X151510000Y-115258578D02*
X151510000Y-114741422D01*
X150090000Y-115258578D02*
X150090000Y-114741422D01*
X160710000Y-111258578D02*
X160710000Y-110741422D01*
X159290000Y-111258578D02*
X159290000Y-110741422D01*
X157910000Y-115258578D02*
X157910000Y-114741422D01*
X156490000Y-115258578D02*
X156490000Y-114741422D01*
X150458578Y-118690000D02*
X149941422Y-118690000D01*
X150458578Y-120110000D02*
X149941422Y-120110000D01*
X158390000Y-117440000D02*
X157100000Y-117440000D01*
X158390000Y-116990000D02*
X158390000Y-117440000D01*
X158840000Y-116990000D02*
X158390000Y-116990000D01*
X165610000Y-116990000D02*
X165610000Y-117440000D01*
X165160000Y-116990000D02*
X165610000Y-116990000D01*
X158390000Y-124210000D02*
X158390000Y-123760000D01*
X158840000Y-124210000D02*
X158390000Y-124210000D01*
X165610000Y-124210000D02*
X165610000Y-123760000D01*
X165160000Y-124210000D02*
X165610000Y-124210000D01*
X149710000Y-122458578D02*
X149710000Y-121941422D01*
X148290000Y-122458578D02*
X148290000Y-121941422D01*
X148290000Y-125341422D02*
X148290000Y-125858578D01*
X149710000Y-125341422D02*
X149710000Y-125858578D01*
X116710000Y-160858578D02*
X116710000Y-160341422D01*
X115290000Y-160858578D02*
X115290000Y-160341422D01*
X148515000Y-104935000D02*
X150800000Y-104935000D01*
X148515000Y-103465000D02*
X148515000Y-104935000D01*
X150800000Y-103465000D02*
X148515000Y-103465000D01*
X192500000Y-191750000D02*
X192500000Y-194250000D01*
X193750000Y-193000000D02*
X191250000Y-193000000D01*
X106250000Y-193000000D02*
X108750000Y-193000000D01*
X111360000Y-190440000D02*
X111360000Y-197420000D01*
X111360000Y-197440000D02*
X188640000Y-197440000D01*
X188640000Y-197440000D02*
X188640000Y-190440000D01*
X111360000Y-183560000D02*
X111360000Y-176560000D01*
X111360000Y-176560000D02*
X188640000Y-176560000D01*
X188640000Y-176560000D02*
X188640000Y-183560000D01*
X188640000Y-190440000D02*
X193000000Y-190440000D01*
X141940000Y-169508578D02*
X141940000Y-168991422D01*
X143360000Y-169508578D02*
X143360000Y-168991422D01*
X145391422Y-166760000D02*
X145908578Y-166760000D01*
X145391422Y-165340000D02*
X145908578Y-165340000D01*
X157290000Y-168758578D02*
X157290000Y-168241422D01*
X158710000Y-168758578D02*
X158710000Y-168241422D01*
X157390000Y-172441422D02*
X157390000Y-172958578D01*
X158810000Y-172441422D02*
X158810000Y-172958578D01*
X153515000Y-168660000D02*
X156200000Y-168660000D01*
X153515000Y-166740000D02*
X153515000Y-168660000D01*
X156200000Y-166740000D02*
X153515000Y-166740000D01*
X153010000Y-170958578D02*
X153010000Y-170441422D01*
X151590000Y-170958578D02*
X151590000Y-170441422D01*
X155458578Y-166310000D02*
X154941422Y-166310000D01*
X155458578Y-164890000D02*
X154941422Y-164890000D01*
X147260000Y-170050000D02*
X147260000Y-168250000D01*
X144040000Y-168250000D02*
X144040000Y-170700000D01*
X156810000Y-171600000D02*
X156810000Y-169800000D01*
X153590000Y-169800000D02*
X153590000Y-172250000D01*
X107009800Y-124311000D02*
X107009800Y-133131000D01*
X107009800Y-133131000D02*
X106699800Y-133131000D01*
X102489800Y-133131000D02*
X102489800Y-124311000D01*
X106699800Y-124311000D02*
X107009800Y-124311000D01*
X102489800Y-124311000D02*
X102799800Y-124311000D01*
X102489800Y-133131000D02*
X102799800Y-133131000D01*
X107709800Y-126221000D02*
X107209800Y-126721000D01*
X107209800Y-126721000D02*
X107709800Y-127221000D01*
X107709800Y-127221000D02*
X107709800Y-126221000D01*
X133681600Y-165612978D02*
X133681600Y-165095822D01*
X135101600Y-165612978D02*
X135101600Y-165095822D01*
X123951800Y-169147400D02*
X123951800Y-169597400D01*
X123951800Y-169597400D02*
X130251800Y-169597400D01*
X130251800Y-169597400D02*
X130251800Y-169197400D01*
X123951800Y-167847400D02*
X123951800Y-165147400D01*
X130251800Y-165147400D02*
X130251800Y-167847400D01*
X123951800Y-163397400D02*
X130251800Y-163397400D01*
X130251800Y-163397400D02*
X130251800Y-163847400D01*
X123951800Y-163847400D02*
X123951800Y-163397400D01*
D13*
X149134904Y-173347380D02*
X149134904Y-172347380D01*
X149373000Y-172347380D01*
X149515857Y-172395000D01*
X149611095Y-172490238D01*
X149658714Y-172585476D01*
X149706333Y-172775952D01*
X149706333Y-172918809D01*
X149658714Y-173109285D01*
X149611095Y-173204523D01*
X149515857Y-173299761D01*
X149373000Y-173347380D01*
X149134904Y-173347380D01*
X150039666Y-172347380D02*
X150658714Y-172347380D01*
X150325380Y-172728333D01*
X150468238Y-172728333D01*
X150563476Y-172775952D01*
X150611095Y-172823571D01*
X150658714Y-172918809D01*
X150658714Y-173156904D01*
X150611095Y-173252142D01*
X150563476Y-173299761D01*
X150468238Y-173347380D01*
X150182523Y-173347380D01*
X150087285Y-173299761D01*
X150039666Y-173252142D01*
X159202380Y-138366666D02*
X158726190Y-138700000D01*
X159202380Y-138938095D02*
X158202380Y-138938095D01*
X158202380Y-138557142D01*
X158250000Y-138461904D01*
X158297619Y-138414285D01*
X158392857Y-138366666D01*
X158535714Y-138366666D01*
X158630952Y-138414285D01*
X158678571Y-138461904D01*
X158726190Y-138557142D01*
X158726190Y-138938095D01*
X159202380Y-137414285D02*
X159202380Y-137985714D01*
X159202380Y-137700000D02*
X158202380Y-137700000D01*
X158345238Y-137795238D01*
X158440476Y-137890476D01*
X158488095Y-137985714D01*
X193939880Y-118738095D02*
X192939880Y-118738095D01*
X192939880Y-118357142D01*
X192987500Y-118261904D01*
X193035119Y-118214285D01*
X193130357Y-118166666D01*
X193273214Y-118166666D01*
X193368452Y-118214285D01*
X193416071Y-118261904D01*
X193463690Y-118357142D01*
X193463690Y-118738095D01*
X193939880Y-117214285D02*
X193939880Y-117785714D01*
X193939880Y-117500000D02*
X192939880Y-117500000D01*
X193082738Y-117595238D01*
X193177976Y-117690476D01*
X193225595Y-117785714D01*
X177602380Y-165645238D02*
X177126190Y-165978571D01*
X177602380Y-166216666D02*
X176602380Y-166216666D01*
X176602380Y-165835714D01*
X176650000Y-165740476D01*
X176697619Y-165692857D01*
X176792857Y-165645238D01*
X176935714Y-165645238D01*
X177030952Y-165692857D01*
X177078571Y-165740476D01*
X177126190Y-165835714D01*
X177126190Y-166216666D01*
X176602380Y-165359523D02*
X177602380Y-165026190D01*
X176602380Y-164692857D01*
X177602380Y-163835714D02*
X177602380Y-164407142D01*
X177602380Y-164121428D02*
X176602380Y-164121428D01*
X176745238Y-164216666D01*
X176840476Y-164311904D01*
X176888095Y-164407142D01*
X178008266Y-156758380D02*
X178008266Y-157472666D01*
X177960647Y-157615523D01*
X177865409Y-157710761D01*
X177722552Y-157758380D01*
X177627314Y-157758380D01*
X178484457Y-157758380D02*
X178484457Y-156758380D01*
X178865409Y-156758380D01*
X178960647Y-156806000D01*
X179008266Y-156853619D01*
X179055885Y-156948857D01*
X179055885Y-157091714D01*
X179008266Y-157186952D01*
X178960647Y-157234571D01*
X178865409Y-157282190D01*
X178484457Y-157282190D01*
X179389219Y-156758380D02*
X180008266Y-156758380D01*
X179674933Y-157139333D01*
X179817790Y-157139333D01*
X179913028Y-157186952D01*
X179960647Y-157234571D01*
X180008266Y-157329809D01*
X180008266Y-157567904D01*
X179960647Y-157663142D01*
X179913028Y-157710761D01*
X179817790Y-157758380D01*
X179532076Y-157758380D01*
X179436838Y-157710761D01*
X179389219Y-157663142D01*
X159720266Y-157266380D02*
X159720266Y-157980666D01*
X159672647Y-158123523D01*
X159577409Y-158218761D01*
X159434552Y-158266380D01*
X159339314Y-158266380D01*
X160196457Y-158266380D02*
X160196457Y-157266380D01*
X160577409Y-157266380D01*
X160672647Y-157314000D01*
X160720266Y-157361619D01*
X160767885Y-157456857D01*
X160767885Y-157599714D01*
X160720266Y-157694952D01*
X160672647Y-157742571D01*
X160577409Y-157790190D01*
X160196457Y-157790190D01*
X161720266Y-158266380D02*
X161148838Y-158266380D01*
X161434552Y-158266380D02*
X161434552Y-157266380D01*
X161339314Y-157409238D01*
X161244076Y-157504476D01*
X161148838Y-157552095D01*
X138782380Y-138738095D02*
X137782380Y-138738095D01*
X137782380Y-138357142D01*
X137830000Y-138261904D01*
X137877619Y-138214285D01*
X137972857Y-138166666D01*
X138115714Y-138166666D01*
X138210952Y-138214285D01*
X138258571Y-138261904D01*
X138306190Y-138357142D01*
X138306190Y-138738095D01*
X137877619Y-137785714D02*
X137830000Y-137738095D01*
X137782380Y-137642857D01*
X137782380Y-137404761D01*
X137830000Y-137309523D01*
X137877619Y-137261904D01*
X137972857Y-137214285D01*
X138068095Y-137214285D01*
X138210952Y-137261904D01*
X138782380Y-137833333D01*
X138782380Y-137214285D01*
X162682380Y-107209523D02*
X163396666Y-107209523D01*
X163539523Y-107257142D01*
X163634761Y-107352380D01*
X163682380Y-107495238D01*
X163682380Y-107590476D01*
X163682380Y-106209523D02*
X163682380Y-106780952D01*
X163682380Y-106495238D02*
X162682380Y-106495238D01*
X162825238Y-106590476D01*
X162920476Y-106685714D01*
X162968095Y-106780952D01*
X163682380Y-105257142D02*
X163682380Y-105828571D01*
X163682380Y-105542857D02*
X162682380Y-105542857D01*
X162825238Y-105638095D01*
X162920476Y-105733333D01*
X162968095Y-105828571D01*
X153157142Y-122566666D02*
X153204761Y-122614285D01*
X153252380Y-122757142D01*
X153252380Y-122852380D01*
X153204761Y-122995238D01*
X153109523Y-123090476D01*
X153014285Y-123138095D01*
X152823809Y-123185714D01*
X152680952Y-123185714D01*
X152490476Y-123138095D01*
X152395238Y-123090476D01*
X152300000Y-122995238D01*
X152252380Y-122852380D01*
X152252380Y-122757142D01*
X152300000Y-122614285D01*
X152347619Y-122566666D01*
X152252380Y-122233333D02*
X152252380Y-121566666D01*
X153252380Y-121995238D01*
X150833333Y-128357142D02*
X150785714Y-128404761D01*
X150642857Y-128452380D01*
X150547619Y-128452380D01*
X150404761Y-128404761D01*
X150309523Y-128309523D01*
X150261904Y-128214285D01*
X150214285Y-128023809D01*
X150214285Y-127880952D01*
X150261904Y-127690476D01*
X150309523Y-127595238D01*
X150404761Y-127500000D01*
X150547619Y-127452380D01*
X150642857Y-127452380D01*
X150785714Y-127500000D01*
X150833333Y-127547619D01*
X151690476Y-127452380D02*
X151500000Y-127452380D01*
X151404761Y-127500000D01*
X151357142Y-127547619D01*
X151261904Y-127690476D01*
X151214285Y-127880952D01*
X151214285Y-128261904D01*
X151261904Y-128357142D01*
X151309523Y-128404761D01*
X151404761Y-128452380D01*
X151595238Y-128452380D01*
X151690476Y-128404761D01*
X151738095Y-128357142D01*
X151785714Y-128261904D01*
X151785714Y-128023809D01*
X151738095Y-127928571D01*
X151690476Y-127880952D01*
X151595238Y-127833333D01*
X151404761Y-127833333D01*
X151309523Y-127880952D01*
X151261904Y-127928571D01*
X151214285Y-128023809D01*
X183627380Y-131558333D02*
X184341666Y-131558333D01*
X184484523Y-131605952D01*
X184579761Y-131701190D01*
X184627380Y-131844047D01*
X184627380Y-131939285D01*
X183960714Y-130653571D02*
X184627380Y-130653571D01*
X183579761Y-130891666D02*
X184294047Y-131129761D01*
X184294047Y-130510714D01*
X153523809Y-113976190D02*
X153523809Y-114452380D01*
X153190476Y-113452380D02*
X153523809Y-113976190D01*
X153857142Y-113452380D01*
X154714285Y-114452380D02*
X154142857Y-114452380D01*
X154428571Y-114452380D02*
X154428571Y-113452380D01*
X154333333Y-113595238D01*
X154238095Y-113690476D01*
X154142857Y-113738095D01*
X187976190Y-109352380D02*
X187642857Y-108876190D01*
X187404761Y-109352380D02*
X187404761Y-108352380D01*
X187785714Y-108352380D01*
X187880952Y-108400000D01*
X187928571Y-108447619D01*
X187976190Y-108542857D01*
X187976190Y-108685714D01*
X187928571Y-108780952D01*
X187880952Y-108828571D01*
X187785714Y-108876190D01*
X187404761Y-108876190D01*
X188357142Y-109304761D02*
X188500000Y-109352380D01*
X188738095Y-109352380D01*
X188833333Y-109304761D01*
X188880952Y-109257142D01*
X188928571Y-109161904D01*
X188928571Y-109066666D01*
X188880952Y-108971428D01*
X188833333Y-108923809D01*
X188738095Y-108876190D01*
X188547619Y-108828571D01*
X188452380Y-108780952D01*
X188404761Y-108733333D01*
X188357142Y-108638095D01*
X188357142Y-108542857D01*
X188404761Y-108447619D01*
X188452380Y-108400000D01*
X188547619Y-108352380D01*
X188785714Y-108352380D01*
X188928571Y-108400000D01*
X189214285Y-108352380D02*
X189785714Y-108352380D01*
X189500000Y-109352380D02*
X189500000Y-108352380D01*
X190642857Y-109352380D02*
X190071428Y-109352380D01*
X190357142Y-109352380D02*
X190357142Y-108352380D01*
X190261904Y-108495238D01*
X190166666Y-108590476D01*
X190071428Y-108638095D01*
X149833333Y-108302380D02*
X149500000Y-107826190D01*
X149261904Y-108302380D02*
X149261904Y-107302380D01*
X149642857Y-107302380D01*
X149738095Y-107350000D01*
X149785714Y-107397619D01*
X149833333Y-107492857D01*
X149833333Y-107635714D01*
X149785714Y-107730952D01*
X149738095Y-107778571D01*
X149642857Y-107826190D01*
X149261904Y-107826190D01*
X150166666Y-107302380D02*
X150833333Y-107302380D01*
X150404761Y-108302380D01*
X175033333Y-102002380D02*
X174700000Y-101526190D01*
X174461904Y-102002380D02*
X174461904Y-101002380D01*
X174842857Y-101002380D01*
X174938095Y-101050000D01*
X174985714Y-101097619D01*
X175033333Y-101192857D01*
X175033333Y-101335714D01*
X174985714Y-101430952D01*
X174938095Y-101478571D01*
X174842857Y-101526190D01*
X174461904Y-101526190D01*
X175366666Y-101002380D02*
X175985714Y-101002380D01*
X175652380Y-101383333D01*
X175795238Y-101383333D01*
X175890476Y-101430952D01*
X175938095Y-101478571D01*
X175985714Y-101573809D01*
X175985714Y-101811904D01*
X175938095Y-101907142D01*
X175890476Y-101954761D01*
X175795238Y-102002380D01*
X175509523Y-102002380D01*
X175414285Y-101954761D01*
X175366666Y-101907142D01*
X186866666Y-123008571D02*
X186533333Y-123008571D01*
X186533333Y-123532380D02*
X186533333Y-122532380D01*
X187009523Y-122532380D01*
X187914285Y-123532380D02*
X187342857Y-123532380D01*
X187628571Y-123532380D02*
X187628571Y-122532380D01*
X187533333Y-122675238D01*
X187438095Y-122770476D01*
X187342857Y-122818095D01*
X158334904Y-161947380D02*
X158334904Y-160947380D01*
X158573000Y-160947380D01*
X158715857Y-160995000D01*
X158811095Y-161090238D01*
X158858714Y-161185476D01*
X158906333Y-161375952D01*
X158906333Y-161518809D01*
X158858714Y-161709285D01*
X158811095Y-161804523D01*
X158715857Y-161899761D01*
X158573000Y-161947380D01*
X158334904Y-161947380D01*
X159287285Y-161042619D02*
X159334904Y-160995000D01*
X159430142Y-160947380D01*
X159668238Y-160947380D01*
X159763476Y-160995000D01*
X159811095Y-161042619D01*
X159858714Y-161137857D01*
X159858714Y-161233095D01*
X159811095Y-161375952D01*
X159239666Y-161947380D01*
X159858714Y-161947380D01*
X170957142Y-116507142D02*
X170909523Y-116554761D01*
X170766666Y-116602380D01*
X170671428Y-116602380D01*
X170528571Y-116554761D01*
X170433333Y-116459523D01*
X170385714Y-116364285D01*
X170338095Y-116173809D01*
X170338095Y-116030952D01*
X170385714Y-115840476D01*
X170433333Y-115745238D01*
X170528571Y-115650000D01*
X170671428Y-115602380D01*
X170766666Y-115602380D01*
X170909523Y-115650000D01*
X170957142Y-115697619D01*
X171909523Y-116602380D02*
X171338095Y-116602380D01*
X171623809Y-116602380D02*
X171623809Y-115602380D01*
X171528571Y-115745238D01*
X171433333Y-115840476D01*
X171338095Y-115888095D01*
X172290476Y-115697619D02*
X172338095Y-115650000D01*
X172433333Y-115602380D01*
X172671428Y-115602380D01*
X172766666Y-115650000D01*
X172814285Y-115697619D01*
X172861904Y-115792857D01*
X172861904Y-115888095D01*
X172814285Y-116030952D01*
X172242857Y-116602380D01*
X172861904Y-116602380D01*
X163207142Y-130642857D02*
X163254761Y-130690476D01*
X163302380Y-130833333D01*
X163302380Y-130928571D01*
X163254761Y-131071428D01*
X163159523Y-131166666D01*
X163064285Y-131214285D01*
X162873809Y-131261904D01*
X162730952Y-131261904D01*
X162540476Y-131214285D01*
X162445238Y-131166666D01*
X162350000Y-131071428D01*
X162302380Y-130928571D01*
X162302380Y-130833333D01*
X162350000Y-130690476D01*
X162397619Y-130642857D01*
X163302380Y-129690476D02*
X163302380Y-130261904D01*
X163302380Y-129976190D02*
X162302380Y-129976190D01*
X162445238Y-130071428D01*
X162540476Y-130166666D01*
X162588095Y-130261904D01*
X163302380Y-128738095D02*
X163302380Y-129309523D01*
X163302380Y-129023809D02*
X162302380Y-129023809D01*
X162445238Y-129119047D01*
X162540476Y-129214285D01*
X162588095Y-129309523D01*
X162633333Y-110507142D02*
X162585714Y-110554761D01*
X162442857Y-110602380D01*
X162347619Y-110602380D01*
X162204761Y-110554761D01*
X162109523Y-110459523D01*
X162061904Y-110364285D01*
X162014285Y-110173809D01*
X162014285Y-110030952D01*
X162061904Y-109840476D01*
X162109523Y-109745238D01*
X162204761Y-109650000D01*
X162347619Y-109602380D01*
X162442857Y-109602380D01*
X162585714Y-109650000D01*
X162633333Y-109697619D01*
X163538095Y-109602380D02*
X163061904Y-109602380D01*
X163014285Y-110078571D01*
X163061904Y-110030952D01*
X163157142Y-109983333D01*
X163395238Y-109983333D01*
X163490476Y-110030952D01*
X163538095Y-110078571D01*
X163585714Y-110173809D01*
X163585714Y-110411904D01*
X163538095Y-110507142D01*
X163490476Y-110554761D01*
X163395238Y-110602380D01*
X163157142Y-110602380D01*
X163061904Y-110554761D01*
X163014285Y-110507142D01*
X150633333Y-113157142D02*
X150585714Y-113204761D01*
X150442857Y-113252380D01*
X150347619Y-113252380D01*
X150204761Y-113204761D01*
X150109523Y-113109523D01*
X150061904Y-113014285D01*
X150014285Y-112823809D01*
X150014285Y-112680952D01*
X150061904Y-112490476D01*
X150109523Y-112395238D01*
X150204761Y-112300000D01*
X150347619Y-112252380D01*
X150442857Y-112252380D01*
X150585714Y-112300000D01*
X150633333Y-112347619D01*
X151490476Y-112585714D02*
X151490476Y-113252380D01*
X151252380Y-112204761D02*
X151014285Y-112919047D01*
X151633333Y-112919047D01*
X159833333Y-108957142D02*
X159785714Y-109004761D01*
X159642857Y-109052380D01*
X159547619Y-109052380D01*
X159404761Y-109004761D01*
X159309523Y-108909523D01*
X159261904Y-108814285D01*
X159214285Y-108623809D01*
X159214285Y-108480952D01*
X159261904Y-108290476D01*
X159309523Y-108195238D01*
X159404761Y-108100000D01*
X159547619Y-108052380D01*
X159642857Y-108052380D01*
X159785714Y-108100000D01*
X159833333Y-108147619D01*
X160166666Y-108052380D02*
X160785714Y-108052380D01*
X160452380Y-108433333D01*
X160595238Y-108433333D01*
X160690476Y-108480952D01*
X160738095Y-108528571D01*
X160785714Y-108623809D01*
X160785714Y-108861904D01*
X160738095Y-108957142D01*
X160690476Y-109004761D01*
X160595238Y-109052380D01*
X160309523Y-109052380D01*
X160214285Y-109004761D01*
X160166666Y-108957142D01*
X157033333Y-112957142D02*
X156985714Y-113004761D01*
X156842857Y-113052380D01*
X156747619Y-113052380D01*
X156604761Y-113004761D01*
X156509523Y-112909523D01*
X156461904Y-112814285D01*
X156414285Y-112623809D01*
X156414285Y-112480952D01*
X156461904Y-112290476D01*
X156509523Y-112195238D01*
X156604761Y-112100000D01*
X156747619Y-112052380D01*
X156842857Y-112052380D01*
X156985714Y-112100000D01*
X157033333Y-112147619D01*
X157414285Y-112147619D02*
X157461904Y-112100000D01*
X157557142Y-112052380D01*
X157795238Y-112052380D01*
X157890476Y-112100000D01*
X157938095Y-112147619D01*
X157985714Y-112242857D01*
X157985714Y-112338095D01*
X157938095Y-112480952D01*
X157366666Y-113052380D01*
X157985714Y-113052380D01*
X148357142Y-119566666D02*
X148404761Y-119614285D01*
X148452380Y-119757142D01*
X148452380Y-119852380D01*
X148404761Y-119995238D01*
X148309523Y-120090476D01*
X148214285Y-120138095D01*
X148023809Y-120185714D01*
X147880952Y-120185714D01*
X147690476Y-120138095D01*
X147595238Y-120090476D01*
X147500000Y-119995238D01*
X147452380Y-119852380D01*
X147452380Y-119757142D01*
X147500000Y-119614285D01*
X147547619Y-119566666D01*
X148452380Y-118614285D02*
X148452380Y-119185714D01*
X148452380Y-118900000D02*
X147452380Y-118900000D01*
X147595238Y-118995238D01*
X147690476Y-119090476D01*
X147738095Y-119185714D01*
X161238095Y-114202380D02*
X161238095Y-115011904D01*
X161285714Y-115107142D01*
X161333333Y-115154761D01*
X161428571Y-115202380D01*
X161619047Y-115202380D01*
X161714285Y-115154761D01*
X161761904Y-115107142D01*
X161809523Y-115011904D01*
X161809523Y-114202380D01*
X162809523Y-115202380D02*
X162238095Y-115202380D01*
X162523809Y-115202380D02*
X162523809Y-114202380D01*
X162428571Y-114345238D01*
X162333333Y-114440476D01*
X162238095Y-114488095D01*
X147802380Y-122366666D02*
X147326190Y-122700000D01*
X147802380Y-122938095D02*
X146802380Y-122938095D01*
X146802380Y-122557142D01*
X146850000Y-122461904D01*
X146897619Y-122414285D01*
X146992857Y-122366666D01*
X147135714Y-122366666D01*
X147230952Y-122414285D01*
X147278571Y-122461904D01*
X147326190Y-122557142D01*
X147326190Y-122938095D01*
X147230952Y-121795238D02*
X147183333Y-121890476D01*
X147135714Y-121938095D01*
X147040476Y-121985714D01*
X146992857Y-121985714D01*
X146897619Y-121938095D01*
X146850000Y-121890476D01*
X146802380Y-121795238D01*
X146802380Y-121604761D01*
X146850000Y-121509523D01*
X146897619Y-121461904D01*
X146992857Y-121414285D01*
X147040476Y-121414285D01*
X147135714Y-121461904D01*
X147183333Y-121509523D01*
X147230952Y-121604761D01*
X147230952Y-121795238D01*
X147278571Y-121890476D01*
X147326190Y-121938095D01*
X147421428Y-121985714D01*
X147611904Y-121985714D01*
X147707142Y-121938095D01*
X147754761Y-121890476D01*
X147802380Y-121795238D01*
X147802380Y-121604761D01*
X147754761Y-121509523D01*
X147707142Y-121461904D01*
X147611904Y-121414285D01*
X147421428Y-121414285D01*
X147326190Y-121461904D01*
X147278571Y-121509523D01*
X147230952Y-121604761D01*
X148833333Y-128452380D02*
X148500000Y-127976190D01*
X148261904Y-128452380D02*
X148261904Y-127452380D01*
X148642857Y-127452380D01*
X148738095Y-127500000D01*
X148785714Y-127547619D01*
X148833333Y-127642857D01*
X148833333Y-127785714D01*
X148785714Y-127880952D01*
X148738095Y-127928571D01*
X148642857Y-127976190D01*
X148261904Y-127976190D01*
X149690476Y-127785714D02*
X149690476Y-128452380D01*
X149452380Y-127404761D02*
X149214285Y-128119047D01*
X149833333Y-128119047D01*
X114802380Y-160766666D02*
X114326190Y-161100000D01*
X114802380Y-161338095D02*
X113802380Y-161338095D01*
X113802380Y-160957142D01*
X113850000Y-160861904D01*
X113897619Y-160814285D01*
X113992857Y-160766666D01*
X114135714Y-160766666D01*
X114230952Y-160814285D01*
X114278571Y-160861904D01*
X114326190Y-160957142D01*
X114326190Y-161338095D01*
X113897619Y-160385714D02*
X113850000Y-160338095D01*
X113802380Y-160242857D01*
X113802380Y-160004761D01*
X113850000Y-159909523D01*
X113897619Y-159861904D01*
X113992857Y-159814285D01*
X114088095Y-159814285D01*
X114230952Y-159861904D01*
X114802380Y-160433333D01*
X114802380Y-159814285D01*
X149261904Y-103222380D02*
X149261904Y-102222380D01*
X149500000Y-102222380D01*
X149642857Y-102270000D01*
X149738095Y-102365238D01*
X149785714Y-102460476D01*
X149833333Y-102650952D01*
X149833333Y-102793809D01*
X149785714Y-102984285D01*
X149738095Y-103079523D01*
X149642857Y-103174761D01*
X149500000Y-103222380D01*
X149261904Y-103222380D01*
X150785714Y-103222380D02*
X150214285Y-103222380D01*
X150500000Y-103222380D02*
X150500000Y-102222380D01*
X150404761Y-102365238D01*
X150309523Y-102460476D01*
X150214285Y-102508095D01*
X149214285Y-198428571D02*
X149357142Y-198476190D01*
X149404761Y-198523809D01*
X149452380Y-198619047D01*
X149452380Y-198761904D01*
X149404761Y-198857142D01*
X149357142Y-198904761D01*
X149261904Y-198952380D01*
X148880952Y-198952380D01*
X148880952Y-197952380D01*
X149214285Y-197952380D01*
X149309523Y-198000000D01*
X149357142Y-198047619D01*
X149404761Y-198142857D01*
X149404761Y-198238095D01*
X149357142Y-198333333D01*
X149309523Y-198380952D01*
X149214285Y-198428571D01*
X148880952Y-198428571D01*
X149738095Y-197952380D02*
X150309523Y-197952380D01*
X150023809Y-198952380D02*
X150023809Y-197952380D01*
X151166666Y-198952380D02*
X150595238Y-198952380D01*
X150880952Y-198952380D02*
X150880952Y-197952380D01*
X150785714Y-198095238D01*
X150690476Y-198190476D01*
X150595238Y-198238095D01*
X141357142Y-169716666D02*
X141404761Y-169764285D01*
X141452380Y-169907142D01*
X141452380Y-170002380D01*
X141404761Y-170145238D01*
X141309523Y-170240476D01*
X141214285Y-170288095D01*
X141023809Y-170335714D01*
X140880952Y-170335714D01*
X140690476Y-170288095D01*
X140595238Y-170240476D01*
X140500000Y-170145238D01*
X140452380Y-170002380D01*
X140452380Y-169907142D01*
X140500000Y-169764285D01*
X140547619Y-169716666D01*
X140880952Y-169145238D02*
X140833333Y-169240476D01*
X140785714Y-169288095D01*
X140690476Y-169335714D01*
X140642857Y-169335714D01*
X140547619Y-169288095D01*
X140500000Y-169240476D01*
X140452380Y-169145238D01*
X140452380Y-168954761D01*
X140500000Y-168859523D01*
X140547619Y-168811904D01*
X140642857Y-168764285D01*
X140690476Y-168764285D01*
X140785714Y-168811904D01*
X140833333Y-168859523D01*
X140880952Y-168954761D01*
X140880952Y-169145238D01*
X140928571Y-169240476D01*
X140976190Y-169288095D01*
X141071428Y-169335714D01*
X141261904Y-169335714D01*
X141357142Y-169288095D01*
X141404761Y-169240476D01*
X141452380Y-169145238D01*
X141452380Y-168954761D01*
X141404761Y-168859523D01*
X141357142Y-168811904D01*
X141261904Y-168764285D01*
X141071428Y-168764285D01*
X140976190Y-168811904D01*
X140928571Y-168859523D01*
X140880952Y-168954761D01*
X145483333Y-164757142D02*
X145435714Y-164804761D01*
X145292857Y-164852380D01*
X145197619Y-164852380D01*
X145054761Y-164804761D01*
X144959523Y-164709523D01*
X144911904Y-164614285D01*
X144864285Y-164423809D01*
X144864285Y-164280952D01*
X144911904Y-164090476D01*
X144959523Y-163995238D01*
X145054761Y-163900000D01*
X145197619Y-163852380D01*
X145292857Y-163852380D01*
X145435714Y-163900000D01*
X145483333Y-163947619D01*
X145959523Y-164852380D02*
X146150000Y-164852380D01*
X146245238Y-164804761D01*
X146292857Y-164757142D01*
X146388095Y-164614285D01*
X146435714Y-164423809D01*
X146435714Y-164042857D01*
X146388095Y-163947619D01*
X146340476Y-163900000D01*
X146245238Y-163852380D01*
X146054761Y-163852380D01*
X145959523Y-163900000D01*
X145911904Y-163947619D01*
X145864285Y-164042857D01*
X145864285Y-164280952D01*
X145911904Y-164376190D01*
X145959523Y-164423809D01*
X146054761Y-164471428D01*
X146245238Y-164471428D01*
X146340476Y-164423809D01*
X146388095Y-164376190D01*
X146435714Y-164280952D01*
X160057142Y-169142857D02*
X160104761Y-169190476D01*
X160152380Y-169333333D01*
X160152380Y-169428571D01*
X160104761Y-169571428D01*
X160009523Y-169666666D01*
X159914285Y-169714285D01*
X159723809Y-169761904D01*
X159580952Y-169761904D01*
X159390476Y-169714285D01*
X159295238Y-169666666D01*
X159200000Y-169571428D01*
X159152380Y-169428571D01*
X159152380Y-169333333D01*
X159200000Y-169190476D01*
X159247619Y-169142857D01*
X160152380Y-168190476D02*
X160152380Y-168761904D01*
X160152380Y-168476190D02*
X159152380Y-168476190D01*
X159295238Y-168571428D01*
X159390476Y-168666666D01*
X159438095Y-168761904D01*
X159485714Y-167333333D02*
X160152380Y-167333333D01*
X159104761Y-167571428D02*
X159819047Y-167809523D01*
X159819047Y-167190476D01*
X160107142Y-173342857D02*
X160154761Y-173390476D01*
X160202380Y-173533333D01*
X160202380Y-173628571D01*
X160154761Y-173771428D01*
X160059523Y-173866666D01*
X159964285Y-173914285D01*
X159773809Y-173961904D01*
X159630952Y-173961904D01*
X159440476Y-173914285D01*
X159345238Y-173866666D01*
X159250000Y-173771428D01*
X159202380Y-173628571D01*
X159202380Y-173533333D01*
X159250000Y-173390476D01*
X159297619Y-173342857D01*
X160202380Y-172390476D02*
X160202380Y-172961904D01*
X160202380Y-172676190D02*
X159202380Y-172676190D01*
X159345238Y-172771428D01*
X159440476Y-172866666D01*
X159488095Y-172961904D01*
X159202380Y-171485714D02*
X159202380Y-171961904D01*
X159678571Y-172009523D01*
X159630952Y-171961904D01*
X159583333Y-171866666D01*
X159583333Y-171628571D01*
X159630952Y-171533333D01*
X159678571Y-171485714D01*
X159773809Y-171438095D01*
X160011904Y-171438095D01*
X160107142Y-171485714D01*
X160154761Y-171533333D01*
X160202380Y-171628571D01*
X160202380Y-171866666D01*
X160154761Y-171961904D01*
X160107142Y-172009523D01*
X153252380Y-168438095D02*
X152252380Y-168438095D01*
X152252380Y-168200000D01*
X152300000Y-168057142D01*
X152395238Y-167961904D01*
X152490476Y-167914285D01*
X152680952Y-167866666D01*
X152823809Y-167866666D01*
X153014285Y-167914285D01*
X153109523Y-167961904D01*
X153204761Y-168057142D01*
X153252380Y-168200000D01*
X153252380Y-168438095D01*
X152252380Y-167009523D02*
X152252380Y-167200000D01*
X152300000Y-167295238D01*
X152347619Y-167342857D01*
X152490476Y-167438095D01*
X152680952Y-167485714D01*
X153061904Y-167485714D01*
X153157142Y-167438095D01*
X153204761Y-167390476D01*
X153252380Y-167295238D01*
X153252380Y-167104761D01*
X153204761Y-167009523D01*
X153157142Y-166961904D01*
X153061904Y-166914285D01*
X152823809Y-166914285D01*
X152728571Y-166961904D01*
X152680952Y-167009523D01*
X152633333Y-167104761D01*
X152633333Y-167295238D01*
X152680952Y-167390476D01*
X152728571Y-167438095D01*
X152823809Y-167485714D01*
X151152380Y-171342857D02*
X150676190Y-171676190D01*
X151152380Y-171914285D02*
X150152380Y-171914285D01*
X150152380Y-171533333D01*
X150200000Y-171438095D01*
X150247619Y-171390476D01*
X150342857Y-171342857D01*
X150485714Y-171342857D01*
X150580952Y-171390476D01*
X150628571Y-171438095D01*
X150676190Y-171533333D01*
X150676190Y-171914285D01*
X150247619Y-170961904D02*
X150200000Y-170914285D01*
X150152380Y-170819047D01*
X150152380Y-170580952D01*
X150200000Y-170485714D01*
X150247619Y-170438095D01*
X150342857Y-170390476D01*
X150438095Y-170390476D01*
X150580952Y-170438095D01*
X151152380Y-171009523D01*
X151152380Y-170390476D01*
X151152380Y-169438095D02*
X151152380Y-170009523D01*
X151152380Y-169723809D02*
X150152380Y-169723809D01*
X150295238Y-169819047D01*
X150390476Y-169914285D01*
X150438095Y-170009523D01*
X153267142Y-164442380D02*
X152933809Y-163966190D01*
X152695714Y-164442380D02*
X152695714Y-163442380D01*
X153076666Y-163442380D01*
X153171904Y-163490000D01*
X153219523Y-163537619D01*
X153267142Y-163632857D01*
X153267142Y-163775714D01*
X153219523Y-163870952D01*
X153171904Y-163918571D01*
X153076666Y-163966190D01*
X152695714Y-163966190D01*
X153648095Y-163537619D02*
X153695714Y-163490000D01*
X153790952Y-163442380D01*
X154029047Y-163442380D01*
X154124285Y-163490000D01*
X154171904Y-163537619D01*
X154219523Y-163632857D01*
X154219523Y-163728095D01*
X154171904Y-163870952D01*
X153600476Y-164442380D01*
X154219523Y-164442380D01*
X154600476Y-163537619D02*
X154648095Y-163490000D01*
X154743333Y-163442380D01*
X154981428Y-163442380D01*
X155076666Y-163490000D01*
X155124285Y-163537619D01*
X155171904Y-163632857D01*
X155171904Y-163728095D01*
X155124285Y-163870952D01*
X154552857Y-164442380D01*
X155171904Y-164442380D01*
X147852380Y-168861904D02*
X148661904Y-168861904D01*
X148757142Y-168814285D01*
X148804761Y-168766666D01*
X148852380Y-168671428D01*
X148852380Y-168480952D01*
X148804761Y-168385714D01*
X148757142Y-168338095D01*
X148661904Y-168290476D01*
X147852380Y-168290476D01*
X147852380Y-167909523D02*
X147852380Y-167290476D01*
X148233333Y-167623809D01*
X148233333Y-167480952D01*
X148280952Y-167385714D01*
X148328571Y-167338095D01*
X148423809Y-167290476D01*
X148661904Y-167290476D01*
X148757142Y-167338095D01*
X148804761Y-167385714D01*
X148852380Y-167480952D01*
X148852380Y-167766666D01*
X148804761Y-167861904D01*
X148757142Y-167909523D01*
X153752380Y-174461904D02*
X154561904Y-174461904D01*
X154657142Y-174414285D01*
X154704761Y-174366666D01*
X154752380Y-174271428D01*
X154752380Y-174080952D01*
X154704761Y-173985714D01*
X154657142Y-173938095D01*
X154561904Y-173890476D01*
X153752380Y-173890476D01*
X154085714Y-172985714D02*
X154752380Y-172985714D01*
X153704761Y-173223809D02*
X154419047Y-173461904D01*
X154419047Y-172842857D01*
X133193980Y-165521066D02*
X132717790Y-165854400D01*
X133193980Y-166092495D02*
X132193980Y-166092495D01*
X132193980Y-165711542D01*
X132241600Y-165616304D01*
X132289219Y-165568685D01*
X132384457Y-165521066D01*
X132527314Y-165521066D01*
X132622552Y-165568685D01*
X132670171Y-165616304D01*
X132717790Y-165711542D01*
X132717790Y-166092495D01*
X132193980Y-164616304D02*
X132193980Y-165092495D01*
X132670171Y-165140114D01*
X132622552Y-165092495D01*
X132574933Y-164997257D01*
X132574933Y-164759161D01*
X132622552Y-164663923D01*
X132670171Y-164616304D01*
X132765409Y-164568685D01*
X133003504Y-164568685D01*
X133098742Y-164616304D01*
X133146361Y-164663923D01*
X133193980Y-164759161D01*
X133193980Y-164997257D01*
X133146361Y-165092495D01*
X133098742Y-165140114D01*
X125768466Y-163002161D02*
X125911323Y-163049780D01*
X126149419Y-163049780D01*
X126244657Y-163002161D01*
X126292276Y-162954542D01*
X126339895Y-162859304D01*
X126339895Y-162764066D01*
X126292276Y-162668828D01*
X126244657Y-162621209D01*
X126149419Y-162573590D01*
X125958942Y-162525971D01*
X125863704Y-162478352D01*
X125816085Y-162430733D01*
X125768466Y-162335495D01*
X125768466Y-162240257D01*
X125816085Y-162145019D01*
X125863704Y-162097400D01*
X125958942Y-162049780D01*
X126197038Y-162049780D01*
X126339895Y-162097400D01*
X126673228Y-162049780D02*
X126911323Y-163049780D01*
X127101800Y-162335495D01*
X127292276Y-163049780D01*
X127530371Y-162049780D01*
X127863704Y-162145019D02*
X127911323Y-162097400D01*
X128006561Y-162049780D01*
X128244657Y-162049780D01*
X128339895Y-162097400D01*
X128387514Y-162145019D01*
X128435133Y-162240257D01*
X128435133Y-162335495D01*
X128387514Y-162478352D01*
X127816085Y-163049780D01*
X128435133Y-163049780D01*
M02*
